<svg xmlns="http://www.w3.org/2000/svg"  viewBox="0 0 48 48" width="48px" height="48px"><path d="M 12.498047 5 A 1.50015 1.50015 0 0 0 10.998047 6.5 L 10.998047 11 C 9.6598908 11 8.5089405 11.606839 7.6132812 12.427734 C 6.7176221 13.24863 5.9980469 14.340882 5.9980469 15.707031 L 5.9980469 17.542969 C 5.9980469 19.521563 6.9703503 21.304698 8.359375 22.632812 C 7.6075513 23.695133 6.9980469 24.998096 6.9980469 26.554688 L 6.9980469 38.783203 C 6.9980469 39.834203 7.3271318 40.917679 8.0996094 41.734375 C 8.8720869 42.551071 10.041152 43 11.316406 43 L 36.679688 43 C 37.955275 43 39.130047 42.536264 39.873047 41.699219 C 40.616047 40.862174 40.884766 39.79587 40.884766 38.783203 L 40.998047 26.115234 A 1.50015 1.50015 0 0 0 40.998047 26.101562 C 40.998047 24.636538 40.374512 23.501047 39.671875 22.597656 C 41.04169 21.273156 41.998047 19.504506 41.998047 17.542969 L 41.998047 15.707031 C 41.998047 14.340882 41.278472 13.24863 40.382812 12.427734 C 39.728259 11.827818 38.898751 11.436953 37.998047 11.21875 L 37.998047 6.5 A 1.50015 1.50015 0 0 0 36.498047 5 L 29.498047 5 A 1.50015 1.50015 0 0 0 27.998047 6.5 L 27.998047 11 L 20.998047 11 L 20.998047 6.5 A 1.50015 1.50015 0 0 0 19.498047 5 L 12.498047 5 z M 13.998047 8 L 17.998047 8 L 17.998047 11 L 13.998047 11 L 13.998047 8 z M 30.998047 8 L 34.998047 8 L 34.998047 11 L 30.998047 11 L 30.998047 8 z M 10.998047 14 L 12.251953 14 A 1.50015 1.50015 0 0 0 12.738281 14 L 19.251953 14 A 1.50015 1.50015 0 0 0 19.738281 14 L 29.251953 14 A 1.50015 1.50015 0 0 0 29.738281 14 L 36.251953 14 A 1.50015 1.50015 0 0 0 36.738281 14 L 36.998047 14 C 37.316891 14 37.915378 14.23727 38.355469 14.640625 C 38.79556 15.04398 38.998047 15.55418 38.998047 15.707031 L 38.998047 17.542969 C 38.998047 18.536938 38.43609 19.675103 37.476562 20.554688 C 36.517035 21.434271 35.214341 22 33.998047 22 L 30.744141 22 A 1.50015 1.50015 0 0 0 30.474609 21.978516 A 1.50015 1.50015 0 0 0 30.255859 22 L 17.744141 22 A 1.50015 1.50015 0 0 0 17.474609 21.978516 A 1.50015 1.50015 0 0 0 17.255859 22 L 13.998047 22 C 12.781753 22 11.479059 21.434271 10.519531 20.554688 C 9.5600035 19.675104 8.9980469 18.536938 8.9980469 17.542969 L 8.9980469 15.707031 C 8.9980469 15.55418 9.2005341 15.04398 9.640625 14.640625 C 10.080716 14.23727 10.679203 14 10.998047 14 z M 37.1875 24.291016 C 37.698393 24.906827 37.998047 25.44557 37.998047 26.101562 L 37.884766 38.769531 A 1.50015 1.50015 0 0 0 37.884766 38.783203 C 37.884766 39.270536 37.758907 39.562529 37.628906 39.708984 C 37.498906 39.85544 37.320099 40 36.679688 40 L 11.316406 40 C 10.676661 40 10.437069 39.840632 10.279297 39.673828 C 10.121524 39.507024 9.9980469 39.232203 9.9980469 38.783203 L 9.9980469 26.554688 C 9.9980469 25.790895 10.334657 25.037875 10.853516 24.3125 C 11.82758 24.745031 12.890555 25 13.998047 25 L 15.998047 25 L 15.998047 32 A 1.50015 1.50015 0 1 0 18.998047 32 L 18.998047 25 L 28.998047 25 L 28.998047 32 A 1.50015 1.50015 0 1 0 31.998047 32 L 31.998047 25 L 33.998047 25 C 35.122856 25 36.201114 24.736115 37.1875 24.291016 z"/></svg>