<svg xmlns="http://www.w3.org/2000/svg" xmlns:xlink="http://www.w3.org/1999/xlink" viewBox="0,0,256,256" width="100px" height="100px"><g fill="none" fill-rule="nonzero" stroke="none" stroke-width="1" stroke-linecap="butt" stroke-linejoin="miter" stroke-miterlimit="10" stroke-dasharray="" stroke-dashoffset="0" font-family="none" font-weight="none" font-size="none" text-anchor="none" style="mix-blend-mode: normal"><g transform="scale(2.56,2.56)"><path d="M91.43,49.07c0,7.755 -2.733,19.138 -7.281,26.244c0.952,1.69 1.472,3.619 1.472,5.626v6.49c-0.001,6.341 -5.16,11.5 -11.501,11.5h-29.1c-6.341,0 -11.5,-5.159 -11.5,-11.5v-6.49c0,-1.413 0.268,-2.803 0.768,-4.103c-2.557,-2.395 -4.418,-4.987 -5.379,-6.456l-6.754,-5.626l-5.195,-1.732c-2.879,-0.959 -7.7,-2.564 -9.348,-7.356c-0.324,-0.959 -0.483,-1.935 -0.483,-2.926c0,-2.164 0.729,-4.312 2.231,-6.564c1.848,-2.762 5.22,-6.426 13.19,-6.426c4.074,0 7.664,1.42 10.549,2.561c0.291,0.114 0.621,0.243 0.956,0.372c0.198,-1.037 0.375,-2.607 0.375,-4.923c0,-0.188 0.009,-0.371 0.025,-0.55l0.06,-1.183c0.209,-4.082 0.794,-15.549 1.12,-22.628c0.136,-2.982 1.399,-5.765 3.557,-7.831c2.18,-2.068 5.011,-3.198 7.988,-3.198c6.38,0 11.57,5.186 11.57,11.56v10.8c1.987,0.139 3.883,0.722 5.613,1.716c2.348,-0.754 4.791,-0.817 7.121,-0.157c2.648,0.748 4.983,2.406 6.794,4.786c1.404,0.067 2.808,0.385 4.144,0.951c2.827,1.212 7.704,4.556 8.8,13.42c0.139,1.087 0.208,2.279 0.208,3.623z" fill-opacity="0" fill="#1d1d1b" opacity="0.35"></path><path d="M89.43,47.069c0,7.755 -2.733,19.138 -7.281,26.244c0.952,1.69 1.472,3.619 1.472,5.626v6.49c-0.001,6.341 -5.16,11.5 -11.501,11.5h-29.1c-6.341,0 -11.5,-5.159 -11.5,-11.5v-6.49c0,-1.413 0.268,-2.803 0.768,-4.103c-2.557,-2.395 -4.418,-4.987 -5.379,-6.456l-6.754,-5.626l-5.195,-1.732c-2.879,-0.959 -7.7,-2.564 -9.348,-7.356c-0.324,-0.959 -0.483,-1.935 -0.483,-2.926c0,-2.164 0.729,-4.312 2.231,-6.564c1.848,-2.762 5.22,-6.426 13.19,-6.426c4.074,0 7.664,1.42 10.549,2.561c0.291,0.114 0.621,0.243 0.956,0.372c0.198,-1.037 0.375,-2.607 0.375,-4.923c0,-0.188 0.009,-0.371 0.025,-0.55l0.06,-1.183c0.209,-4.082 0.794,-15.549 1.12,-22.628c0.136,-2.982 1.399,-5.765 3.557,-7.831c2.18,-2.068 5.011,-3.198 7.988,-3.198c6.38,0 11.57,5.186 11.57,11.56v10.8c1.987,0.139 3.883,0.722 5.613,1.716c2.348,-0.754 4.791,-0.817 7.121,-0.157c2.648,0.748 4.983,2.406 6.794,4.786c1.404,0.067 2.808,0.385 4.144,0.951c2.827,1.212 7.704,4.556 8.8,13.42c0.139,1.087 0.208,2.279 0.208,3.623z" fill="#f2f2f2"></path><path d="M40.126,11.698c-0.397,8.74 -1.194,24.061 -1.194,24.061c0,7.071 -1.414,9.9 -2.829,11.314c-2.828,2.828 -9.192,-2.828 -15.556,-2.828c-4.95,0 -6.669,1.871 -7.778,3.536c-2.828,4.243 0,5.657 4.243,7.071l6.364,2.121l8.485,7.071c0,0 5.761,9.899 12.832,9.899h-1.669c-2.761,0 -5,2.239 -5,5v6.486c0,2.761 2.239,5 5,5h29.092c2.761,0 5,-2.239 5,-5v-6.485c0,-2.761 -2.239,-5 -5,-5h-0.657c6.364,0 12.523,-19.873 11.314,-29.698c-1.069,-8.681 -7.071,-9.899 -9.9,-7.778c-2.121,-6.364 -7.071,-7.778 -11.314,-4.243c-3.951,-4.939 -9.192,-2.828 -11.314,-0.707v-19.589c0,-2.796 -2.266,-5.062 -5.062,-5.062c-2.706,0 -4.934,2.128 -5.057,4.831z" fill="#ffc7a3"></path><path d="M76.693,78.429v9c0,1.657 -1.343,3 -3,3h-32c-1.657,0 -3,-1.343 -3,-3v-9c0,-1.657 1.343,-3 3,-3h32c1.657,0 3,1.343 3,3z" fill="#70bfff"></path><circle cx="68.193" cy="81.429" r="3" fill="#40396e"></circle><path d="M42.63,12.403c0,-1.366 1.122,-2.474 2.506,-2.474c1.384,0 2.506,1.108 2.506,2.475c0,1.367 -5.012,1.366 -5.012,-0.001z" fill="#ffe8d9"></path><path d="M84.432,47.07c0,8.642 -3.659,20.687 -8.099,25.705c-0.227,0.257 -0.455,0.495 -0.685,0.715c1.784,1.16 2.967,3.172 2.967,5.454v6.485c0,3.584 -2.916,6.5 -6.5,6.5h-29.091c-3.584,0 -6.5,-2.916 -6.5,-6.5v-6.485c0,-2.107 1.008,-3.984 2.567,-5.173c-4.476,-2.635 -7.674,-7.574 -8.386,-8.736l-8.073,-6.728l-6.096,-2.032c-2.819,-0.939 -5.414,-1.971 -6.192,-4.24c-0.506,-1.477 -0.121,-3.14 1.177,-5.086c1.386,-2.078 3.542,-4.203 9.026,-4.203c3.108,0 6.086,1.175 8.713,2.21c2.522,0.995 4.904,1.935 5.782,1.058c1.586,-1.585 2.39,-5.034 2.39,-10.253c0,-0.026 0.003,-0.091 0.004,-0.116c0.083,-1.59 0.817,-15.771 1.192,-24.014v0c0.159,-3.513 3.039,-6.264 6.555,-6.264c3.618,0 6.563,2.944 6.563,6.562v16.742c1.295,-0.629 2.856,-1.053 4.525,-0.961c2.031,0.112 3.907,0.974 5.491,2.509c2.063,-1.315 4.28,-1.715 6.358,-1.124c2.336,0.665 4.265,2.52 5.542,5.291c1.504,-0.501 3.224,-0.432 4.808,0.243c1.824,0.776 5.003,3.035 5.791,9.433c0.116,0.938 0.171,1.948 0.171,3.008zM69.958,73.944c0,-0.828 0.672,-1.5 1.5,-1.5c0.962,0 1.96,-0.9 2.628,-1.656c4.368,-4.938 8.135,-18.74 7.198,-26.358c-0.604,-4.905 -2.759,-6.516 -3.989,-7.04c-1.222,-0.52 -2.604,-0.41 -3.523,0.278c-0.386,0.289 -0.887,0.375 -1.347,0.231c-0.46,-0.144 -0.823,-0.5 -0.976,-0.957c-0.897,-2.693 -2.371,-4.455 -4.15,-4.961c-1.492,-0.425 -3.19,0.071 -4.78,1.396c-0.31,0.258 -0.71,0.381 -1.11,0.34c-0.401,-0.04 -0.77,-0.24 -1.021,-0.555c-1.232,-1.54 -2.674,-2.366 -4.283,-2.456c-1.916,-0.105 -3.791,0.864 -4.799,1.872c-0.429,0.429 -1.074,0.558 -1.635,0.325c-0.561,-0.233 -0.926,-0.779 -0.926,-1.386v-19.588c0,-1.965 -1.598,-3.562 -3.563,-3.562c-1.908,0 -3.472,1.493 -3.559,3.4c-0.375,8.252 -1.109,22.441 -1.192,24.032c0,6.175 -1.039,10.106 -3.269,12.335c-2.269,2.269 -5.54,0.979 -9.004,-0.388c-2.378,-0.938 -5.073,-2.001 -7.612,-2.001c-4.262,0 -5.605,1.48 -6.53,2.867c-0.713,1.07 -1.009,1.94 -0.836,2.448c0.362,1.054 3.024,1.941 4.305,2.368l6.364,2.121c0.177,0.059 0.342,0.15 0.485,0.271l8.485,7.071c0.134,0.111 0.248,0.246 0.336,0.396c0.054,0.092 5.419,9.155 11.536,9.155c0.828,0 1.5,0.672 1.5,1.5c0,0.828 -0.672,1.5 -1.5,1.5h-1.669c-1.93,0 -3.5,1.57 -3.5,3.5v6.487c0,1.93 1.57,3.5 3.5,3.5h29.092c1.93,0 3.5,-1.57 3.5,-3.5v-6.485c0,-1.93 -1.57,-3.5 -3.5,-3.5h-0.657c-0.827,0 -1.499,-0.672 -1.499,-1.5z" fill="#40396e"></path></g></g></svg>