<svg xmlns="http://www.w3.org/2000/svg" xmlns:xlink="http://www.w3.org/1999/xlink" viewBox="0,0,256,256" width="100px" height="100px"><g fill="none" fill-rule="nonzero" stroke="none" stroke-width="1" stroke-linecap="butt" stroke-linejoin="miter" stroke-miterlimit="10" stroke-dasharray="" stroke-dashoffset="0" font-family="none" font-weight="none" font-size="none" text-anchor="none" style="mix-blend-mode: normal"><g transform="scale(2.56,2.56)"><path d="M21.5,93c-5.79,0 -10.5,-4.71 -10.5,-10.5v-61c0,-5.79 4.71,-10.5 10.5,-10.5h1.682c0.943,-5.114 5.435,-9 10.818,-9c0.474,0 0.954,0.031 1.427,0.092c4.727,0.607 4.662,4.274 5.573,8.908h18.182c0.943,-5.114 5.435,-9 10.818,-9c0.474,0 0.954,0.031 1.427,0.092c4.727,0.607 4.662,4.274 5.573,8.908h5.5c5.79,0 10.5,4.71 10.5,10.5v61c0,5.79 -4.71,10.5 -10.5,10.5z" fill-opacity="0" fill="#000000" opacity="0.35"></path><path d="M19.5,91c-5.79,0 -10.5,-4.71 -10.5,-10.5v-61c0,-5.79 4.71,-10.5 10.5,-10.5h1.682c0.943,-5.114 5.435,-9 10.818,-9c0.474,0 0.954,0.031 1.427,0.092c4.727,0.607 8.448,4.274 9.359,8.908h14.396c0.943,-5.114 5.435,-9 10.818,-9c0.474,0 0.954,0.031 1.427,0.092c4.727,0.607 8.448,4.274 9.359,8.908h1.714c5.79,0 10.5,4.71 10.5,10.5v61c0,5.79 -4.71,10.5 -10.5,10.5z" fill="#e1e9ef"></path><path d="M79.5,84.5h-59c-2.761,0 -5,-2.239 -5,-5v-59c0,-2.761 2.239,-5 5,-5h59c2.761,0 5,2.239 5,5v59c0,2.761 -2.239,5 -5,5z" fill="#d9eeff"></path><path d="M84.5,33v-11.466c0,-3.333 -2.239,-6.034 -5,-6.034h-59c-2.761,0 -5,2.702 -5,6.034v11.466z" fill="#96c362"></path><path d="M80.5,86h-61c-3.033,0 -5.5,-2.468 -5.5,-5.5v-61c0,-3.032 2.467,-5.5 5.5,-5.5h7.5v3h-7.5c-1.378,0 -2.5,1.121 -2.5,2.5v61c0,1.379 1.122,2.5 2.5,2.5h61c1.378,0 2.5,-1.121 2.5,-2.5v-61c0,-1.379 -1.122,-2.5 -2.5,-2.5h-7.5v-3h7.5c3.033,0 5.5,2.468 5.5,5.5v61c0,3.032 -2.467,5.5 -5.5,5.5z" fill="#40396e"></path><rect x="37" y="14" width="26" height="3" fill="#40396e"></rect><path d="M29,15v-3.83c0,-1.624 1.216,-3.08 2.838,-3.165c1.73,-0.092 3.162,1.284 3.162,2.995v4c0,1.105 0.895,2 2,2h1v-5.791c0,-3.049 -2.186,-5.77 -5.21,-6.158c-3.659,-0.47 -6.79,2.381 -6.79,5.949v6h1c1.105,0 2,-0.895 2,-2z" fill="#40396e"></path><path d="M65,15v-3.83c0,-1.624 1.216,-3.08 2.838,-3.165c1.73,-0.092 3.162,1.284 3.162,2.995v4c0,1.105 0.895,2 2,2h1v-5.791c0,-3.049 -2.186,-5.77 -5.21,-6.158c-3.659,-0.47 -6.79,2.381 -6.79,5.949v6h1c1.105,0 2,-0.895 2,-2z" fill="#40396e"></path><circle cx="32" cy="24" r="5" fill="#40396e"></circle><circle cx="68" cy="24" r="5" fill="#40396e"></circle><path d="M32,27c-1.657,0 -3,-1.343 -3,-3v-13c0,-1.657 1.343,-3 3,-3c1.657,0 3,1.343 3,3v13c0,1.657 -1.343,3 -3,3z" fill="#d9eeff"></path><path d="M68,27c-1.657,0 -3,-1.343 -3,-3v-13c0,-1.657 1.343,-3 3,-3c1.657,0 3,1.343 3,3v13c0,1.657 -1.343,3 -3,3z" fill="#d9eeff"></path><path d="M47.371,69.805c-0.767,0 -1.534,-0.292 -2.12,-0.877l-8.309,-8.295c-1.172,-1.171 -1.174,-3.07 -0.003,-4.242c1.17,-1.173 3.069,-1.176 4.243,-0.004l6.187,6.177l19.447,-19.446c1.171,-1.172 3.071,-1.172 4.242,0c1.172,1.171 1.172,3.071 0,4.242l-21.566,21.566c-0.585,0.586 -1.353,0.879 -2.121,0.879z" fill="#96c362"></path></g></g></svg>