<svg xmlns="http://www.w3.org/2000/svg"  viewBox="0 0 64 64" width="64px" height="64px"><path fill="#ed7899" d="M49,59H15C9.486,59,5,54.514,5,49V15C5,9.486,9.486,5,15,5h34c5.514,0,10,4.486,10,10v34	C59,54.514,54.514,59,49,59z"/><path fill="#e0678f" d="M6.353,54c1.732,2.984,4.955,5,8.647,5h34c3.692,0,6.915-2.016,8.647-5H6.353z"/><path fill="#fff" d="M48.505,15.366l-1.431-5.056c-0.264-0.931-1.121-1.503-1.915-1.278l-31.63,8.952	c-0.794,0.225-1.224,1.161-0.961,2.092L14,25.131L48.505,15.366z"/><path fill="#fff" d="M14,26v21.5c0,0.829,0.672,1.5,1.5,1.5h33c0.828,0,1.5-0.671,1.5-1.5V26H14z M29,43v-8l7,4L29,43z"/><path fill="#8d6c9f" d="M49,6c4.963,0,9,4.037,9,9v34c0,4.963-4.037,9-9,9H15c-4.963,0-9-4.037-9-9V15c0-4.963,4.037-9,9-9	H49 M49,4H15C8.925,4,4,8.925,4,15v34c0,6.075,4.925,11,11,11h34c6.075,0,11-4.925,11-11V15C60,8.925,55.075,4,49,4L49,4z"/><path fill="#8d6c9f" d="M12,52c-0.553,0-1,0.447-1,1v2c0,0.553,0.447,1,1,1s1-0.447,1-1v-2C13,52.447,12.553,52,12,52z M27,52c-0.553,0-1,0.447-1,1v2c0,0.553,0.447,1,1,1s1-0.447,1-1v-2C28,52.447,27.553,52,27,52z M32,52c-0.553,0-1,0.447-1,1v2	c0,0.553,0.447,1,1,1c0.553,0,1-0.447,1-1v-2C33,52.447,32.553,52,32,52z M37,52c-0.553,0-1,0.447-1,1v2c0,0.553,0.447,1,1,1	s1-0.447,1-1v-2C38,52.447,37.553,52,37,52z M42,52c-0.553,0-1,0.447-1,1v2c0,0.553,0.447,1,1,1s1-0.447,1-1v-2	C43,52.447,42.553,52,42,52z M47,52c-0.553,0-1,0.447-1,1v2c0,0.553,0.447,1,1,1s1-0.447,1-1v-2C48,52.447,47.553,52,47,52z M52,56	c0.553,0,1-0.447,1-1v-2c0-0.553-0.447-1-1-1s-1,0.447-1,1v2C51,55.553,51.447,56,52,56z M17,52c-0.553,0-1,0.447-1,1v2	c0,0.553,0.447,1,1,1s1-0.447,1-1v-2C18,52.447,17.553,52,17,52z M22,52c-0.553,0-1,0.447-1,1v2c0,0.553,0.447,1,1,1s1-0.447,1-1v-2	C23,52.447,22.553,52,22,52z"/><path fill="#8d6c9f" d="M48.5,50h-33c-1.379,0-2.5-1.121-2.5-2.5V26c0-0.553,0.447-1,1-1h36c0.553,0,1,0.447,1,1v21.5	C51,48.879,49.879,50,48.5,50z M15,27v20.5c0,0.275,0.225,0.5,0.5,0.5h33c0.275,0,0.5-0.225,0.5-0.5V27H15z"/><path fill="#8d6c9f" d="M19.625,28L17,29.75V28H19.625z M47,31v-1.75L44.375,31H47z M22.062,31l3.75-3h-2.438l-3.75,3H22.062	z M28.25,31L32,28h-2.438l-3.75,3H28.25z M34.438,31l3.75-3H35.75L32,31H34.438z M40.625,31l3.75-3h-2.438l-3.75,3H40.625z"/><path fill="#8d6c9f" d="M29,44c-0.174,0-0.347-0.045-0.502-0.135C28.189,43.686,28,43.356,28,43v-8	c0-0.356,0.189-0.686,0.498-0.865c0.308-0.179,0.688-0.18,0.998-0.003l7,4C36.808,38.31,37,38.642,37,39s-0.192,0.69-0.504,0.868	l-7,4C29.343,43.956,29.171,44,29,44z M30,36.724v4.553L33.984,39L30,36.724z"/><path fill="#8d6c9f" d="M14,26.132c-0.169,0-0.338-0.043-0.488-0.127c-0.231-0.13-0.401-0.346-0.474-0.601l-1.431-5.056	c-0.192-0.68-0.144-1.39,0.137-2.001c0.302-0.655,0.854-1.139,1.514-1.325L44.887,8.07c1.324-0.378,2.736,0.509,3.149,1.968	l1.431,5.056c0.15,0.531-0.158,1.084-0.689,1.234l-34.505,9.766C14.183,26.119,14.091,26.132,14,26.132z M45.511,9.983	c-0.027,0-0.054,0.004-0.079,0.011l-31.629,8.952c-0.126,0.036-0.2,0.148-0.241,0.236c-0.081,0.177-0.092,0.403-0.03,0.621	l1.158,4.094l32.581-9.221l-1.158-4.094C46.005,10.204,45.729,9.983,45.511,9.983z"/><path fill="#8d6c9f" d="M18.004,18.836l-2.047,2.4l-0.478-1.683L18.004,18.836z M45.158,14.248l-0.478-1.683l-2.047,2.4	L45.158,14.248z M21.168,21.057l2.788-3.91l-2.345,0.666l-2.788,3.91L21.168,21.057z M27.121,19.367l2.788-3.91l-2.345,0.666	l-2.788,3.91L27.121,19.367z M33.073,17.678l2.788-3.91l-2.345,0.666l-2.788,3.91L33.073,17.678z M39.025,15.988l2.788-3.91	l-2.345,0.666l-2.788,3.91L39.025,15.988z"/><rect width="2" height="3" x="13" y="24" fill="#8d6c9f"/></svg>