<svg xmlns="http://www.w3.org/2000/svg" xmlns:xlink="http://www.w3.org/1999/xlink" viewBox="0,0,256,256" width="100px" height="100px"><g fill="none" fill-rule="nonzero" stroke="none" stroke-width="none" stroke-linecap="none" stroke-linejoin="none" stroke-miterlimit="10" stroke-dasharray="" stroke-dashoffset="0" font-family="none" font-weight="none" font-size="none" text-anchor="none" style="mix-blend-mode: normal"><g transform="scale(2.56,2.56)"><path d="M13.5,96c-2.269,0 -4.336,-1.152 -5.529,-3.083c-1.193,-1.931 -1.3,-4.295 -0.285,-6.324l17,-34c1.013,-2.025 3.044,-3.395 5.302,-3.573c0.195,-0.014 0.35,-0.02 0.503,-0.02c1.543,0 3.022,0.549 4.181,1.517l10.828,-19.686v-19.331c0,-3.584 2.916,-6.5 6.5,-6.5c2,3 4.831,1.522 5.875,3.72l12.847,4.672c2.527,0.918 4.206,3.249 4.276,5.938c0.07,2.688 -1.484,5.104 -3.959,6.154l-13.593,5.327l9.487,17.011c1.22,-1.176 3.872,-1.822 5.569,-1.822c0.352,0 0.707,0.029 1.055,0.086c2.091,0.352 2.741,1.686 3.658,3.572l17.999,36.998c0.988,2.026 0.863,4.38 -0.336,6.294c-1.192,1.908 -3.253,3.05 -5.509,3.05z" fill-opacity="0" fill="#000000" stroke="none" stroke-width="1" stroke-linecap="butt" stroke-linejoin="miter" opacity="0.35"></path><path d="M11.5,94c-2.269,0 -4.336,-1.152 -5.529,-3.083c-1.193,-1.931 -1.3,-4.295 -0.285,-6.324l17,-34c1.013,-2.025 3.044,-3.395 5.302,-3.573c0.195,-0.014 0.35,-0.02 0.503,-0.02c1.543,0 3.022,0.549 4.181,1.517l10.828,-19.686v-19.331c0,-3.584 2.916,-6.5 6.5,-6.5c2.59,0 4.831,1.522 5.875,3.72l12.847,4.672c2.527,0.918 4.206,3.249 4.276,5.938c0.07,2.688 -1.484,5.104 -3.959,6.154l-12.539,5.319v0.007l9.487,17.011c1.221,-1.175 2.818,-1.821 4.515,-1.821c0.352,0 0.707,0.029 1.055,0.086c2.091,0.352 3.873,1.686 4.789,3.572l17.999,36.998c0.988,2.026 0.863,4.38 -0.336,6.294c-1.192,1.908 -3.253,3.05 -5.509,3.05z" fill="#e3f1f4" stroke="none" stroke-width="1" stroke-linecap="butt" stroke-linejoin="miter"></path><path d="M50,24.5v-13l16.5,6z" fill="#ff7575" stroke="none" stroke-width="1" stroke-linecap="butt" stroke-linejoin="miter"></path><path d="M88.5,87.5h-77l17,-32.5l5,5.5l16.5,-30l15,25.5l5.5,-5.5z" fill="#9aa2e6" stroke="none" stroke-width="1" stroke-linecap="butt" stroke-linejoin="miter"></path><path d="M63.865,54.798l-9.865,-8.798l-3.483,4l-3.517,-4l-10,9l13,-24z" fill="#d9eeff" stroke="none" stroke-width="1" stroke-linecap="butt" stroke-linejoin="miter"></path><path d="M88.5,87.5h-77l17,-34l5,7l16.5,-30l14.5,26l6,-6z" fill="none" stroke="#40396e" stroke-width="3" stroke-linecap="round" stroke-linejoin="round"></path><path d="M50,9.5v21" fill="none" stroke="#40396e" stroke-width="3" stroke-linecap="round" stroke-linejoin="round"></path><path d="M50,24.5v-13l16.5,6z" fill="none" stroke="#40396e" stroke-width="3" stroke-linecap="round" stroke-linejoin="round"></path></g></g></svg>