<svg xmlns="http://www.w3.org/2000/svg" xmlns:xlink="http://www.w3.org/1999/xlink" viewBox="0,0,256,256" width="100px" height="100px"><g transform="translate(-17.92,-17.92) scale(1.14,1.14)"><g fill="none" fill-rule="nonzero" stroke="none" stroke-width="none" stroke-linecap="butt" stroke-linejoin="miter" stroke-miterlimit="10" stroke-dasharray="" stroke-dashoffset="0" font-family="none" font-weight="none" font-size="none" text-anchor="none" style="mix-blend-mode: normal"><g transform="scale(2.56,2.56)"><circle cx="52" cy="52" r="44" fill-opacity="0" fill="#000000" stroke="none" stroke-width="1" opacity="0.35"></circle><circle cx="50" cy="50" r="44" fill="#f2f2f2" stroke="none" stroke-width="1"></circle><path d="M50,91c-22.607,0 -41,-18.393 -41,-41c0,-22.607 18.393,-41 41,-41c22.607,0 41,18.393 41,41c0,22.607 -18.393,41 -41,41z" fill="#f2f2f2" stroke="none" stroke-width="1"></path><circle cx="50" cy="50" r="38.026" fill="#70bfff" stroke="none" stroke-width="1"></circle><circle cx="50" cy="50" r="37.5" fill="none" stroke="#40396e" stroke-width="3"></circle><g fill="#f2f2f2" stroke="none" stroke-width="1"><path d="M50.025,39.346c-1.362,0 -2.408,-0.316 -3.139,-0.948c-0.729,-0.632 -1.094,-1.533 -1.094,-2.7c0,-1.199 0.365,-2.116 1.094,-2.748c0.731,-0.633 1.777,-0.95 3.139,-0.95c2.789,0 4.183,1.234 4.183,3.697c0,2.433 -1.394,3.649 -4.183,3.649zM50.025,68c-1.201,0 -2.117,-0.349 -2.749,-1.046c-0.633,-0.697 -0.948,-1.678 -0.948,-2.943v-16.637c0,-2.692 1.232,-4.038 3.697,-4.038c1.167,0 2.067,0.349 2.7,1.046c0.632,0.699 0.948,1.696 0.948,2.993v16.638c0,1.265 -0.31,2.246 -0.924,2.943c-0.617,0.695 -1.525,1.044 -2.724,1.044z"></path></g></g></g></g></svg>