<svg xmlns="http://www.w3.org/2000/svg"  viewBox="0 0 48 48" width="96px" height="96px"><path d="M 13.5 5 C 10.480226 5 8 7.4802259 8 10.5 L 8 32.5 C 8 35.519774 10.480226 38 13.5 38 L 29.5 38 C 32.519774 38 35 35.519774 35 32.5 L 35 10.5 C 35 7.4802259 32.519774 5 29.5 5 L 13.5 5 z M 13.5 8 L 29.5 8 C 30.898226 8 32 9.1017741 32 10.5 L 32 32.5 C 32 33.898226 30.898226 35 29.5 35 L 13.5 35 C 12.101774 35 11 33.898226 11 32.5 L 11 10.5 C 11 9.1017741 12.101774 8 13.5 8 z M 37 10 L 37 33.5 C 37 37.09 34.09 40 30.5 40 L 13 40 L 13.8125 41.21875 C 14.5535 42.33175 15.802625 43 17.140625 43 L 30.5 43 C 35.747 43 40 38.747 40 33.5 L 40 14.140625 C 40 12.803625 39.33175 11.5545 38.21875 10.8125 L 37 10 z M 21.5 11 C 18.480226 11 16 13.480226 16 16.5 L 16 16.943359 A 1.50015 1.50015 0 1 0 19 16.943359 L 19 16.5 C 19 15.101774 20.101774 14 21.5 14 C 22.898226 14 24 15.101774 24 16.5 C 24 17.517709 23.816279 17.978007 23.609375 18.302734 C 23.402471 18.627462 23.093325 18.881028 22.589844 19.265625 C 22.086362 19.650222 21.391003 20.168568 20.851562 21.035156 C 20.312123 21.901744 20 23.05 20 24.5 A 1.50015 1.50015 0 1 0 23 24.5 C 23 23.45 23.187878 22.95935 23.398438 22.621094 C 23.608996 22.282838 23.913638 22.029669 24.410156 21.650391 C 24.906675 21.271113 25.597529 20.768382 26.140625 19.916016 C 26.683721 19.063649 27 17.926791 27 16.5 C 27 13.480226 24.519774 11 21.5 11 z M 21.5 28 A 2 2 0 0 0 21.5 32 A 2 2 0 0 0 21.5 28 z"/></svg>