<svg xmlns="http://www.w3.org/2000/svg" xmlns:xlink="http://www.w3.org/1999/xlink" viewBox="0,0,256,256" width="100px" height="100px"><g fill="none" fill-rule="nonzero" stroke="none" stroke-width="1" stroke-linecap="butt" stroke-linejoin="miter" stroke-miterlimit="10" stroke-dasharray="" stroke-dashoffset="0" font-family="none" font-weight="none" font-size="none" text-anchor="none" style="mix-blend-mode: normal"><g transform="scale(2.56,2.56)"><path d="M56.174,8.203c-0.231,-0.024 -0.462,-0.037 -0.689,-0.037c-1.244,0 -2.447,0.366 -3.485,1.033c-1.038,-0.666 -2.241,-1.032 -3.486,-1.032c-0.225,0 -0.45,0.012 -0.613,0.029c-8.843,0.818 -17.133,4.251 -23.979,9.93c-1.117,0.929 -1.877,2.207 -2.186,3.609c-1.402,0.309 -2.681,1.07 -3.613,2.19c-5.675,6.843 -9.107,15.133 -9.926,23.974c-0.135,1.447 0.231,2.89 1.004,4.101c-0.773,1.211 -1.139,2.653 -1.004,4.1c0.818,8.843 4.251,17.133 9.93,23.979c0.927,1.115 2.203,1.875 3.609,2.185c0.309,1.402 1.07,2.682 2.19,3.614c6.843,5.675 15.133,9.107 23.919,9.92c0.222,0.023 0.439,0.034 0.656,0.034c1.253,0 2.46,-0.366 3.5,-1.032c1.04,0.666 2.247,1.032 3.5,1.032c0.218,0 0.435,-0.011 0.6,-0.028c22.746,-2.107 39.899,-20.939 39.899,-43.804c0,-22.865 -17.153,-41.697 -39.826,-43.797z" fill-opacity="0" fill="#000000" opacity="0.35"></path><path d="M54.174,6.203c-0.231,-0.024 -0.462,-0.037 -0.689,-0.037c-1.244,0 -2.447,0.366 -3.485,1.033c-1.038,-0.666 -2.241,-1.032 -3.486,-1.032c-0.225,0 -0.45,0.012 -0.613,0.029c-8.843,0.818 -17.133,4.251 -23.979,9.93c-1.117,0.929 -1.877,2.207 -2.186,3.609c-1.402,0.309 -2.681,1.07 -3.613,2.19c-5.675,6.843 -9.107,15.133 -9.926,23.974c-0.135,1.447 0.231,2.89 1.004,4.101c-0.773,1.211 -1.139,2.653 -1.004,4.1c0.818,8.843 4.251,17.133 9.93,23.979c0.927,1.115 2.203,1.875 3.609,2.185c0.309,1.402 1.07,2.682 2.19,3.614c6.843,5.675 15.133,9.107 23.919,9.92c0.222,0.023 0.439,0.034 0.656,0.034c1.253,0 2.46,-0.366 3.5,-1.032c1.04,0.666 2.247,1.032 3.5,1.032c0.218,0 0.435,-0.011 0.6,-0.028c22.746,-2.107 39.899,-20.939 39.899,-43.804c0,-22.865 -17.153,-41.697 -39.826,-43.797z" fill="#f2f2f2"></path><path d="M31.768,26.818c4.155,-3.273 9.208,-5.451 14.732,-6.104v-8.046c-7.727,0.716 -14.775,3.77 -20.425,8.457z" fill="#96c362"></path><path d="M31.768,28.318c-0.386,0 -0.77,-0.148 -1.061,-0.439l-5.692,-5.693c-0.299,-0.299 -0.457,-0.709 -0.438,-1.13c0.02,-0.422 0.216,-0.815 0.54,-1.085c6.062,-5.028 13.408,-8.07 21.244,-8.796c0.429,-0.045 0.838,0.101 1.149,0.385c0.311,0.284 0.49,0.686 0.49,1.108v8.046c0,0.761 -0.568,1.4 -1.324,1.489c-5.101,0.604 -9.935,2.607 -13.979,5.794c-0.275,0.215 -0.602,0.321 -0.929,0.321zM28.326,21.255l3.58,3.581c3.891,-2.802 8.371,-4.658 13.094,-5.426v-5.06c-6.072,0.842 -11.779,3.206 -16.674,6.905z" fill="#40396e"></path><path d="M26.818,68.232c-3.273,-4.155 -5.451,-9.208 -6.104,-14.732h-8.046c0.716,7.727 3.77,14.775 8.457,20.425z" fill="#96c362"></path><path d="M21.125,75.425c-0.023,0 -0.047,-0.001 -0.069,-0.002c-0.422,-0.02 -0.815,-0.216 -1.085,-0.54c-5.028,-6.062 -8.07,-13.408 -8.796,-21.244c-0.039,-0.42 0.101,-0.838 0.385,-1.149c0.284,-0.311 0.686,-0.49 1.108,-0.49h8.046c0.761,0 1.4,0.568 1.489,1.324c0.604,5.101 2.607,9.935 5.794,13.979c0.47,0.598 0.419,1.452 -0.118,1.989l-5.693,5.692c-0.283,0.284 -0.665,0.441 -1.061,0.441zM14.351,55c0.842,6.072 3.205,11.779 6.904,16.674l3.581,-3.58c-2.802,-3.891 -4.658,-8.371 -5.426,-13.094z" fill="#40396e"></path><path d="M20.714,46.5c0.653,-5.524 2.832,-10.577 6.104,-14.732l-5.693,-5.693c-4.687,5.65 -7.741,12.698 -8.457,20.425z" fill="#96c362"></path><path d="M20.714,48h-8.046c-0.422,0 -0.824,-0.178 -1.108,-0.489c-0.284,-0.311 -0.424,-0.729 -0.385,-1.149c0.726,-7.836 3.768,-15.182 8.796,-21.244c0.27,-0.324 0.663,-0.521 1.085,-0.54c0.408,-0.012 0.831,0.139 1.13,0.438l5.693,5.692c0.537,0.537 0.588,1.392 0.118,1.988c-3.188,4.047 -5.19,8.881 -5.794,13.98c-0.089,0.756 -0.728,1.324 -1.489,1.324zM14.351,45h5.06c0.768,-4.723 2.624,-9.202 5.426,-13.094l-3.581,-3.58c-3.7,4.895 -6.064,10.602 -6.905,16.674z" fill="#40396e"></path><g><path d="M46.5,79.286c-5.524,-0.653 -10.577,-2.832 -14.732,-6.104l-5.693,5.693c5.65,4.687 12.698,7.741 20.425,8.457z" fill="#96c362"></path><path d="M46.5,88.832c-0.046,0 -0.092,-0.002 -0.139,-0.007c-7.836,-0.726 -15.182,-3.768 -21.244,-8.796c-0.324,-0.27 -0.521,-0.663 -0.54,-1.085c-0.02,-0.421 0.139,-0.831 0.438,-1.13l5.692,-5.693c0.538,-0.537 1.393,-0.586 1.989,-0.118c4.045,3.187 8.879,5.19 13.979,5.794c0.757,0.089 1.325,0.728 1.325,1.489v8.046c0,0.422 -0.178,0.824 -0.489,1.108c-0.278,0.253 -0.639,0.392 -1.011,0.392zM28.326,78.745c4.895,3.699 10.602,6.062 16.674,6.904v-5.06c-4.723,-0.768 -9.203,-2.624 -13.094,-5.426z" fill="#40396e"></path></g><g><path d="M53.5,12.668v8.046c14.642,1.732 26,14.179 26,29.286c0,15.107 -11.358,27.554 -26,29.286v8.046c19.069,-1.766 34,-17.802 34,-37.332c0,-19.53 -14.931,-35.566 -34,-37.332z" fill="#96c362"></path><path d="M53.5,88.832c-0.372,0 -0.733,-0.139 -1.011,-0.392c-0.311,-0.284 -0.489,-0.686 -0.489,-1.108v-8.046c0,-0.761 0.568,-1.4 1.324,-1.489c14.068,-1.664 24.676,-13.614 24.676,-27.797c0,-14.183 -10.608,-26.133 -24.676,-27.797c-0.756,-0.089 -1.324,-0.728 -1.324,-1.489v-8.046c0,-0.422 0.178,-0.824 0.489,-1.108c0.311,-0.284 0.722,-0.431 1.149,-0.385c20.16,1.867 35.362,18.558 35.362,38.825c0,20.267 -15.202,36.958 -35.361,38.825c-0.047,0.005 -0.093,0.007 -0.139,0.007zM55,80.591v5.059c17.787,-2.449 31,-17.496 31,-35.65c0,-18.154 -13.213,-33.201 -31,-35.649v5.059c14.915,2.413 26,15.334 26,30.59c0,15.256 -11.085,28.177 -26,30.591z" fill="#40396e"></path></g><g><path d="M43.507,64.5c-1.051,0 -2.039,-0.409 -2.782,-1.152l-8.138,-8.124c-0.744,-0.742 -1.155,-1.73 -1.156,-2.782c-0.001,-1.053 0.408,-2.042 1.151,-2.787c0.743,-0.744 1.732,-1.155 2.785,-1.155c1.052,0 2.04,0.41 2.783,1.153l5.354,5.344l18.344,-18.343c0.745,-0.744 1.733,-1.153 2.784,-1.153c1.052,0 2.04,0.409 2.784,1.153c0.744,0.744 1.153,1.732 1.153,2.784c0,1.052 -0.409,2.04 -1.153,2.784l-21.125,21.125c-0.745,0.744 -1.733,1.153 -2.784,1.153z" fill="#96c362"></path><path d="M64.632,37c0.624,0 1.247,0.238 1.723,0.714c0.952,0.951 0.952,2.495 0,3.447l-21.125,21.125c-0.476,0.476 -1.1,0.714 -1.723,0.714c-0.623,0 -1.246,-0.237 -1.722,-0.713l-8.139,-8.125c-0.953,-0.951 -0.955,-2.494 -0.003,-3.447c0.476,-0.477 1.1,-0.716 1.725,-0.716c0.623,0 1.246,0.238 1.722,0.713l6.416,6.404l19.403,-19.403c0.476,-0.475 1.099,-0.713 1.723,-0.713M64.632,34c-1.452,0 -2.817,0.566 -3.845,1.593l-17.284,17.283l-4.294,-4.287c-1.025,-1.025 -2.39,-1.59 -3.841,-1.59c-1.455,0 -2.821,0.567 -3.849,1.597c-1.026,1.027 -1.59,2.394 -1.589,3.846c0.001,1.453 0.569,2.818 1.597,3.844l8.138,8.124c1.025,1.025 2.39,1.59 3.842,1.59c1.452,0 2.818,-0.566 3.845,-1.593l21.125,-21.125c1.027,-1.026 1.593,-2.392 1.593,-3.845c0,-1.453 -0.566,-2.819 -1.594,-3.846c-1.027,-1.025 -2.392,-1.591 -3.844,-1.591z" fill="#40396e"></path></g></g></g></svg>