<svg xmlns="http://www.w3.org/2000/svg"  viewBox="0 0 48 48" width="48px" height="48px"><path d="M 24 4 C 23.251914 4 22.511525 4.041781 21.78125 4.1230469 A 2.0002 2.0002 0 1 0 22.222656 8.0976562 C 22.804381 8.0329217 23.398086 8 24 8 C 32.860089 8 40 15.139911 40 24 C 40 32.860089 32.860089 40 24 40 C 23.398086 40 22.804381 39.967084 22.222656 39.902344 A 2.0002 2.0002 0 0 0 22.023438 39.886719 A 2.0002 2.0002 0 0 0 21.78125 43.876953 C 22.457177 43.95217 23.142645 43.990349 23.833984 43.996094 A 2.0002 2.0002 0 0 0 24 44 C 35.021911 44 44 35.021911 44 24 C 44 13.031129 35.107338 4.0897404 24.158203 4.0039062 A 2.0002 2.0002 0 0 0 24 4 z M 15.332031 6.3242188 L 14.212891 6.5703125 L 13.671875 6.8710938 L 13.539062 6.953125 L 12.373047 7.7265625 L 12.248047 7.8164062 L 11.148438 8.6757812 L 11.03125 8.7753906 L 10.509766 9.2539062 L 9.859375 10.775391 L 10.578125 12.267578 L 12.175781 12.705078 L 13.208984 12.205078 L 13.669922 11.783203 L 14.666016 11.005859 L 15.679688 10.333984 L 16.158203 10.064453 L 17.142578 8.7324219 L 16.785156 7.1171875 L 15.332031 6.3242188 z M 8.2441406 14.607422 L 6.5996094 14.804688 L 5.8320312 15.65625 L 5.6308594 16.083984 L 5.5683594 16.228516 L 5.0625 17.554688 L 5.0117188 17.707031 L 4.6113281 19.080078 L 4.5722656 19.236328 L 4.4121094 20.017578 L 4.7773438 21.632812 L 6.2363281 22.417969 L 7.7851562 21.835938 L 8.3300781 20.826172 L 8.4746094 20.119141 L 8.828125 18.908203 L 9.28125 17.720703 L 9.4472656 17.371094 L 9.4726562 15.714844 L 8.2441406 14.607422 z M 31.109375 16.980469 A 2.0002 2.0002 0 0 0 29.550781 17.623047 L 21.398438 26.203125 L 17.345703 22.519531 A 2.0006761 2.0006761 0 1 0 14.654297 25.480469 L 20.154297 30.480469 A 2.0002 2.0002 0 0 0 22.949219 30.376953 L 32.449219 20.376953 A 2.0002 2.0002 0 0 0 31.109375 16.980469 z M 5.7558594 25.677734 L 4.5253906 26.785156 L 4.3886719 27.923828 L 4.40625 28.025391 L 4.4335938 28.158203 L 4.7207031 29.333984 L 4.7578125 29.462891 L 5.1191406 30.607422 L 5.1640625 30.732422 L 5.5976562 31.841797 L 5.6503906 31.964844 L 5.828125 32.341797 L 7.0898438 33.414062 L 8.7265625 33.167969 L 9.6171875 31.773438 L 9.4472656 30.638672 L 9.3007812 30.328125 L 8.90625 29.320312 L 8.5957031 28.335938 L 8.3359375 27.277344 L 8.3300781 27.242188 L 8.3261719 27.236328 L 8.3203125 27.212891 L 8.3125 27.214844 L 7.3984375 25.875 L 5.7558594 25.677734 z M 11.632812 35.287109 L 10.212891 36.138672 L 9.9199219 37.767578 L 10.507812 38.751953 L 10.949219 39.154297 L 11.048828 39.238281 L 11.962891 39.970703 L 12.066406 40.048828 L 13.027344 40.722656 L 13.136719 40.792969 L 14.142578 41.404297 L 15.787109 41.601562 L 17.015625 40.492188 L 16.988281 38.835938 L 16.21875 37.986328 L 15.279297 37.416016 L 14.439453 36.830078 L 13.609375 36.166016 L 13.207031 35.798828 L 11.632812 35.287109 z"/></svg>