<svg xmlns="http://www.w3.org/2000/svg" xmlns:xlink="http://www.w3.org/1999/xlink" viewBox="0,0,256,256" width="100px" height="100px"><g fill="none" fill-rule="nonzero" stroke="none" stroke-width="none" stroke-linecap="none" stroke-linejoin="none" stroke-miterlimit="10" stroke-dasharray="" stroke-dashoffset="0" font-family="none" font-weight="none" font-size="none" text-anchor="none" style="mix-blend-mode: normal"><g transform="scale(2.56,2.56)"><path d="M55.372,96.541c-2.356,0 -4.655,-0.453 -6.831,-1.345l-18.7,-7.891l-13.78,2.149c-0.334,0.052 -0.667,0.077 -0.997,0.077c-1.552,0 -3.055,-0.556 -4.232,-1.565c-1.441,-1.234 -2.27,-3.034 -2.27,-4.935v-18c0,-3.067 2.18,-5.744 5.183,-6.365l17.801,-3.684c1.315,-0.275 2.672,-0.417 4.022,-0.417c2.426,0 4.807,0.445 7.078,1.322l11.072,3.586l6.256,-0.374c0.613,-0.071 1.223,-0.107 1.818,-0.107c4.268,0 6.217,4.503 9.907,4.882l9.411,-2.791c1.034,-0.311 2.12,-0.47 3.214,-0.47c2.174,0 4.291,0.627 6.119,1.814c2.774,1.801 4.607,4.716 5.029,7.998c0.616,4.808 -1.902,9.452 -6.267,11.557l-25.966,12.753c-2.461,1.187 -5.17,1.806 -7.867,1.806z" fill-opacity="0" fill="#000000" stroke="none" stroke-width="1" stroke-linecap="butt" stroke-linejoin="miter" opacity="0.35"></path><circle cx="52.5" cy="36.5" r="24.5" fill-opacity="0" fill="#000000" stroke="none" stroke-width="1" stroke-linecap="butt" stroke-linejoin="miter" opacity="0.35"></circle><path d="M53.372,94.541c-2.356,0 -4.655,-0.453 -6.831,-1.345l-18.7,-7.891l-13.78,2.149c-0.334,0.052 -0.667,0.077 -0.997,0.077c-1.552,0 -3.055,-0.556 -4.232,-1.565c-1.441,-1.234 -2.27,-3.034 -2.27,-4.935v-18c0,-3.067 2.18,-5.744 5.183,-6.365l17.801,-3.684c1.315,-0.275 2.672,-0.417 4.022,-0.417c2.426,0 4.807,0.445 7.078,1.322l11.072,3.586l6.256,-0.374c0.613,-0.071 1.223,-0.107 1.818,-0.107c4.268,0 7.818,1.805 9.907,4.882l9.411,-2.791c1.034,-0.311 2.12,-0.47 3.214,-0.47c2.174,0 4.291,0.627 6.119,1.814c2.774,1.801 4.607,4.716 5.029,7.998c0.616,4.808 -1.902,9.452 -6.267,11.557l-25.966,12.753c-2.461,1.187 -5.17,1.806 -7.867,1.806z" fill="#f2f2f2" stroke="none" stroke-width="1" stroke-linecap="butt" stroke-linejoin="miter"></path><circle cx="50.5" cy="34.5" r="24.5" fill="#f2f2f2" stroke="none" stroke-width="1" stroke-linecap="butt" stroke-linejoin="miter"></circle><circle cx="50.5" cy="34.5" r="18" fill="#96c362" stroke="none" stroke-width="1" stroke-linecap="butt" stroke-linejoin="miter"></circle><path d="M50.243,47c-0.455,0 -0.831,-0.153 -1.128,-0.458c-0.298,-0.306 -0.447,-0.679 -0.447,-1.116v-1.548c-1.014,-0.069 -1.912,-0.231 -2.69,-0.486c-0.779,-0.254 -1.439,-0.52 -1.981,-0.8c-0.49,-0.245 -0.797,-0.59 -0.918,-1.036c-0.123,-0.447 -0.101,-0.875 0.065,-1.287c0.166,-0.411 0.446,-0.708 0.839,-0.892c0.394,-0.183 0.862,-0.144 1.405,0.118c0.42,0.228 1.006,0.459 1.759,0.696c0.753,0.236 1.67,0.354 2.756,0.354c1.207,0 2.064,-0.192 2.571,-0.577c0.507,-0.384 0.761,-0.866 0.761,-1.444c0,-0.471 -0.176,-0.865 -0.526,-1.181c-0.35,-0.315 -0.98,-0.568 -1.889,-0.76l-2.886,-0.63c-3.185,-0.699 -4.777,-2.396 -4.777,-5.09c0,-1.47 0.499,-2.712 1.496,-3.726c0.997,-1.014 2.336,-1.653 4.015,-1.916v-1.653c0,-0.437 0.147,-0.809 0.447,-1.115c0.298,-0.306 0.672,-0.459 1.128,-0.459c0.437,0 0.805,0.153 1.102,0.459c0.297,0.306 0.447,0.678 0.447,1.115v1.574c0.647,0.088 1.316,0.245 2.008,0.472c0.691,0.227 1.298,0.525 1.823,0.892c0.419,0.262 0.678,0.6 0.774,1.01c0.096,0.411 0.057,0.8 -0.118,1.167c-0.176,0.368 -0.459,0.626 -0.853,0.774c-0.394,0.149 -0.871,0.084 -1.43,-0.197c-0.473,-0.226 -0.99,-0.419 -1.548,-0.577c-0.561,-0.157 -1.251,-0.236 -2.074,-0.236c-1.014,0 -1.81,0.21 -2.388,0.63c-0.577,0.419 -0.866,0.962 -0.866,1.626c0,0.472 0.17,0.862 0.511,1.168c0.341,0.306 0.94,0.556 1.798,0.748l2.913,0.629c1.662,0.368 2.891,0.968 3.687,1.798c0.797,0.831 1.194,1.894 1.194,3.188c0,1.488 -0.503,2.713 -1.509,3.674c-1.007,0.963 -2.315,1.584 -3.923,1.863v1.653c0,0.437 -0.149,0.81 -0.447,1.116c-0.296,0.307 -0.664,0.46 -1.101,0.46z" fill="#ffffff" stroke="none" stroke-width="1" stroke-linecap="butt" stroke-linejoin="miter"></path><path d="M42.271,73.398l9.686,2.583c0.786,0.21 1.617,0.175 2.383,-0.1l7.85,-2.819c1.724,-0.619 2.873,-2.253 2.873,-4.085v0c0,-2.621 -2.306,-4.644 -4.905,-4.303l-7.714,0.255l-13.988,-4.919c-2.41,-0.965 -5.051,-1.196 -7.592,-0.663l-17.801,3.683v18l13.877,-2.157c1.098,-0.181 2.224,-0.053 3.254,0.369l18.815,7.94c3.02,1.239 6.424,1.137 9.365,-0.281l26.009,-12.773c1.839,-0.887 2.904,-2.85 2.644,-4.875v0c-0.373,-2.904 -3.262,-4.779 -6.066,-3.938l-15.898,4.715" fill="#ffb789" stroke="none" stroke-width="1" stroke-linecap="butt" stroke-linejoin="miter"></path><path d="M64.889,70.021c0.311,-0.917 0.393,-1.964 0.095,-3.041c-0.859,-3.101 -3.818,-3.746 -6.417,-3.404l-7.684,0.459l-12.427,-4.025c-2.41,-0.965 -5.051,-1.196 -7.592,-0.663l-17.801,3.683v18l13.877,-2.157c1.098,-0.181 2.224,-0.053 3.254,0.369l18.815,7.94c3.02,1.239 6.424,1.137 9.365,-0.281l26.009,-12.773c1.839,-0.887 2.904,-2.85 2.644,-4.875v0c-0.373,-2.904 -3.262,-4.779 -6.066,-3.938l-15.898,4.715" fill="none" stroke="#40396e" stroke-width="3" stroke-linecap="round" stroke-linejoin="round"></path><path d="M59.55,66.555c-0.437,0 -0.839,0.144 -1.168,0.382c-0.027,0.481 -0.009,1.092 0.132,1.815c0.126,0.647 0.393,1.259 0.678,1.773c0.117,0.021 0.236,0.036 0.359,0.036c1.106,0 2.003,-0.897 2.003,-2.003c0,-1.106 -0.898,-2.003 -2.004,-2.003z" fill="#ffe8d9" stroke="none" stroke-width="1" stroke-linecap="butt" stroke-linejoin="miter"></path><g fill="#40396e" stroke="none" stroke-width="1" stroke-linecap="butt" stroke-linejoin="miter" opacity="0.35"><path d="M53.098,76.531c-0.719,0 -1.432,-0.088 -2.122,-0.263l-9.336,-2.792c0,0 9.094,0.641 12.654,-0.067l7.451,-1.782c0.941,-0.393 2.368,-2.173 1.793,-4.247c-0.221,-0.799 0.247,-1.625 1.045,-1.846c0.796,-0.222 1.625,0.247 1.846,1.045c0.973,3.513 -1.187,6.98 -3.733,7.896c-0.052,0.019 -0.105,0.034 -0.159,0.047l-7.583,1.813c-0.615,0.131 -1.238,0.196 -1.856,0.196z"></path></g><circle cx="50.5" cy="34.5" r="18" fill="none" stroke="#40396e" stroke-width="3" stroke-linecap="butt" stroke-linejoin="miter"></circle></g></g></svg>