<svg xmlns="http://www.w3.org/2000/svg" xmlns:xlink="http://www.w3.org/1999/xlink" viewBox="0,0,256,256" width="96px" height="96px"><g transform="translate(-24.32,-24.32) scale(1.19,1.19)"><g fill="#ffffff" fill-rule="nonzero" stroke="none" stroke-width="1" stroke-linecap="butt" stroke-linejoin="miter" stroke-miterlimit="10" stroke-dasharray="" stroke-dashoffset="0" font-family="none" font-weight="none" font-size="none" text-anchor="none" style="mix-blend-mode: normal"><g transform="scale(5.33333,5.33333)"><path d="M24,4c-11.02771,0 -20,8.97229 -20,20c0,11.02771 8.97229,20 20,20c11.02771,0 20,-8.97229 20,-20c0,-11.02771 -8.97229,-20 -20,-20zM24,7c9.40629,0 17,7.59371 17,17c0,9.40629 -7.59371,17 -17,17c-9.40629,0 -17,-7.59371 -17,-17c0,-9.40629 7.59371,-17 17,-17zM19.5,16c-1.91495,0 -3.5,1.58505 -3.5,3.5v9c0,1.91495 1.58505,3.5 3.5,3.5h9c1.91495,0 3.5,-1.58505 3.5,-3.5v-9c0,-1.91495 -1.58505,-3.5 -3.5,-3.5zM19.5,19h9c0.29504,0 0.5,0.20496 0.5,0.5v9c0,0.29504 -0.20496,0.5 -0.5,0.5h-9c-0.29504,0 -0.5,-0.20496 -0.5,-0.5v-9c0,-0.29504 0.20496,-0.5 0.5,-0.5z"></path></g></g></g></svg>