<svg xmlns="http://www.w3.org/2000/svg"  viewBox="0 0 48 48" width="48px" height="48px"><path d="M 10.5 6 C 7.467 6 5 8.467 5 11.5 L 5 36.5 C 5 39.533 7.467 42 10.5 42 L 37.5 42 C 40.533 42 43 39.533 43 36.5 L 43 11.5 C 43 8.467 40.533 6 37.5 6 L 10.5 6 z M 10.5 9 C 11.328 9 12 9.672 12 10.5 C 12 11.328 11.328 12 10.5 12 C 9.672 12 9 11.328 9 10.5 C 9 9.672 9.672 9 10.5 9 z M 15.5 9 C 16.328 9 17 9.672 17 10.5 C 17 11.328 16.328 12 15.5 12 C 14.672 12 14 11.328 14 10.5 C 14 9.672 14.672 9 15.5 9 z M 9 15 L 39 15 L 39 36.5 C 39 37.327 38.327 38 37.5 38 L 10.5 38 C 9.673 38 9 37.327 9 36.5 L 9 15 z M 34.470703 18.986328 A 1.50015 1.50015 0 0 0 33.439453 19.439453 L 30.5 22.378906 L 29.560547 21.439453 A 1.50015 1.50015 0 1 0 27.439453 23.560547 L 29.439453 25.560547 A 1.50015 1.50015 0 0 0 31.560547 25.560547 L 35.560547 21.560547 A 1.50015 1.50015 0 0 0 34.470703 18.986328 z M 13.5 21 A 1.50015 1.50015 0 1 0 13.5 24 L 23.5 24 A 1.50015 1.50015 0 1 0 23.5 21 L 13.5 21 z M 34.470703 27.486328 A 1.50015 1.50015 0 0 0 33.439453 27.939453 L 30.5 30.878906 L 29.560547 29.939453 A 1.50015 1.50015 0 1 0 27.439453 32.060547 L 29.439453 34.060547 A 1.50015 1.50015 0 0 0 31.560547 34.060547 L 35.560547 30.060547 A 1.50015 1.50015 0 0 0 34.470703 27.486328 z M 13.5 30 A 1.50015 1.50015 0 1 0 13.5 33 L 23.5 33 A 1.50015 1.50015 0 1 0 23.5 30 L 13.5 30 z"/></svg>