<svg xmlns="http://www.w3.org/2000/svg"  viewBox="0 0 100 100" width="100px" height="100px"><circle cx="52" cy="52" r="44" opacity=".35"/><circle cx="50" cy="50" r="44" fill="#f2f2f2"/><circle cx="50" cy="50" r="37.5" fill="#707cc0"/><path fill="#40396e" d="M50,89c-21.505,0-39-17.495-39-39s17.495-39,39-39s39,17.495,39,39S71.505,89,50,89z M50,14 c-19.851,0-36,16.149-36,36s16.149,36,36,36s36-16.149,36-36S69.851,14,50,14z"/><circle cx="50" cy="50" r="32" fill="#d9eeff"/><path fill="#70bfff" d="M50,50V18c-8.836,0-16.836,3.582-22.628,9.372L50,50z"/><path fill="#707cc0" d="M46.296,17.721L50,25.019l3.704-7.298c-1.218-0.141-2.449-0.232-3.704-0.232 S47.513,17.58,46.296,17.721z"/><g><path fill="#40396e" d="M52.66,52.665c-1.472,1.468-3.855,1.466-5.323-0.006c-1.468-1.472-18.018-23.388-18.018-23.388 s21.88,16.599,23.349,18.071C54.136,48.814,54.13,51.197,52.66,52.665z"/></g></svg>