<svg xmlns="http://www.w3.org/2000/svg" xmlns:xlink="http://www.w3.org/1999/xlink" viewBox="0,0,256,256" width="100px" height="100px"><g fill="none" fill-rule="nonzero" stroke="none" stroke-width="1" stroke-linecap="butt" stroke-linejoin="miter" stroke-miterlimit="10" stroke-dasharray="" stroke-dashoffset="0" font-family="none" font-weight="none" font-size="none" text-anchor="none" style="mix-blend-mode: normal"><g transform="scale(2.56,2.56)"><circle cx="52" cy="52" r="44" fill-opacity="0" fill="#000000" opacity="0.35"></circle><circle cx="50" cy="50" r="44" fill="#e1ecf6"></circle><circle cx="50" cy="50" r="37.5" fill="#707cc0"></circle><path d="M50,89c-21.505,0 -39,-17.495 -39,-39c0,-21.505 17.495,-39 39,-39c21.505,0 39,17.495 39,39c0,21.505 -17.495,39 -39,39zM50,14c-19.851,0 -36,16.149 -36,36c0,19.851 16.149,36 36,36c19.851,0 36,-16.149 36,-36c0,-19.851 -16.149,-36 -36,-36z" fill="#40396e"></path><circle cx="50" cy="50" r="32" fill="#d9eeff"></circle><path d="M50,50v-32c-8.836,0 -16.836,3.582 -22.628,9.372z" fill="#70bfff"></path><path d="M46.296,17.721l3.704,7.298l3.704,-7.298c-1.218,-0.141 -2.449,-0.232 -3.704,-0.232c-1.255,0 -2.487,0.091 -3.704,0.232z" fill="#707cc0"></path><g fill="#40396e"><path d="M52.66,52.665c-1.472,1.468 -3.855,1.466 -5.323,-0.006c-1.468,-1.472 -18.018,-23.388 -18.018,-23.388c0,0 21.88,16.599 23.349,18.071c1.468,1.472 1.462,3.855 -0.008,5.323z"></path></g></g></g></svg>