<svg xmlns="http://www.w3.org/2000/svg"  viewBox="0 0 48 48" width="48px" height="48px"><path d="M 28.5 4.0097656 C 24.529934 4.0097656 20.559188 5.5203376 17.539062 8.5410156 L 12.300781 13.779297 L 6.6914062 15.720703 C 5.3897629 16.170655 4.4099325 17.264938 4.1015625 18.605469 L 4.1015625 18.607422 L 4.0996094 18.609375 C 4.0331902 18.901828 4 19.200701 4 19.5 C 4 20.548893 4.4136897 21.56994 5.171875 22.328125 L 10.759766 27.916016 C 9.6764653 29.091229 9 30.653174 9 32.375 C 9 36.016668 11.984399 39 15.625 39 C 17.345962 39 18.908181 38.323685 20.083984 37.240234 L 25.669922 42.828125 C 26.42821 43.588013 27.452232 44 28.5 44 C 28.799299 44 29.099317 43.965821 29.390625 43.900391 L 29.392578 43.900391 L 29.396484 43.898438 C 30.737015 43.590068 31.831299 42.610237 32.28125 41.308594 L 32.28125 41.306641 L 34.222656 35.699219 L 39.460938 30.460938 C 45.500211 24.420612 45.500562 14.580384 39.458984 8.5410156 C 36.438859 5.5203376 32.470066 4.0097656 28.5 4.0097656 z M 28.5 6.9902344 C 31.695934 6.9902344 34.891016 8.2147878 37.337891 10.662109 C 42.232313 15.554741 42.232481 23.446264 37.339844 28.339844 L 31.613281 34.064453 L 29.445312 40.328125 C 29.333244 40.652764 29.062152 40.89443 28.726562 40.972656 C 28.726562 40.972656 28.724609 40.974609 28.724609 40.974609 C 28.645245 40.991805 28.572151 41 28.5 41 C 28.235768 41 27.982681 40.899096 27.792969 40.708984 L 27.792969 40.707031 L 17.542969 30.457031 L 7.2929688 20.207031 C 7.1031541 20.017264 7 19.761107 7 19.5 C 7 19.42657 7.0084196 19.353388 7.0253906 19.277344 C 7.1028956 18.940419 7.346309 18.669029 7.671875 18.556641 L 13.935547 16.388672 L 19.660156 10.662109 C 22.107031 8.2147878 25.304066 6.9902344 28.5 6.9902344 z M 12.878906 30.035156 L 15.421875 32.578125 L 17.962891 35.121094 C 17.335161 35.666267 16.528303 36 15.625 36 C 13.605601 36 12 34.395332 12 32.375 C 12 31.471533 12.33317 30.663163 12.878906 30.035156 z"/></svg>