<svg xmlns="http://www.w3.org/2000/svg" xmlns:xlink="http://www.w3.org/1999/xlink" viewBox="0,0,256,256" width="64px" height="64px" fill-rule="nonzero"><defs><linearGradient x1="38.869" y1="47.867" x2="19.885" y2="12.659" gradientUnits="userSpaceOnUse" id="color-1"><stop offset="0" stop-color="#ffd000"></stop><stop offset="1" stop-color="#fede00"></stop></linearGradient><linearGradient x1="21" y1="28.5" x2="26" y2="28.5" gradientUnits="userSpaceOnUse" id="color-2"><stop offset="0" stop-color="#f44f5a"></stop><stop offset="0.443" stop-color="#ee3d4a"></stop><stop offset="1" stop-color="#e52030"></stop></linearGradient><linearGradient x1="9" y1="28.5" x2="13" y2="28.5" gradientUnits="userSpaceOnUse" id="color-3"><stop offset="0" stop-color="#f44f5a"></stop><stop offset="0.443" stop-color="#ee3d4a"></stop><stop offset="1" stop-color="#e52030"></stop></linearGradient><linearGradient x1="35" y1="28.5" x2="39" y2="28.5" gradientUnits="userSpaceOnUse" id="color-4"><stop offset="0" stop-color="#f44f5a"></stop><stop offset="0.443" stop-color="#ee3d4a"></stop><stop offset="1" stop-color="#e52030"></stop></linearGradient></defs><g transform="translate(12.8,12.8) scale(0.9,0.9)"><g fill="none" fill-rule="nonzero" stroke="none" stroke-width="1" stroke-linecap="butt" stroke-linejoin="miter" stroke-miterlimit="10" stroke-dasharray="" stroke-dashoffset="0" font-family="none" font-weight="none" font-size="none" text-anchor="none" style="mix-blend-mode: normal"><g transform="scale(5.33333,5.33333)"><path d="M40,38h-32l-4,-28l12,12l8,-14l8,14l12,-12z" fill="url(#color-1)"></path><circle cx="24" cy="7" r="2" fill="#edbe00"></circle><circle cx="23.5" cy="28.5" r="2.5" fill="url(#color-2)"></circle><ellipse cx="11" cy="28.5" rx="2" ry="2.5" fill="url(#color-3)"></ellipse><ellipse cx="37" cy="28.5" rx="2" ry="2.5" fill="url(#color-4)"></ellipse><circle cx="4" cy="10" r="2" fill="#edbe00"></circle><circle cx="44" cy="10" r="2" fill="#edbe00"></circle><path d="M41,42h-34c-1.105,0 -2,-0.895 -2,-2v-3c0,-1.105 0.895,-2 2,-2h34c1.105,0 2,0.895 2,2v3c0,1.105 -0.895,2 -2,2z" fill="#edbe00"></path></g></g></g></svg>