<svg xmlns="http://www.w3.org/2000/svg"  viewBox="0 0 24 24" width="48px" height="48px"><path d="M 4 2 C 2.9069372 2 2 2.9069372 2 4 L 2 11 C 2 12.093063 2.9069372 13 4 13 L 9 13 C 10.093063 13 11 12.093063 11 11 L 11 4 C 11 2.9069372 10.093063 2 9 2 L 4 2 z M 15 2 C 13.906937 2 13 2.9069372 13 4 L 13 7 C 13 8.0930628 13.906937 9 15 9 L 20 9 C 21.093063 9 22 8.0930628 22 7 L 22 4 C 22 2.9069372 21.093063 2 20 2 L 15 2 z M 4 4 L 9 4 L 9 11 L 4 11 L 4 4 z M 15 4 L 20 4 L 20 7 L 15 7 L 15 4 z M 15 11 C 13.906937 11 13 11.906937 13 13 L 13 20 C 13 21.093063 13.906937 22 15 22 L 20 22 C 21.093063 22 22 21.093063 22 20 L 22 13 C 22 11.906937 21.093063 11 20 11 L 15 11 z M 15 13 L 20 13 L 20 20 L 15 20 L 15 13 z M 4 15 C 2.9069372 15 2 15.906937 2 17 L 2 20 C 2 21.093063 2.9069372 22 4 22 L 9 22 C 10.093063 22 11 21.093063 11 20 L 11 17 C 11 15.906937 10.093063 15 9 15 L 4 15 z M 4 17 L 9 17 L 9 20 L 4 20 L 4 17 z"/></svg>