<svg xmlns="http://www.w3.org/2000/svg"  viewBox="0 0 48 48" width="48px" height="48px"><path d="M 24 4 C 19.047202 4 15 8.0472057 15 13 C 15 17.952794 19.047202 22 24 22 C 28.952798 22 33 17.952794 33 13 C 33 8.0472057 28.952798 4 24 4 z M 3.4609375 4.0019531 C 3.4046094 4.0063125 3.3486719 4.0206719 3.2949219 4.0449219 C 3.0789219 4.1429219 2.9607187 4.3764219 3.0117188 4.6074219 L 5.0117188 13.607422 C 5.0517188 13.785422 5.1853281 13.928469 5.3613281 13.980469 C 5.5343281 14.026469 5.7245156 13.982516 5.8535156 13.853516 L 8.0722656 11.634766 L 11.095703 15.792969 C 11.191703 15.926969 11.344 16 11.5 16 C 11.569 16 11.639078 15.984078 11.705078 15.955078 C 11.921078 15.857078 12.039281 15.623578 11.988281 15.392578 L 9.9882812 6.3925781 C 9.9482813 6.2145781 9.815625 6.0705312 9.640625 6.0195312 C 9.465625 5.9695313 9.2744844 6.0184844 9.1464844 6.1464844 L 6.9296875 8.3632812 L 3.9042969 4.2050781 C 3.7992969 4.0610781 3.6299219 3.988875 3.4609375 4.0019531 z M 44.539062 4.0019531 C 44.369703 3.988875 44.199953 4.0630312 44.095703 4.2070312 L 41.072266 8.3652344 L 38.853516 6.1464844 C 38.725516 6.0174844 38.534375 5.9695313 38.359375 6.0195312 C 38.183375 6.0715312 38.051719 6.2145781 38.011719 6.3925781 L 36.011719 15.392578 C 35.961719 15.623578 36.078922 15.857078 36.294922 15.955078 C 36.360922 15.984078 36.431 16 36.5 16 C 36.656 16 36.808297 15.927922 36.904297 15.794922 L 39.927734 11.636719 L 42.146484 13.853516 C 42.275484 13.982516 42.465672 14.026469 42.638672 13.980469 C 42.814672 13.928469 42.948281 13.787375 42.988281 13.609375 L 44.988281 4.609375 C 45.039281 4.378375 44.921078 4.1419219 44.705078 4.0449219 C 44.651078 4.0206719 44.595516 4.0063125 44.539062 4.0019531 z M 24 7 C 27.331479 7 30 9.6685232 30 13 C 30 16.331477 27.331479 19 24 19 C 20.668521 19 18 16.331477 18 13 C 18 9.6685232 20.668521 7 24 7 z M 14.5 24 C 12.032499 24 10 26.032499 10 28.5 L 10 39.5 C 10 40.030591 10.134564 40.52552 10.306641 41 L 8.5 41 A 1.50015 1.50015 0 1 0 8.5 44 L 14.5 44 L 33.5 44 L 39.5 44 A 1.50015 1.50015 0 1 0 39.5 41 L 37.693359 41 C 37.865436 40.52552 38 40.030591 38 39.5 L 38 28.5 C 38 26.032499 35.967501 24 33.5 24 L 14.5 24 z M 14.5 27 L 33.5 27 C 34.346499 27 35 27.653501 35 28.5 L 35 39.5 C 35 40.346499 34.346499 41 33.5 41 L 14.5 41 C 13.653501 41 13 40.346499 13 39.5 L 13 28.5 C 13 27.653501 13.653501 27 14.5 27 z M 24 32 A 2 2 0 0 0 24 36 A 2 2 0 0 0 24 32 z"/></svg>