<svg xmlns="http://www.w3.org/2000/svg"  viewBox="0 0 48 48" width="48px" height="48px"><path d="M 24 4 C 21.791 4 20 5.791 20 8 C 20 10.209 21.791 12 24 12 C 26.209 12 28 10.209 28 8 C 28 5.791 26.209 4 24 4 z M 9.5527344 10 C 8.9815156 9.9792344 8.42625 10.289328 8.15625 10.830078 C 7.79625 11.553078 8.07325 12.431406 8.78125 12.816406 L 17.957031 17.820312 C 18.599031 18.171312 19 18.844172 19 19.576172 L 19 24.919922 C 19 25.600922 18.76875 26.262922 18.34375 26.794922 L 11.328125 35.560547 C 10.839125 36.172547 10.902609 37.05875 11.474609 37.59375 C 11.762609 37.86475 12.131 38 12.5 38 C 12.862 38 13.225719 37.869422 13.511719 37.607422 L 24 28.029297 L 34.488281 37.607422 C 34.774281 37.868422 35.138 38 35.5 38 C 35.869 38 36.237391 37.864703 36.525391 37.595703 C 37.097391 37.060703 37.160875 36.1745 36.671875 35.5625 L 29.65625 26.794922 C 29.23125 26.262922 29 25.602875 29 24.921875 L 29 19.576172 C 29 18.844172 29.400969 18.171312 30.042969 17.820312 L 39.21875 12.816406 C 39.92775 12.431406 40.202797 11.553078 39.841797 10.830078 C 39.481797 10.108078 38.614906 9.7987656 37.878906 10.134766 L 27.964844 14.642578 C 27.444844 14.878578 26.879594 15 26.308594 15 L 21.689453 15 C 21.118453 15 20.555156 14.878578 20.035156 14.642578 L 10.119141 10.134766 C 9.9351406 10.050766 9.7431406 10.006922 9.5527344 10 z M 24 38 C 16.786869 38 10.804687 41.171875 10.804688 41.171875 A 1.50015 1.50015 0 1 0 12.195312 43.828125 C 12.195312 43.828125 17.673131 41 24 41 C 30.326869 41 35.804688 43.828125 35.804688 43.828125 A 1.50015 1.50015 0 1 0 37.195312 41.171875 C 37.195312 41.171875 31.213131 38 24 38 z"/></svg>