<svg xmlns="http://www.w3.org/2000/svg" xmlns:xlink="http://www.w3.org/1999/xlink" viewBox="0,0,256,256" width="64px" height="64px" fill-rule="nonzero"><g transform="translate(7.68,7.68) scale(0.94,0.94)"><g fill="#fbd721" fill-rule="nonzero" stroke="none" stroke-width="1" stroke-linecap="butt" stroke-linejoin="miter" stroke-miterlimit="10" stroke-dasharray="" stroke-dashoffset="0" font-family="none" font-weight="none" font-size="none" text-anchor="none" style="mix-blend-mode: normal"><g transform="translate(256.088,0.00733) rotate(90) scale(5.33333,5.33333)"><path d="M38.101,9.818c-3.444,-3.443 -7.831,-5.353 -12.328,-5.76c2.015,2.616 3.227,5.884 3.227,9.442c0,8.56 -6.94,15.5 -15.5,15.5c-3.559,0 -6.827,-1.212 -9.444,-3.229c0.406,4.499 2.317,8.887 5.76,12.331c7.81,7.811 20.474,7.81 28.284,0c7.812,-7.81 7.812,-20.473 0.001,-28.284z"></path><path d="M25.783,4.072c2.01,2.614 3.217,5.876 3.217,9.428c0,8.56 -6.94,15.5 -15.5,15.5c-3.552,0 -6.814,-1.207 -9.428,-3.216c2.189,7.075 8.783,12.216 16.577,12.216c9.583,0 17.351,-7.768 17.351,-17.351c0,-7.794 -5.141,-14.388 -12.217,-16.577z"></path></g></g></g></svg>