<svg xmlns="http://www.w3.org/2000/svg"  viewBox="0 0 48 48" width="48px" height="48px"><path d="M 14 12 A 1.50015 1.50015 0 0 0 13.826172 12.009766 C 7.2969423 12.104258 2 17.448997 2 24 C 2 30.553008 7.300048 35.900886 13.832031 35.992188 A 1.50015 1.50015 0 0 0 14 36 L 34 36 C 40.609657 36 46 30.609657 46 24 C 46 17.390343 40.609657 12 34 12 L 14 12 z M 14 15 C 18.988343 15 23 19.011657 23 24 C 23 28.988343 18.988343 33 14 33 C 9.011657 33 5 28.988343 5 24 C 5 19.011657 9.011657 15 14 15 z M 21.904297 15 L 34 15 C 38.988343 15 43 19.011657 43 24 C 43 28.988343 38.988343 33 34 33 L 21.904297 33 C 24.407497 30.798047 26 27.58271 26 24 C 26 20.41729 24.407497 17.201953 21.904297 15 z"/></svg>