<svg xmlns="http://www.w3.org/2000/svg"  viewBox="0 0 48 48" width="48px" height="48px"><path d="M 14 12 C 7.390343 12 2 17.390343 2 24 C 2 30.609657 7.390343 36 14 36 L 22.25 36 A 1.50015 1.50015 0 0 0 22.740234 36 L 34 36 A 1.50015 1.50015 0 0 0 34.173828 35.990234 C 40.703058 35.895742 46 30.551003 46 24 C 46 17.446992 40.699952 12.099114 34.167969 12.007812 A 1.50015 1.50015 0 0 0 34 12 L 14 12 z M 14 15 L 14.224609 15 L 5.0117188 24.212891 C 5.0100627 24.141444 5 24.071862 5 24 C 5 19.011657 9.011657 15 14 15 z M 18.464844 15 L 22.724609 15 L 7.4980469 30.226562 C 6.790326 29.4875 6.2084541 28.627897 5.7851562 27.679688 A 1.50015 1.50015 0 0 0 5.8300781 27.636719 L 18.425781 15.041016 A 1.50015 1.50015 0 0 0 18.464844 15 z M 34 15 C 38.988343 15 43 19.011657 43 24 C 43 28.988343 38.988343 33 34 33 C 29.011657 33 25 28.988343 25 24 C 25 19.011657 29.011657 15 34 15 z M 23.599609 18.367188 C 22.668614 20.071099 22 21.927919 22 24 C 22 24.102411 22.056024 24.187252 22.058594 24.289062 L 12.845703 32.917969 C 11.808757 32.786212 10.831476 32.480591 9.9375 32.029297 L 23.599609 18.367188 z M 22.757812 27.742188 C 23.113014 28.802267 23.651008 29.720832 24.271484 30.626953 L 21.898438 33 L 17.146484 33 L 22.757812 27.742188 z M 26.203125 32.939453 C 26.227154 32.960419 26.253168 32.979196 26.277344 33 L 26.142578 33 L 26.203125 32.939453 z"/></svg>