<svg xmlns="http://www.w3.org/2000/svg"  viewBox="0 0 48 48" width="48px" height="48px"><path d="M 14.373047 7.0117188 C 11.441107 7.0117188 8.50946 8.135334 6.2851562 10.380859 C 1.8365082 14.870805 1.8367288 22.177099 6.2851562 26.667969 L 22.179688 42.708984 A 1.50015 1.50015 0 0 0 22.232422 42.759766 C 23.579432 43.992314 25.492645 44.070632 26.816406 43.265625 C 27.626226 42.773157 28.091574 41.881579 28.314453 40.892578 C 30.2748 40.639559 31.81985 39.125169 32.115234 37.166016 C 34.034818 36.869551 35.526452 35.351441 35.810547 33.419922 C 37.070114 33.18001 38.169898 32.435747 38.791016 31.390625 C 39.223935 30.662175 39.416489 29.772051 39.34375 28.873047 A 1.50015 1.50015 0 0 0 39.832031 28.533203 L 41.679688 26.667969 C 46.128335 22.178023 46.130021 14.871729 41.681641 10.380859 C 39.457337 8.135337 36.523737 7.0117188 33.591797 7.0117188 C 30.659857 7.0117188 27.72821 8.135334 25.503906 10.380859 L 23.982422 11.916016 L 22.460938 10.380859 C 20.236633 8.135334 17.304987 7.0117186 14.373047 7.0117188 z M 14.373047 9.9882812 C 16.524714 9.9882812 18.676382 10.822713 20.330078 12.492188 L 21.871094 14.046875 L 18.482422 17.46875 A 1.50015 1.50015 0 0 0 18.480469 17.46875 C 17.632917 18.32433 17.256366 19.509109 17.417969 20.568359 C 17.579572 21.62761 18.205433 22.53648 19.080078 23.125 C 20.829369 24.30204 23.587242 24.039059 25.787109 21.818359 L 27.681641 19.904297 L 35.919922 28.173828 C 36.595336 28.857823 36.5051 29.365736 36.212891 29.857422 C 35.920073 30.350132 35.398881 30.672337 34.693359 30.498047 A 1.50015 1.50015 0 0 0 32.908203 32.423828 C 33.27373 33.530797 32.187409 34.624286 31.115234 34.263672 A 1.50015 1.50015 0 0 0 29.212891 36.15625 C 29.578418 37.263219 28.492096 38.354755 27.419922 37.994141 A 1.50015 1.50015 0 0 0 25.517578 39.886719 C 25.685272 40.394565 25.522578 40.542132 25.257812 40.703125 C 24.993579 40.863811 24.688459 40.937785 24.259766 40.546875 L 8.4160156 24.556641 C 5.108443 21.21751 5.1086637 15.830241 8.4160156 12.492188 C 10.069712 10.822713 12.221379 9.9882812 14.373047 9.9882812 z M 33.591797 9.9882812 C 35.743464 9.9882812 37.895132 10.822713 39.548828 12.492188 C 42.856401 15.831317 42.85618 21.218586 39.548828 24.556641 L 38.054688 26.064453 C 38.052702 26.062442 38.050819 26.060602 38.048828 26.058594 A 1.50015 1.50015 0 0 0 38.044922 26.056641 L 32.664062 20.654297 C 34.354939 20.621892 35.993817 20.097049 37.464844 18.966797 A 1.50015 1.50015 0 1 0 35.636719 16.587891 C 33.395128 18.310201 31.343707 18.252951 28.458984 16.496094 A 1.50015 1.50015 0 0 0 26.613281 16.722656 L 23.65625 19.707031 C 22.160118 21.217331 21.222365 20.951929 20.753906 20.636719 C 20.519677 20.479114 20.406178 20.270343 20.382812 20.117188 C 20.359443 19.964032 20.352332 19.843498 20.613281 19.580078 L 27.634766 12.492188 C 29.288462 10.822713 31.440129 9.9882812 33.591797 9.9882812 z"/></svg>