<svg xmlns="http://www.w3.org/2000/svg"  viewBox="0 0 48 48" width="48px" height="48px"><path d="M 35.484375 3.984375 A 1.50015 1.50015 0 0 0 34.439453 6.5605469 L 37.878906 10 L 10.5 10 C 7.47 10 5 12.47 5 15.5 L 5 31.640625 L 8 28.640625 L 8 15.5 C 8 14.12 9.12 13 10.5 13 L 37.878906 13 L 34.439453 16.439453 A 1.50015 1.50015 0 1 0 36.560547 18.560547 L 42.560547 12.560547 A 1.50015 1.50015 0 0 0 42.560547 10.439453 L 36.560547 4.4394531 A 1.50015 1.50015 0 0 0 35.484375 3.984375 z M 43 16.359375 L 40 19.359375 L 40 32.5 C 40 33.88 38.88 35 37.5 35 L 10.121094 35 L 13.560547 31.560547 A 1.50015 1.50015 0 0 0 12.470703 28.986328 A 1.50015 1.50015 0 0 0 11.439453 29.439453 L 5.4394531 35.439453 A 1.50015 1.50015 0 0 0 5.4394531 37.560547 L 11.439453 43.560547 A 1.50015 1.50015 0 1 0 13.560547 41.439453 L 10.121094 38 L 37.5 38 C 40.53 38 43 35.53 43 32.5 L 43 16.359375 z M 24.650391 17.001953 C 24.552437 17.010188 24.454625 17.0305 24.359375 17.0625 L 21.359375 18.0625 C 20.704375 18.2815 20.350359 18.989531 20.568359 19.644531 C 20.787359 20.298531 21.494391 20.651547 22.150391 20.435547 L 23.503906 19.984375 L 23.503906 29.75 C 23.503906 30.44 24.063906 31 24.753906 31 C 25.443906 31 26.003906 30.440047 26.003906 29.748047 L 26.003906 18.248047 C 26.003906 17.846047 25.810375 17.469375 25.484375 17.234375 C 25.239875 17.058125 24.94425 16.97725 24.650391 17.001953 z"/></svg>