<svg xmlns="http://www.w3.org/2000/svg" xmlns:xlink="http://www.w3.org/1999/xlink" viewBox="0,0,256,256" width="64px" height="64px" fill-rule="nonzero"><defs><linearGradient x1="9.009" y1="6.36" x2="38.092" y2="45.266" gradientUnits="userSpaceOnUse" id="color-1"><stop offset="0" stop-color="#ffda1c"></stop><stop offset="1" stop-color="#feb705"></stop></linearGradient></defs><g transform="translate(1.28,1.28) scale(0.99,0.99)"><g fill="url(#color-1)" fill-rule="nonzero" stroke="none" stroke-width="1" stroke-linecap="butt" stroke-linejoin="miter" stroke-miterlimit="10" stroke-dasharray="" stroke-dashoffset="0" font-family="none" font-weight="none" font-size="none" text-anchor="none" style="mix-blend-mode: normal"><g transform="scale(5.33333,5.33333)"><path d="M24.913,5.186l5.478,12.288l13.378,1.413c0.861,0.091 1.207,1.158 0.564,1.737l-9.993,9.005l2.791,13.161c0.18,0.847 -0.728,1.506 -1.478,1.074l-11.653,-6.723l-11.653,6.722c-0.75,0.432 -1.657,-0.227 -1.478,-1.074l2.791,-13.161l-9.993,-9.005c-0.643,-0.579 -0.296,-1.646 0.564,-1.737l13.378,-1.413l5.478,-12.288c0.352,-0.79 1.474,-0.79 1.826,0.001z"></path></g></g></g></svg>