<svg xmlns="http://www.w3.org/2000/svg"  viewBox="0 0 100 100" width="100px" height="100px"><path d="M22.5,93C16.159,93,11,87.841,11,81.5v-59C11,16.159,16.159,11,22.5,11h59	C87.841,11,93,16.159,93,22.5v59C93,87.841,87.841,93,81.5,93H22.5z" opacity=".35"/><path fill="#f2f2f2" d="M20.5,91C14.159,91,9,85.841,9,79.5v-59C9,14.159,14.159,9,20.5,9h59C85.841,9,91,14.159,91,20.5v59	C91,85.841,85.841,91,79.5,91H20.5z"/><path fill="#ff7575" d="M79.5,84.5h-59c-2.761,0-5-2.239-5-5v-59c0-2.761,2.239-5,5-5h59c2.761,0,5,2.239,5,5v59	C84.5,82.261,82.261,84.5,79.5,84.5z"/><path fill="#40396e" d="M79.5,86h-59c-3.584,0-6.5-2.916-6.5-6.5v-59c0-3.584,2.916-6.5,6.5-6.5h59	c3.584,0,6.5,2.916,6.5,6.5v59C86,83.084,83.084,86,79.5,86z M20.5,17c-1.93,0-3.5,1.57-3.5,3.5v59c0,1.93,1.57,3.5,3.5,3.5h59	c1.93,0,3.5-1.57,3.5-3.5v-59c0-1.93-1.57-3.5-3.5-3.5H20.5z"/><path fill="#ffc571" d="M72.446,44.727c0.035-0.058,0.054-0.121,0.077-0.182c0.011-0.031,0.03-0.061,0.038-0.093	c0.162-0.606-0.225-1.297-0.94-1.373L56.99,41.534l-5.991-13.438c-0.127-0.287-0.35-0.469-0.601-0.565	c-0.507-0.196-1.139-0.014-1.396,0.565l-5.991,13.439L28.38,43.08c-0.716,0.076-1.103,0.767-0.94,1.373	c0.008,0.03,0.025,0.058,0.036,0.087c0.023,0.063,0.043,0.127,0.079,0.187c0.054,0.09,0.122,0.176,0.208,0.253l10.929,9.848	L35.64,69.222c-0.173,0.813,0.572,1.467,1.312,1.295c0.011-0.003,0.022-0.01,0.034-0.013c0.091-0.024,0.182-0.056,0.271-0.107	L50,63.044l12.744,7.352c0.386,0.222,0.806,0.174,1.126-0.029l0,0c0.001,0,0.001-0.001,0.002-0.001	c0.088-0.056,0.167-0.122,0.236-0.2c0.002-0.002,0.005-0.004,0.007-0.007c0.062-0.071,0.112-0.15,0.154-0.235	c0.007-0.013,0.016-0.025,0.023-0.038c0.034-0.076,0.053-0.16,0.068-0.245c0.005-0.025,0.015-0.047,0.018-0.073	c0.012-0.111,0.008-0.227-0.018-0.347l-3.052-14.393l10.929-9.848C72.323,44.903,72.392,44.817,72.446,44.727z"/></svg>