<svg xmlns="http://www.w3.org/2000/svg" xmlns:xlink="http://www.w3.org/1999/xlink" viewBox="0,0,256,256" width="100px" height="100px"><g fill="none" fill-rule="nonzero" stroke="none" stroke-width="1" stroke-linecap="butt" stroke-linejoin="miter" stroke-miterlimit="10" stroke-dasharray="" stroke-dashoffset="0" font-family="none" font-weight="none" font-size="none" text-anchor="none" style="mix-blend-mode: normal"><g transform="scale(2.56,2.56)"><path d="M59.454,94.622c-0.54,0 -1.052,-0.041 -1.563,-0.124c-0.155,-0.023 -0.316,-0.051 -0.483,-0.083c-2.267,-0.377 -4.359,-1.477 -6.223,-3.27c-0.107,-0.096 -0.217,-0.197 -0.335,-0.313c-0.75,-0.735 -1.426,-1.546 -2.023,-2.428c-0.672,-0.003 -1.248,-0.021 -1.693,-0.035c-0.55,-0.018 -1.403,-0.046 -2.48,-0.14c-0.29,0.364 -0.596,0.702 -0.917,1.017c-3.58,3.51 -7.484,3.783 -8.596,3.783c-0.528,0 -1.031,-0.04 -1.536,-0.12c-1.784,-0.255 -4.43,-1.101 -7.053,-3.656c-4.126,-4.045 -4.904,-9.239 -5.277,-11.735l-0.044,-0.291c-0.148,-0.966 -0.333,-1.977 -0.549,-3.003c-1.511,-2.766 -2.468,-5.862 -2.862,-9.248c-2.946,-0.824 -4.972,-2.314 -6.276,-3.631c-2.204,-2.222 -3.457,-5.028 -3.436,-7.698c0.055,-5.841 4.828,-8.316 7.392,-9.647c1.063,-0.552 2.162,-1.121 3.186,-1.867c0.614,-0.448 1.197,-0.96 1.743,-1.531c0.993,-5.58 1.744,-9.053 3.484,-12.149c1.698,-3.035 5.033,-7.143 11.416,-10.2c2.064,-4.652 6.192,-9.038 11.591,-9.243c0.128,-0.005 0.255,-0.007 0.381,-0.007c2.791,0 5.592,1.206 7.989,3.354c1.571,-0.687 3.351,-1.166 5.257,-1.166c1.396,0 2.732,0.261 3.971,0.774c3.157,1.311 5.46,4.095 6.643,7.904c4.21,0.407 7.506,2.197 9.397,5.142c1.957,3.048 2.159,6.966 0.679,10.999c2.451,2.422 3.8,5.302 3.807,8.287c0.004,1.753 -0.464,3.492 -1.356,5.125c0.863,1.384 1.386,2.883 1.545,4.458c0.119,1.184 0.025,2.377 -0.273,3.552c0.476,0.677 0.861,1.407 1.15,2.181c0.259,0.69 0.437,1.41 0.531,2.149c0.613,0.513 1.155,1.098 1.617,1.748c1.128,1.589 1.721,3.44 1.77,5.434c2.856,1.398 6.157,3.951 5.851,8.908c-0.12,2.065 -1.095,5.896 -6.249,8.157c-3.62,1.551 -9.055,2.167 -10.635,2.32c-2.087,0.218 -4.298,0.331 -6.53,0.331c-0.705,0 -1.418,-0.011 -2.135,-0.034c-1.674,2.23 -3.768,3.897 -6.174,4.898c-2.036,0.927 -3.776,1.084 -4.643,1.094h-0.028h-0.031z" fill-opacity="0" fill="#000000" opacity="0.35"></path><path d="M57.454,92.622c-0.54,0 -1.052,-0.041 -1.563,-0.124c-0.155,-0.023 -0.316,-0.051 -0.483,-0.083c-2.267,-0.377 -4.359,-1.477 -6.223,-3.27c-0.107,-0.096 -0.217,-0.197 -0.335,-0.313c-0.75,-0.735 -1.426,-1.546 -2.023,-2.428c-0.672,-0.003 -1.248,-0.021 -1.693,-0.035c-0.55,-0.018 -1.403,-0.046 -2.48,-0.14c-0.29,0.364 -0.596,0.702 -0.917,1.017c-3.58,3.51 -7.484,3.783 -8.596,3.783c-0.528,0 -1.031,-0.04 -1.536,-0.12c-1.784,-0.255 -4.43,-1.101 -7.053,-3.656c-4.126,-4.045 -4.904,-9.239 -5.277,-11.735l-0.044,-0.291c-0.148,-0.966 -0.333,-1.977 -0.549,-3.003c-1.511,-2.766 -2.468,-5.862 -2.862,-9.248c-2.946,-0.824 -4.972,-2.314 -6.276,-3.631c-2.204,-2.222 -3.457,-5.028 -3.436,-7.698c0.055,-5.841 4.828,-8.316 7.392,-9.647c1.063,-0.552 2.162,-1.121 3.186,-1.867c0.614,-0.448 1.197,-0.96 1.743,-1.531c0.993,-5.58 1.744,-9.053 3.484,-12.149c1.698,-3.035 5.033,-7.143 11.416,-10.2c2.064,-4.652 6.192,-9.038 11.591,-9.243c0.128,-0.005 0.255,-0.007 0.381,-0.007c2.791,0 5.592,1.206 7.989,3.354c1.571,-0.687 3.351,-1.166 5.257,-1.166c1.396,0 2.732,0.261 3.971,0.774c3.157,1.311 5.46,4.095 6.643,7.904c4.21,0.407 7.506,2.197 9.397,5.142c1.957,3.048 2.159,6.966 0.679,10.999c2.451,2.422 3.8,5.302 3.807,8.287c0.004,1.753 -0.464,3.492 -1.356,5.125c0.863,1.384 1.386,2.883 1.545,4.458c0.119,1.184 0.025,2.377 -0.273,3.552c0.476,0.677 0.861,1.407 1.15,2.181c0.259,0.69 0.437,1.41 0.531,2.149c0.613,0.513 1.155,1.098 1.617,1.748c1.128,1.589 1.721,3.44 1.77,5.434c2.856,1.398 6.157,3.951 5.851,8.908c-0.12,2.065 -1.095,5.896 -6.249,8.157c-3.62,1.551 -9.055,2.167 -10.635,2.32c-2.087,0.218 -4.298,0.331 -6.53,0.331c-0.705,0 -1.418,-0.011 -2.135,-0.034c-1.674,2.23 -3.768,3.897 -6.174,4.898c-2.036,0.927 -3.776,1.084 -4.643,1.094h-0.028h-0.031z" fill="#f2f2f2"></path><path d="M45.223,15.005c-3.238,0.123 -7.536,8.047 -4.231,11.166c2.148,2.027 7.307,1.831 9.295,-0.353c3.06,-3.36 -1.826,-10.935 -5.064,-10.813z" fill="#739f4d"></path><path d="M59.452,17.356c-3.105,-1.287 -10.988,5.269 -9.389,10.039c1.039,3.101 5.987,5.152 8.916,3.697c4.506,-2.236 3.578,-12.447 0.473,-13.736z" fill="#739f4d"></path><path d="M71.826,27.336c-1.769,-2.753 -11.71,-1.882 -13.077,2.82c-0.889,3.056 1.93,7.441 5.079,7.903c4.844,0.71 9.766,-7.971 7.998,-10.723z" fill="#739f4d"></path><path d="M75.043,42.316c-0.007,-3.448 -9.326,-8.324 -13.213,-4.928c-2.525,2.208 -2.516,7.704 0.017,9.902c3.899,3.384 13.202,-1.526 13.196,-4.974z" fill="#739f4d"></path><path d="M75.272,52.687c-0.335,-3.309 -9.745,-7.102 -13.15,-3.47c-2.214,2.36 -1.681,7.633 0.959,9.502c4.065,2.876 12.526,-2.723 12.191,-6.032z" fill="#739f4d"></path><path d="M76.616,60.418c-0.922,-2.462 -8.878,-3.469 -10.751,-0.007c-1.218,2.25 0.25,6.173 2.646,7.07c3.685,1.382 9.027,-4.6 8.105,-7.063z" fill="#739f4d"></path><path d="M79.756,65.073c-1.532,-1.614 -8.064,0.231 -8.381,3.548c-0.205,2.156 2.236,4.729 4.4,4.637c3.327,-0.144 5.515,-6.571 3.981,-8.185z" fill="#739f4d"></path><path d="M40.578,57.873c-0.053,1.13 -1.014,20.596 -4.5,24.001c-1.536,1.5 -3,1.5 -3,1.5c-0.291,0 -1.515,-0.042 -3,-1.5c-2.306,-2.264 -2.684,-5.436 -3,-7.5c-0.447,-2.924 -1.283,-6.977 -3,-12.001" fill="#739f4d"></path><path d="M37.421,47.452c-0.945,1.905 -2.64,2.79 -6,4.5c-2.659,1.353 -5.181,2.839 -7.579,3.316c-7.969,1.583 -9.741,-2.852 -9.735,-3.553c0.017,-1.716 3.558,-2.394 7.293,-5.118c2.985,-2.177 4.862,-4.763 6.015,-6.705c2.28,-2.4 5.67,-2.985 8.07,-1.68c0.15,0.06 0.3,0.15 0.435,0.24c3.061,2.023 2.732,6.51 1.501,9z" fill="#739f4d"></path><path d="M74.681,69.191c-5.578,-4.631 -6.815,-12.265 -6.83,-19.256v-8.735c0,-10.96 -8.871,-19.831 -19.831,-19.831h-2.691c-2.105,0 -4.21,0.346 -6.179,1.067c-6.886,2.511 -9.472,6.315 -10.389,7.953c-1.293,2.3 -1.879,5.578 -3.007,12.028c-0.105,0.571 -0.195,1.143 -0.286,1.684c-0.511,3.142 -0.872,5.834 -1.113,7.878c-0.06,0.556 -0.15,1.113 -0.271,1.654c-0.135,0.692 -0.331,1.714 -0.466,2.947c-0.391,3.729 -0.241,9.442 3.232,13.892c0.045,0.075 0.09,0.135 0.15,0.195c0.075,0.105 0.457,-0.887 0.548,-0.781c2.045,2.391 5.334,1.982 6.717,2.719c1.849,0.992 3.735,3.306 5.374,3.743c2.902,0.767 4.26,2.108 5.659,2.153c1.368,0.045 4.104,0.135 7.006,-0.436c1.111,-0.228 2.234,-0.542 3.334,-0.995c8.693,2.006 15.683,1.939 20.541,1.431c0.782,-0.075 5.728,-0.616 8.254,-1.699c0.857,-0.376 1.43,-1.014 1.46,-1.526c0.106,-1.713 -6.431,-2.13 -11.212,-6.085z" fill="#96c362"></path><path d="M52.699,77.971c-2.967,0.584 -5.764,0.492 -7.163,0.446c-1.43,-0.046 -3.92,-0.154 -6.887,-0.938c-1.676,-0.446 -3.52,-1.122 -5.411,-2.137c-1.414,-0.753 -4.058,-2.167 -6.149,-4.612c-0.092,-0.108 -0.184,-0.215 -0.261,-0.323c0,0.015 0,0.046 0.015,0.061c-0.061,-0.092 -0.123,-0.169 -0.169,-0.261c-1.599,-2.49 -2.644,-5.411 -2.659,-8.701c0,-1.921 0.338,-3.874 0.938,-5.734c2.044,-6.318 7.071,-11.544 11.36,-11.175c3.889,0.323 6.18,5.349 10.76,15.372c3.566,7.825 6.487,14.189 5.626,18.002z" fill="#ffe8d9"></path><path d="M84.565,76.801c-2.52,1.08 -7.455,1.62 -8.235,1.695c-5.025,0.525 -12.316,0.6 -21.436,-1.635c0.483,-1.808 1.658,-5.283 4.125,-5.865c1.398,-0.33 2.538,0.431 4.5,1.5c5.079,2.771 9.267,4.284 10.5,4.5c4.264,0.747 7.954,0.346 10.546,-0.195z" fill="#ffe8d9"></path><path d="M66.373,56.915c-0.05,1.251 -1.134,22.893 -5.002,26.678c-1.701,1.667 -3.335,1.667 -3.335,1.667c-0.067,0 -0.2,0 -0.367,-0.033c-0.584,-0.067 -1.684,-0.383 -2.968,-1.634c-2.568,-2.518 -2.985,-6.036 -3.335,-8.337c-0.5,-3.251 -1.417,-7.753 -3.335,-13.339l13.456,-3.668z" fill="#96c362"></path><path d="M45.301,15.004c2.177,0 5.044,3.382 5.772,6.611c0.171,0.026 0.343,0.048 0.513,0.078c1.894,-2.517 4.928,-4.501 6.962,-4.501c0.331,0 0.636,0.053 0.905,0.164c2.078,0.863 3.171,5.718 2.321,9.509c0.031,0.029 0.064,0.056 0.094,0.086c1.622,-0.781 3.612,-1.168 5.405,-1.168c2.078,0 3.89,0.521 4.554,1.554c1.246,1.94 -0.837,6.815 -3.869,9.28c3.596,0.959 7.08,3.592 7.085,5.7c0.004,2.051 -3.288,4.607 -6.776,5.639c3.43,0.658 6.807,2.773 7.005,4.732c0.175,1.726 -2.049,4.066 -4.789,5.511c0.176,-0.009 0.352,-0.013 0.529,-0.013c2.542,0 5.104,0.9 5.603,2.234c0.539,1.44 -1.067,4.074 -3.227,5.745c1.112,-0.588 2.511,-0.89 3.73,-0.89c1.185,0 2.199,0.285 2.614,0.87c0.752,1.059 -0.076,3.646 -1.556,5.389c3.954,2 7.797,2.512 7.716,3.838c-0.03,0.51 -0.6,0.93 -1.455,1.305c-2.52,1.08 -7.455,1.62 -8.235,1.695c-1.665,0.174 -3.585,0.292 -5.739,0.292c-2.047,0 -4.305,-0.106 -6.754,-0.372c-1.016,3.106 -2.755,5.125 -4.753,5.9c-0.866,0.422 -1.502,0.431 -1.502,0.431c-0.06,0 -0.18,0 -0.33,-0.03c-0.087,-0.01 -0.19,-0.029 -0.3,-0.054c-0.577,-0.072 -1.316,-0.382 -2.187,-1.251c-0.061,-0.056 -0.121,-0.105 -0.183,-0.165c-1.529,-1.5 -2.204,-3.389 -2.581,-5.099c-1.798,0.31 -3.504,0.38 -4.823,0.38c-0.664,0 -1.229,-0.018 -1.659,-0.032c-1.395,-0.045 -3.825,-0.15 -6.72,-0.915c-0.187,-0.05 -0.383,-0.113 -0.574,-0.169c-0.541,1.95 -1.188,3.488 -1.957,4.24c-1.53,1.5 -3,1.5 -3,1.5c-0.06,0 -0.18,0 -0.33,-0.03c-0.525,-0.06 -1.515,-0.345 -2.67,-1.47c-2.31,-2.265 -2.685,-5.43 -3,-7.5c-0.208,-1.349 -0.501,-2.948 -0.92,-4.761c-2.713,-4.25 -2.819,-9.344 -2.46,-12.765c0.05,-0.452 0.108,-0.864 0.168,-1.254c-0.029,0.006 -0.058,0.016 -0.086,0.021c-1.193,0.237 -2.246,0.339 -3.176,0.339c-5.282,0 -6.563,-3.296 -6.558,-3.892c0.016,-1.716 3.558,-2.394 7.293,-5.118c1.954,-1.425 3.426,-3.022 4.538,-4.503c1.093,-6.249 1.681,-9.464 2.952,-11.725c0.915,-1.635 3.495,-5.43 10.365,-7.935c0.197,-0.072 0.401,-0.124 0.6,-0.189c0.404,-3.368 3.137,-7.156 5.368,-7.24c0.025,-0.002 0.051,-0.002 0.077,-0.002M45.302,12.004c-0.001,0 -0.001,0 0,0c-0.065,0 -0.128,0.001 -0.192,0.004c-3.491,0.132 -6.673,4.002 -7.836,7.972c-6.37,2.553 -9.494,6.23 -11.002,8.924c-1.494,2.658 -2.155,6.198 -3.16,11.938c-1.035,1.282 -2.203,2.401 -3.479,3.331c-1.326,0.967 -2.656,1.657 -3.829,2.266c-2.189,1.135 -4.669,2.422 -4.696,5.248c-0.011,1.306 0.75,2.891 1.987,4.138c1.254,1.265 3.576,2.771 7.526,2.783c-0.086,3.56 0.462,7.907 2.785,11.808c0.308,1.378 0.566,2.745 0.77,4.068l0.044,0.292c0.338,2.257 0.904,6.033 3.821,8.894c1.673,1.629 3.25,2.15 4.315,2.294c0.334,0.056 0.604,0.064 0.785,0.064c0.45,0 2.811,-0.114 5.1,-2.358c0.686,-0.671 1.279,-1.596 1.809,-2.833c2.38,0.441 4.303,0.503 5.245,0.533c0.453,0.015 1.053,0.034 1.756,0.034c0.94,0 1.836,-0.033 2.698,-0.099c0.635,1.566 1.498,2.874 2.606,3.96c0.082,0.08 0.156,0.147 0.23,0.212c1.162,1.139 2.411,1.817 3.714,2.017c0.128,0.026 0.248,0.047 0.363,0.064c0.338,0.058 0.611,0.065 0.794,0.065c0.338,-0.004 1.392,-0.066 2.702,-0.68c2.279,-0.921 4.175,-2.822 5.487,-5.462c1.624,0.121 3.238,0.183 4.82,0.183c2.06,0 4.096,-0.104 6.051,-0.308c0.588,-0.056 6.047,-0.611 9.105,-1.921c2.078,-0.911 3.17,-2.216 3.268,-3.886c0.187,-3.038 -2.733,-4.094 -5.309,-5.027c-0.365,-0.132 -0.744,-0.269 -1.133,-0.415c0.724,-1.9 0.917,-4.033 -0.266,-5.699c-0.602,-0.849 -1.518,-1.463 -2.669,-1.808c0.291,-1.095 0.302,-2.199 -0.085,-3.232c-0.451,-1.205 -1.35,-2.106 -2.467,-2.757c0.911,-1.286 1.451,-2.723 1.299,-4.224c-0.187,-1.846 -1.421,-3.466 -3.154,-4.733c1.758,-1.507 2.944,-3.357 2.94,-5.342c-0.005,-2.718 -2.256,-5.179 -5.122,-6.847c2.042,-3.119 3.166,-7.045 1.43,-9.748c-1.215,-1.891 -3.729,-2.933 -7.078,-2.933c-0.754,0 -1.51,0.053 -2.254,0.156c-0.233,-3.545 -1.55,-7.163 -4.415,-8.353c-0.63,-0.261 -1.321,-0.393 -2.055,-0.393c-2.143,0 -4.41,1.117 -6.317,2.616c-1.706,-2.68 -4.29,-4.806 -6.932,-4.806z" fill="#40396e"></path><path d="M61.891,54.67c-0.945,1.905 -2.64,2.79 -6,4.5c-5.13,2.61 -9.915,5.04 -13.501,3c-0.15,-0.09 -0.3,-0.18 -0.45,-0.3c-0.015,0 -0.015,0 -0.015,0c-2.774,-1.233 -3.354,-2.237 -3.348,-2.937c0.016,-1.716 3.558,-2.394 7.293,-5.118c2.985,-2.177 4.862,-4.763 6.015,-6.705c2.28,-2.4 5.67,-2.985 8.07,-1.68c0.15,0.06 0.3,0.15 0.435,0.24c3.061,2.025 2.731,6.51 1.501,9z" fill="#96c362"></path><path d="M61.891,52.87c-0.717,4.104 -4.161,6.318 -6,7.5c-0.726,0.467 -7.125,4.443 -13.501,1.8c-1.328,-0.551 -2.328,-1.253 -3,-1.8c5.208,1.838 10.996,0.686 15.001,-3c5.804,-5.34 4.592,-12.983 4.5,-13.501c0.42,0.396 0.977,0.99 1.5,1.8c0.146,0.224 2.157,3.436 1.5,7.201z" fill="#739f4d"></path><path d="M39.546,38.662c-2.562,0 -4.089,-1.782 -4.371,-2.144c-0.255,-0.326 -0.198,-0.797 0.128,-1.053c0.327,-0.255 0.797,-0.2 1.053,0.128c0.129,0.162 1.263,1.563 3.243,1.566c1.847,-0.024 2.937,-1.308 3.138,-1.565c0.255,-0.329 0.726,-0.387 1.052,-0.132c0.327,0.254 0.387,0.725 0.132,1.052c-0.275,0.353 -1.769,2.112 -4.301,2.145c-0.026,0.003 -0.051,0.003 -0.074,0.003z" fill="#40396e"></path><circle cx="30.343" cy="36.604" r="2.625" fill="#f4a3be"></circle><circle cx="49.781" cy="36.76" r="2.625" fill="#f4a3be"></circle><circle cx="31.78" cy="34.01" r="1.797" fill="#40396e"></circle><circle cx="47.797" cy="33.995" r="1.812" fill="#40396e"></circle></g></g></svg>