<svg xmlns="http://www.w3.org/2000/svg"  viewBox="0 0 100 100" width="100px" height="100px"><path d="M27.872,95C20.223,95,14,88.542,14,80.605V43.911c-3.87-3.688-5.909-8.374-5.909-13.635	c0-21.303,25.467-21.303,39.148-21.303c1.323,0,2.653,0.009,3.981,0.028c1.263-0.02,2.578-0.028,3.898-0.028	c9.049,0,18.454,0.333,25.929,2.752C93.33,15.7,95.909,24.007,95.909,30.276c0,5.255-2.036,9.938-5.909,13.635v36.694	C90,88.542,83.777,95,76.128,95H27.872z" opacity=".35"/><path fill="#f2f2f2" d="M25.872,93C18.223,93,12,86.542,12,78.605V41.911c-3.87-3.688-5.909-8.374-5.909-13.635	c0-21.303,25.467-21.303,39.148-21.303c1.323,0,2.653,0.009,3.981,0.028c1.263-0.02,2.578-0.028,3.898-0.028	c9.049,0,18.454,0.333,25.929,2.752C91.33,13.7,93.909,22.007,93.909,28.276c0,5.255-2.036,9.938-5.909,13.635v36.694	C88,86.542,81.777,93,74.128,93H25.872z"/><path fill="#f9b84f" d="M14.474,28.289c0-10.855,11.771-12.829,30.756-12.829s32.402,1.974,32.402,12.829	c0,3.683-1.778,6.298-4.044,8.165c-1.239,1.022-1.877,2.7-1.877,4.395v37.768c0,3.27-2.43,5.921-5.428,5.921H25.822	c-2.998,0-5.428-2.651-5.428-5.921V40.85c0-1.695-0.638-3.373-1.877-4.397C16.252,34.588,14.474,31.972,14.474,28.289z"/><path fill="#f9b84f" d="M66.283,86.513H25.822c-4.082,0-7.401-3.541-7.401-7.895V40.85c0-1.2-0.434-2.274-1.161-2.876	c-3.158-2.601-4.761-5.86-4.761-9.685c0-13.66,16.168-14.803,32.73-14.803c16.632,0,34.376,1.145,34.376,14.803	c0,3.825-1.603,7.084-4.763,9.689c-0.714,0.59-1.159,1.689-1.159,2.872v37.768C73.684,82.972,70.364,86.513,66.283,86.513z M45.23,17.434c-21.251,0-28.782,2.84-28.782,10.855c0,2.627,1.087,4.798,3.326,6.639c1.626,1.344,2.595,3.557,2.595,5.921v37.768	c0,2.177,1.549,3.947,3.454,3.947h40.461c1.905,0,3.454-1.77,3.454-3.947V40.85c0-2.366,0.971-4.577,2.595-5.917	c2.238-1.845,3.326-4.018,3.326-6.643C75.658,20.478,67.126,17.434,45.23,17.434z"/><path fill="#ffe385" d="M22.368,28.289c0-10.855,11.771-12.829,30.756-12.829s32.402,1.974,32.402,12.829	c0,3.683-1.778,6.298-4.044,8.165c-1.239,1.022-1.877,2.7-1.877,4.395v37.768c0,3.27-2.43,5.921-5.428,5.921H33.717	c-2.998,0-5.428-2.651-5.428-5.921V40.85c0-1.695-0.638-3.373-1.877-4.397C24.147,34.588,22.368,31.972,22.368,28.289z"/><path fill="#f9b84f" d="M53.124,13.487c-16.561,0-32.73,1.143-32.73,14.803c0,3.825,1.603,7.084,4.761,9.685	c0.726,0.602,1.161,1.676,1.161,2.876v37.768c0,4.354,3.32,7.895,7.401,7.895h40.461c4.082,0,7.401-3.541,7.401-7.895V40.85	c0-1.182,0.444-2.282,1.159-2.872c3.16-2.605,4.763-5.864,4.763-9.689C87.5,14.632,69.757,13.487,53.124,13.487z M78.677,35.939	c-1.529,1.27-2.442,3.365-2.442,5.608v35.795c0,2.063-1.458,3.741-3.25,3.741H34.91c-1.792,0-3.25-1.678-3.25-3.741V41.547	c0-2.241-0.912-4.338-2.442-5.612c-2.106-1.745-3.13-3.803-3.13-6.293c0-7.596,7.087-10.288,27.085-10.288	c20.605,0,28.634,2.884,28.634,10.288C81.807,32.131,80.783,34.19,78.677,35.939z"/><path fill="none" stroke="#40396e" stroke-miterlimit="10" stroke-width="3" d="M53.124,13.487c-1.314,0-2.625,0.009-3.926,0.029	c-1.324-0.02-2.65-0.029-3.969-0.029c-16.561,0-32.73,1.143-32.73,14.803c0,3.825,1.603,7.084,4.76,9.685	c0.726,0.602,1.161,1.676,1.161,2.876v37.768c0,4.354,3.32,7.895,7.401,7.895h48.355c4.082,0,7.401-3.541,7.401-7.895V40.85	c0-1.182,0.444-2.282,1.159-2.872c3.16-2.605,4.763-5.864,4.763-9.689C87.5,14.632,69.757,13.487,53.124,13.487z"/><ellipse cx="41.859" cy="52.091" fill="#40396e" rx="3.134" ry="5.373"/><ellipse cx="66.036" cy="52.091" fill="#40396e" rx="3.134" ry="5.373"/><circle cx="42.642" cy="50.747" r="1.343" fill="#f2f2f2"/><circle cx="66.876" cy="50.747" r="1.343" fill="#f2f2f2"/><path fill="#40396e" d="M60.216,58.311c0,3.957-2.806,7.164-6.268,7.164c-3.462,0-6.268-3.207-6.268-7.164"/></svg>