<svg xmlns="http://www.w3.org/2000/svg"  viewBox="0 0 48 48" width="48px" height="48px"><path d="M 23.5 4 C 21.798602 4 20.276374 4.8728094 19.052734 6.1230469 C 18.088475 7.1082659 17.313984 8.4063416 16.648438 9.8300781 C 11.949967 8.7858926 7.1171875 10.048828 7.1171875 10.048828 A 1.50015 1.50015 0 0 0 6 11.5 C 6 14.183212 6.8531866 16.119572 7.7753906 17.496094 C 7.190557 17.991723 6.6792698 18.528277 6.2597656 19.095703 C 3.4702911 22.868777 3.9945384 27.443994 4.0097656 27.574219 C 4.0219516 31.62512 5.0023962 35.647635 7.3242188 38.753906 C 9.6605342 41.879567 13.421414 43.964844 18.369141 43.964844 C 20.551071 43.964844 22.064111 43.36687 23.017578 42.730469 C 23.245141 42.57858 23.333809 42.480129 23.498047 42.34375 C 23.661215 42.47979 23.748751 42.577173 23.974609 42.728516 C 24.926183 43.366143 26.436777 43.964844 28.619141 43.964844 C 33.567378 43.964844 37.145767 41.833325 39.222656 38.679688 C 41.289936 35.540641 41.987674 31.54758 41.994141 27.554688 C 41.999941 27.482067 42.320277 23.450462 40.162109 19.853516 C 39.791298 19.235497 39.330906 18.633952 38.789062 18.072266 C 39.852851 16.673491 41 14.60897 41 11.5 A 1.50015 1.50015 0 0 0 39.808594 10.03125 C 39.808594 10.03125 34.820621 8.9729483 30.222656 9.8808594 C 29.477492 8.5143421 28.732925 7.1659225 27.8125 6.1777344 C 26.656553 4.9366848 25.203625 4 23.5 4 z M 23.5 7 C 24.109375 7 24.786633 7.3290027 25.617188 8.2207031 C 26.44774 9.1124036 27.324555 10.506912 28.160156 12.171875 A 1.50015 1.50015 0 0 0 29.90625 12.943359 C 32.7812 12.133372 36.111811 12.545355 37.751953 12.791016 C 37.51835 14.29377 37.021037 15.377686 36.394531 16.259766 C 35.848301 15.968681 35.256593 15.717061 34.611328 15.519531 C 33.280827 15.112235 31.757523 14.920055 30.011719 14.994141 C 28.265915 15.068221 26.29665 15.407465 24.076172 16.060547 A 1.50015 1.50015 0 0 0 23.689453 16.232422 C 19.572659 15.116322 16.046215 14.626329 13.390625 15.035156 C 12.255774 15.209866 11.248027 15.518862 10.34375 15.912109 C 9.8160505 15.09813 9.412196 14.085515 9.2148438 12.746094 C 10.757447 12.453065 14.043118 11.933133 17.027344 12.923828 A 1.50015 1.50015 0 0 0 18.900391 12.037109 C 19.520923 10.421169 20.350655 9.0876689 21.197266 8.2226562 C 22.043876 7.3576438 22.841398 7 23.5 7 z M 16.103516 17.849609 C 18.601984 17.871612 21.846834 18.448271 26 19.914062 A 1.50015 1.50015 0 0 0 28.013672 18.376953 C 28.694174 18.272108 29.535056 18.019564 30.125 17.994141 C 31.578415 17.931511 32.766048 18.090891 33.732422 18.386719 C 35.665169 18.978376 36.801713 20.086188 37.587891 21.396484 C 39.160246 24.017077 39.003906 27.400391 39.003906 27.400391 A 1.50015 1.50015 0 0 0 39 27.5 C 39 31.147557 38.306657 34.615185 36.716797 37.029297 C 35.126936 39.443409 32.763903 40.964844 28.619141 40.964844 C 26.946504 40.964844 26.159208 40.581201 25.644531 40.236328 C 25.387193 40.063892 25.203169 39.893667 24.984375 39.695312 C 24.874978 39.596133 24.761691 39.488014 24.564453 39.351562 C 24.367216 39.215111 24.037356 39 23.5 39 C 22.962644 39 22.634553 39.213855 22.4375 39.349609 C 22.240447 39.485364 22.125559 39.594237 22.015625 39.693359 C 21.795758 39.891603 21.610829 40.061325 21.351562 40.234375 C 20.83303 40.580474 20.041211 40.964844 18.369141 40.964844 C 14.224867 40.964844 11.551747 39.398871 9.7265625 36.957031 C 7.901378 34.515192 7 31.08346 7 27.5 A 1.50015 1.50015 0 0 0 6.9921875 27.345703 C 6.9921875 27.345703 6.6918894 23.561652 8.6738281 20.880859 C 9.664795 19.540463 11.156205 18.414348 13.847656 18 C 14.520519 17.896413 15.270693 17.842275 16.103516 17.849609 z"/></svg>