<svg xmlns="http://www.w3.org/2000/svg" xmlns:xlink="http://www.w3.org/1999/xlink" viewBox="0,0,256,256" width="50px" height="50px"><g fill="#ffffff" fill-rule="nonzero" stroke="none" stroke-width="1" stroke-linecap="butt" stroke-linejoin="miter" stroke-miterlimit="10" stroke-dasharray="" stroke-dashoffset="0" font-family="none" font-weight="none" font-size="none" text-anchor="none" style="mix-blend-mode: normal"><path d="M0,256v-256h256v256z" id="bgRectangle"></path></g><g fill="#ffffff" fill-rule="nonzero" stroke="none" stroke-width="1" stroke-linecap="butt" stroke-linejoin="miter" stroke-miterlimit="10" stroke-dasharray="" stroke-dashoffset="0" font-family="none" font-weight="none" font-size="none" text-anchor="none" style="mix-blend-mode: normal"><g transform="scale(5.12,5.12)"><path d="M25,2c-12.67886,0 -23,10.32114 -23,23c0,12.67886 10.32114,23 23,23c12.67886,0 23,-10.32114 23,-23c0,-12.67886 -10.32114,-23 -23,-23zM25,6c10.5171,0 19,8.4829 19,19c0,10.5171 -8.4829,19 -19,19c-10.5171,0 -19,-8.4829 -19,-19c0,-10.5171 8.4829,-19 19,-19z"></path></g></g></svg>