<svg xmlns="http://www.w3.org/2000/svg" xmlns:xlink="http://www.w3.org/1999/xlink" viewBox="0,0,256,256" width="48px" height="48px"><g fill="#3d9eef" fill-rule="nonzero" stroke="none" stroke-width="1" stroke-linecap="butt" stroke-linejoin="miter" stroke-miterlimit="10" stroke-dasharray="" stroke-dashoffset="0" font-family="none" font-weight="none" font-size="none" text-anchor="none" style="mix-blend-mode: normal"><g transform="scale(4,4)"><path d="M28.145,36.946v-0.589c0,-3.28 1.589,-5.458 4.92,-7.457c3.101,-1.871 4.203,-3.408 4.203,-5.92c0,-3.024 -2.332,-5.1 -5.74,-5.1c-3.101,0 -5.151,1.538 -5.971,4.331c-0.513,1.589 -1.307,2.153 -2.588,2.153c-1.589,0 -2.486,-0.948 -2.486,-2.511c0,-1.102 0.231,-1.999 0.692,-2.998c1.563,-3.536 5.458,-5.689 10.583,-5.689c6.688,0 11.327,3.921 11.327,9.584c0,3.972 -1.999,6.688 -5.381,8.713c-3.015,1.776 -4.005,3.019 -4.253,5.129c-0.024,0.204 -0.041,0.416 -0.052,0.637c-0.128,1.64 -0.897,2.716 -2.563,2.716c-1.794,-0.001 -2.691,-1.308 -2.691,-2.999zM27.479,47.529c0,-1.871 1.486,-3.306 3.357,-3.306c1.922,0 3.383,1.435 3.383,3.306c0,1.871 -1.461,3.306 -3.383,3.306c-1.871,0 -3.357,-1.435 -3.357,-3.306z"></path></g></g></svg>