<svg xmlns="http://www.w3.org/2000/svg" xmlns:xlink="http://www.w3.org/1999/xlink" viewBox="0,0,256,256" width="100px" height="100px"><g fill="none" fill-rule="nonzero" stroke="none" stroke-width="none" stroke-linecap="none" stroke-linejoin="none" stroke-miterlimit="10" stroke-dasharray="" stroke-dashoffset="0" font-family="none" font-weight="none" font-size="none" text-anchor="none" style="mix-blend-mode: normal"><g transform="scale(2.56,2.56)"><path d="M51.058,97.967c-10.04,0 -17.052,-6.774 -17.052,-16.473c0,-5.276 2.075,-9.687 5.583,-12.612c-3.768,-2.936 -4.792,-7.48 -4.792,-11.549c0,-11.592 7.712,-17.551 12.814,-21.494c1.241,-0.958 2.835,-2.19 3.649,-3.053c-0.203,-0.035 -0.449,-0.058 -0.739,-0.058c-1.827,0 -3.649,0.899 -5.761,1.94c-2.427,1.197 -5.176,2.554 -8.432,2.554c-7.487,0 -14.306,-7.044 -14.306,-14.778c0,-10.688 12.135,-18.446 28.854,-18.446c19.183,0 31.1,10.467 31.1,27.316c0,12.087 -6.304,17.095 -10.476,20.408c-3.21,2.55 -4.82,3.829 -5.307,7.621c-0.04,0.309 -0.068,0.601 -0.096,0.888c-0.374,3.794 -1.602,6.607 -3.802,8.53c3.572,2.924 5.689,7.384 5.689,12.733c0.002,9.545 -7.117,16.473 -16.926,16.473z" fill-opacity="0" fill="#fa5252" stroke="none" stroke-width="1" stroke-linecap="butt" stroke-linejoin="miter" opacity="0.35"></path><path d="M49.058,95.967c-10.04,0 -17.052,-6.774 -17.052,-16.473c0,-5.276 2.075,-9.687 5.583,-12.612c-3.768,-2.936 -4.792,-7.48 -4.792,-11.549c0,-11.592 7.712,-17.551 12.814,-21.494c1.241,-0.958 2.835,-2.19 3.649,-3.053c-0.203,-0.035 -0.449,-0.058 -0.739,-0.058c-1.827,0 -3.649,0.899 -5.761,1.94c-2.427,1.197 -5.176,2.554 -8.432,2.554c-7.487,0 -14.306,-7.044 -14.306,-14.778c0,-10.688 12.135,-18.446 28.854,-18.446c19.183,0 31.1,10.467 31.1,27.316c0,12.087 -6.304,17.095 -10.476,20.408c-3.21,2.55 -4.82,3.829 -5.307,7.621c-0.04,0.309 -0.068,0.601 -0.096,0.888c-0.374,3.794 -1.602,6.607 -3.802,8.53c3.572,2.924 5.689,7.384 5.689,12.733c0.002,9.545 -7.117,16.473 -16.926,16.473z" fill="#f2f2f2" stroke="none" stroke-width="1" stroke-linecap="butt" stroke-linejoin="miter"></path><path d="M49.058,89.967c-6.61,0 -11.052,-4.209 -11.052,-10.473c0,-6.264 4.441,-10.473 11.052,-10.473c6.537,0 10.929,4.209 10.929,10.473c-0.001,6.166 -4.495,10.473 -10.929,10.473zM48.743,63.996c-5.97,0 -9.946,-1.473 -9.946,-8.663c0,-8.646 5.812,-13.137 10.483,-16.746c3.593,-2.776 6.43,-4.968 6.43,-8.209c0,-3.327 -2.956,-5.65 -7.188,-5.65c-3.227,0 -5.864,1.301 -8.415,2.559c-2.018,0.995 -3.921,1.935 -5.777,1.935c-4.114,0 -8.306,-4.43 -8.306,-8.778c0,-7.095 9.825,-12.446 22.854,-12.446c15.717,0 25.1,7.969 25.1,21.316c0,9.191 -4.173,12.505 -8.207,15.71c-3.462,2.749 -6.73,5.346 -7.526,11.556c-0.047,0.359 -0.082,0.717 -0.116,1.068c-0.323,3.264 -0.627,6.348 -9.386,6.348z" fill="#70bfff" stroke="none" stroke-width="1" stroke-linecap="butt" stroke-linejoin="miter"></path><path d="M48.522,24.227c-6.032,0 -10.29,4.494 -14.193,4.494c-3.784,0 -7.806,-4.021 -7.806,-8.279c0,-6.505 9.461,-11.946 22.353,-11.946c14.074,0 24.6,6.387 24.6,20.816c0,16.676 -13.956,13.365 -15.73,27.203c-0.474,3.666 0.221,6.98 -9.004,6.98c-5.914,0 -9.447,-1.422 -9.447,-8.163c0,-14.666 16.913,-16.795 16.913,-24.956c0.002,-3.429 -2.955,-6.149 -7.686,-6.149zM49.058,89.467c-6.135,0 -10.552,-3.77 -10.552,-9.973c0,-6.081 4.294,-9.973 10.552,-9.973c6.257,0 10.429,3.892 10.429,9.973c0,6.081 -4.294,9.973 -10.429,9.973z" fill="none" stroke="#40396e" stroke-width="3" stroke-linecap="round" stroke-linejoin="round"></path><path d="M48.522,24.227c-6.032,0 -10.29,4.494 -14.193,4.494c-3.784,0 -7.806,-4.021 -7.806,-8.279c0,-6.505 9.461,-11.946 22.353,-11.946c14.074,0 24.6,6.387 24.6,20.816c0,16.676 -13.956,13.365 -15.73,27.203c-0.474,3.666 0.221,6.98 -9.004,6.98c-5.914,0 -9.447,-1.422 -9.447,-8.163c0,-14.666 16.913,-16.795 16.913,-24.956c0.002,-3.429 -2.955,-6.149 -7.686,-6.149zM49.058,89.467c-6.135,0 -10.552,-3.77 -10.552,-9.973c0,-6.081 4.294,-9.973 10.552,-9.973c6.257,0 10.429,3.892 10.429,9.973c0,6.081 -4.294,9.973 -10.429,9.973z" fill="none" stroke="#40396e" stroke-width="3" stroke-linecap="round" stroke-linejoin="round"></path><path d="M48.522,24.227c-6.032,0 -10.29,4.494 -14.193,4.494c-3.784,0 -7.806,-4.021 -7.806,-8.279c0,-6.505 9.461,-11.946 22.353,-11.946c14.074,0 24.6,6.387 24.6,20.816c0,16.676 -13.956,13.365 -15.73,27.203c-0.474,3.666 0.221,6.98 -9.004,6.98c-5.914,0 -9.447,-1.422 -9.447,-8.163c0,-14.666 16.913,-16.795 16.913,-24.956c0.002,-3.429 -2.955,-6.149 -7.686,-6.149zM49.058,89.467c-6.135,0 -10.552,-3.77 -10.552,-9.973c0,-6.081 4.294,-9.973 10.552,-9.973c6.257,0 10.429,3.892 10.429,9.973c0,6.081 -4.294,9.973 -10.429,9.973z" fill="none" stroke="#40396e" stroke-width="3" stroke-linecap="round" stroke-linejoin="round"></path><path d="M48.522,24.227c-6.032,0 -10.29,4.494 -14.193,4.494c-3.784,0 -7.806,-4.021 -7.806,-8.279c0,-6.505 9.461,-11.946 22.353,-11.946c14.074,0 24.6,6.387 24.6,20.816c0,16.676 -13.956,13.365 -15.73,27.203c-0.474,3.666 0.221,6.98 -9.004,6.98c-5.914,0 -9.447,-1.422 -9.447,-8.163c0,-14.666 16.913,-16.795 16.913,-24.956c0.002,-3.429 -2.955,-6.149 -7.686,-6.149zM49.058,89.467c-6.135,0 -10.552,-3.77 -10.552,-9.973c0,-6.081 4.294,-9.973 10.552,-9.973c6.257,0 10.429,3.892 10.429,9.973c0,6.081 -4.294,9.973 -10.429,9.973z" fill="none" stroke="#40396e" stroke-width="3" stroke-linecap="round" stroke-linejoin="round"></path><path d="M49.058,90.967c-7.209,0 -12.052,-4.611 -12.052,-11.473c0,-6.862 4.843,-11.473 12.052,-11.473c7.135,0 11.929,4.611 11.929,11.473c-0.001,6.755 -4.906,11.473 -11.929,11.473zM49.058,71.021c-5.499,0 -9.052,3.326 -9.052,8.473c0,5.147 3.553,8.473 9.052,8.473c5.424,0 8.929,-3.326 8.929,-8.473c-0.001,-5.227 -3.422,-8.473 -8.929,-8.473zM48.743,64.996c-5.413,0 -10.946,-1.148 -10.946,-9.663c0,-9.137 6.028,-13.795 10.872,-17.538c3.375,-2.608 6.041,-4.668 6.041,-7.418c0,-2.738 -2.545,-4.65 -6.188,-4.65c-2.993,0 -5.524,1.249 -7.973,2.456c-2.124,1.048 -4.13,2.038 -6.22,2.038c-4.696,0 -9.306,-4.843 -9.306,-9.778c0,-7.666 10.255,-13.446 23.854,-13.446c16.343,0 26.1,8.342 26.1,22.316c0,9.674 -4.562,13.297 -8.586,16.494c-3.44,2.733 -6.411,5.093 -7.155,10.9c-0.046,0.351 -0.08,0.698 -0.113,1.038c-0.405,4.108 -1.426,7.251 -10.38,7.251zM48.521,22.728c5.324,0 9.188,3.217 9.188,7.65c0,4.223 -3.501,6.928 -7.207,9.792c-4.549,3.516 -9.706,7.5 -9.706,15.164c0,5.106 1.856,6.663 7.946,6.663c6.946,0 7.105,-1.614 7.394,-4.545c0.036,-0.37 0.073,-0.747 0.123,-1.127c0.898,-7.015 4.812,-10.123 8.266,-12.866c3.998,-3.176 7.451,-5.919 7.451,-14.145c0,-12.275 -8.42,-19.316 -23.1,-19.316c-11.499,0 -20.854,4.686 -20.854,10.446c0,3.294 3.241,6.778 6.306,6.778c1.39,0 3.013,-0.801 4.893,-1.728c2.629,-1.297 5.607,-2.766 9.3,-2.766z" fill="#40396e" stroke="none" stroke-width="1" stroke-linecap="butt" stroke-linejoin="miter"></path><path d="M49.058,90.967c-7.209,0 -12.052,-4.611 -12.052,-11.473c0,-6.862 4.843,-11.473 12.052,-11.473c7.135,0 11.929,4.611 11.929,11.473c-0.001,6.755 -4.906,11.473 -11.929,11.473zM49.058,71.021c-5.499,0 -9.052,3.326 -9.052,8.473c0,5.147 3.553,8.473 9.052,8.473c5.424,0 8.929,-3.326 8.929,-8.473c-0.001,-5.227 -3.422,-8.473 -8.929,-8.473zM48.743,64.996c-5.413,0 -10.946,-1.148 -10.946,-9.663c0,-9.137 6.028,-13.795 10.872,-17.538c3.375,-2.608 6.041,-4.668 6.041,-7.418c0,-2.738 -2.545,-4.65 -6.188,-4.65c-2.993,0 -5.524,1.249 -7.973,2.456c-2.124,1.048 -4.13,2.038 -6.22,2.038c-4.696,0 -9.306,-4.843 -9.306,-9.778c0,-7.666 10.255,-13.446 23.854,-13.446c16.343,0 26.1,8.342 26.1,22.316c0,9.674 -4.562,13.297 -8.586,16.494c-3.44,2.733 -6.411,5.093 -7.155,10.9c-0.046,0.351 -0.08,0.698 -0.113,1.038c-0.405,4.108 -1.426,7.251 -10.38,7.251zM48.521,22.728c5.324,0 9.188,3.217 9.188,7.65c0,4.223 -3.501,6.928 -7.207,9.792c-4.549,3.516 -9.706,7.5 -9.706,15.164c0,5.106 1.856,6.663 7.946,6.663c6.946,0 7.105,-1.614 7.394,-4.545c0.036,-0.37 0.073,-0.747 0.123,-1.127c0.898,-7.015 4.812,-10.123 8.266,-12.866c3.998,-3.176 7.451,-5.919 7.451,-14.145c0,-12.275 -8.42,-19.316 -23.1,-19.316c-11.499,0 -20.854,4.686 -20.854,10.446c0,3.294 3.241,6.778 6.306,6.778c1.39,0 3.013,-0.801 4.893,-1.728c2.629,-1.297 5.607,-2.766 9.3,-2.766z" fill="#40396e" stroke="none" stroke-width="1" stroke-linecap="butt" stroke-linejoin="miter"></path><g fill="#40396e" stroke="none" stroke-width="1" stroke-linecap="butt" stroke-linejoin="miter"><path d="M49.058,90.967c-7.209,0 -12.052,-4.611 -12.052,-11.473c0,-6.862 4.843,-11.473 12.052,-11.473c7.135,0 11.929,4.611 11.929,11.473c-0.001,6.755 -4.906,11.473 -11.929,11.473zM49.058,71.021c-5.499,0 -9.052,3.326 -9.052,8.473c0,5.147 3.553,8.473 9.052,8.473c5.424,0 8.929,-3.326 8.929,-8.473c-0.001,-5.227 -3.422,-8.473 -8.929,-8.473zM48.743,64.996c-5.413,0 -10.946,-1.148 -10.946,-9.663c0,-9.137 6.028,-13.795 10.872,-17.538c3.375,-2.608 6.041,-4.668 6.041,-7.418c0,-2.738 -2.545,-4.65 -6.188,-4.65c-2.993,0 -5.524,1.249 -7.973,2.456c-2.124,1.048 -4.13,2.038 -6.22,2.038c-4.696,0 -9.306,-4.843 -9.306,-9.778c0,-7.666 10.255,-13.446 23.854,-13.446c16.343,0 26.1,8.342 26.1,22.316c0,9.674 -4.562,13.297 -8.586,16.494c-3.44,2.733 -6.411,5.093 -7.155,10.9c-0.046,0.351 -0.08,0.698 -0.113,1.038c-0.405,4.108 -1.426,7.251 -10.38,7.251zM48.521,22.728c5.324,0 9.188,3.217 9.188,7.65c0,4.223 -3.501,6.928 -7.207,9.792c-4.549,3.516 -9.706,7.5 -9.706,15.164c0,5.106 1.856,6.663 7.946,6.663c6.946,0 7.105,-1.614 7.394,-4.545c0.036,-0.37 0.073,-0.747 0.123,-1.127c0.898,-7.015 4.812,-10.123 8.266,-12.866c3.998,-3.176 7.451,-5.919 7.451,-14.145c0,-12.275 -8.42,-19.316 -23.1,-19.316c-11.499,0 -20.854,4.686 -20.854,10.446c0,3.294 3.241,6.778 6.306,6.778c1.39,0 3.013,-0.801 4.893,-1.728c2.629,-1.297 5.607,-2.766 9.3,-2.766z"></path></g></g></g></svg>