<svg height="180" preserveAspectRatio="xMidYMid" viewBox="0 0 256 180" width="256" xmlns="http://www.w3.org/2000/svg" xmlns:xlink="http://www.w3.org/1999/xlink"><linearGradient id="a" x1="49.980476%" x2="49.980476%" y1=".000001%" y2="100.030167%"><stop offset="0" stop-color="#e52d27"/><stop offset="1" stop-color="#bf171d"/></linearGradient><path d="m101.6 123.2 69.2-35.8-69.2-36.1z" fill="#fff"/><path d="m101.6 51.3 60.7 40.5 8.5-4.4z" fill="#420000" opacity=".12"/><path d="m253.301054 38.8s-2.499024-17.6-10.196017-25.4c-9.696212-10.2-20.591956-10.2-25.689965-10.8-35.68606-2.6-89.365092-2.6-89.365092-2.6h-.09996s-53.6790321 0-89.5650141 2.6c-4.9980477.6-15.8937915.6-25.6899649 10.8-7.59703241 7.8-10.09605623 25.4-10.09605623 25.4s-2.59898477 20.8-2.59898477 41.5v19.4c0 20.7 2.59898477 41.4 2.59898477 41.4s2.49902382 17.6 10.19601723 25.4c9.6962124 10.2 22.4912143 9.9 28.1889886 10.9 20.4919953 2 86.9660294 2.6 86.9660294 2.6s53.778992-.1 89.565013-2.7c4.998048-.6 15.893792-.6 25.689965-10.8 7.696993-7.8 10.196017-25.4 10.196017-25.4s2.598985-20.7 2.598985-41.4v-19.4c-.099961-20.7-2.698946-41.5-2.698946-41.5zm-151.740726 84.4v-71.9l69.172979 36.1z" fill="url(#a)"/></svg>