<svg xmlns="http://www.w3.org/2000/svg"  viewBox="0 0 100 100" width="100px" height="100px"><circle cx="52" cy="52" r="44" fill="#1d1d1b" opacity=".35"/><circle cx="50" cy="50" r="44" fill="#f2f2f2"/><circle cx="50" cy="50" r="37.5" fill="#ffe385"/><circle cx="50" cy="50" r="30" fill="#ffc571"/><path fill="#fff" d="M50.4,69c-0.694,0-1.268-0.234-1.721-0.701S48,67.266,48,66.6V64.24	c-1.547-0.107-2.914-0.354-4.1-0.74c-1.188-0.387-2.194-0.793-3.021-1.221c-0.747-0.373-1.214-0.9-1.399-1.58	c-0.188-0.68-0.154-1.332,0.1-1.959c0.253-0.627,0.68-1.08,1.28-1.361c0.6-0.279,1.313-0.219,2.14,0.18	c0.64,0.348,1.533,0.701,2.68,1.061c1.146,0.361,2.547,0.541,4.2,0.541c1.84,0,3.146-0.293,3.92-0.881	c0.773-0.586,1.16-1.32,1.16-2.199c0-0.721-0.267-1.32-0.8-1.801c-0.534-0.48-1.494-0.865-2.88-1.16l-4.4-0.959	c-4.854-1.066-7.28-3.654-7.28-7.76c0-2.24,0.761-4.135,2.28-5.682c1.521-1.545,3.561-2.52,6.12-2.92v-2.52	c0-0.666,0.227-1.232,0.68-1.699s1.026-0.701,1.721-0.701c0.666,0,1.226,0.234,1.68,0.701c0.453,0.467,0.68,1.033,0.68,1.699v2.4	c0.986,0.133,2.007,0.373,3.061,0.721c1.053,0.346,1.979,0.799,2.779,1.359c0.641,0.4,1.033,0.914,1.181,1.539	c0.146,0.627,0.086,1.221-0.181,1.781c-0.267,0.559-0.699,0.953-1.3,1.18c-0.6,0.227-1.327,0.127-2.18-0.301	c-0.72-0.346-1.507-0.639-2.36-0.879s-1.906-0.361-3.16-0.361c-1.547,0-2.76,0.32-3.64,0.961s-1.32,1.467-1.32,2.48	c0,0.719,0.261,1.313,0.78,1.779c0.521,0.467,1.434,0.848,2.74,1.141l4.439,0.959c2.533,0.561,4.406,1.475,5.62,2.74	c1.214,1.268,1.82,2.887,1.82,4.859c0,2.268-0.767,4.135-2.3,5.602c-1.534,1.467-3.527,2.412-5.98,2.84v2.52	c0,0.666-0.227,1.232-0.68,1.699C51.626,68.766,51.066,69,50.4,69z"/><path fill="#40396e" d="M50,89c-21.505,0-39-17.495-39-39s17.495-39,39-39s39,17.495,39,39S71.505,89,50,89z M50,14	c-19.851,0-36,16.149-36,36s16.149,36,36,36s36-16.149,36-36S69.851,14,50,14z"/></svg>