<svg xmlns="http://www.w3.org/2000/svg" xmlns:xlink="http://www.w3.org/1999/xlink" viewBox="0,0,256,256" width="32px" height="32px" fill-rule="nonzero"><g fill="#000000" fill-rule="nonzero" stroke="none" stroke-width="1" stroke-linecap="butt" stroke-linejoin="miter" stroke-miterlimit="10" stroke-dasharray="" stroke-dashoffset="0" font-family="none" font-weight="none" font-size="none" text-anchor="none" style="mix-blend-mode: normal"><g transform="translate(8,-11.46875) scale(16,16)"><path d="M2.5,2c-0.82422,0 -1.5,0.67578 -1.5,1.5v8c0,0.82422 0.67578,1.5 1.5,1.5h1.5v2.43359l3.65234,-2.43359h4.84766c0.82422,0 1.5,-0.67578 1.5,-1.5v-8c0,-0.82422 -0.67578,-1.5 -1.5,-1.5zM2.5,3h10c0.28125,0 0.5,0.21875 0.5,0.5v8c0,0.28125 -0.21875,0.5 -0.5,0.5h-5.15234l-2.34766,1.56641v-1.56641h-2.5c-0.28125,0 -0.5,-0.21875 -0.5,-0.5v-8c0,-0.28125 0.21875,-0.5 0.5,-0.5z"></path></g></g></svg>