<?xml version="1.0" standalone="no"?>
<!DOCTYPE svg PUBLIC "-//W3C//DTD SVG 20010904//EN"
 "http://www.w3.org/TR/2001/REC-SVG-20010904/DTD/svg10.dtd">
<svg version="1.0" xmlns="http://www.w3.org/2000/svg"
 width="710.000000pt" height="710.000000pt" viewBox="0 0 710.000000 710.000000"
 preserveAspectRatio="xMidYMid meet">

<g transform="translate(0.000000,710.000000) scale(0.100000,-0.100000)"
fill="#000000" stroke="none">
<path d="M3500 7083 c-728 -32 -1386 -241 -1945 -617 -769 -517 -1273 -1340
-1387 -2266 -20 -161 -16 -644 6 -795 44 -306 121 -565 237 -804 l69 -144 -6
-106 c-12 -192 23 -413 92 -579 133 -323 409 -588 727 -701 157 -55 265 -73
452 -76 168 -2 171 -3 240 -34 168 -77 393 -128 608 -138 l129 -6 -7 -81 c-13
-171 -60 -346 -127 -480 -46 -91 -51 -138 -18 -190 36 -58 54 -66 157 -66 l92
0 36 35 c44 44 73 102 119 235 49 140 86 329 94 478 l7 123 97 38 c167 66 288
142 411 260 98 93 152 169 211 292 126 261 108 477 -43 528 -56 18 -101 -1
-185 -79 -41 -38 -88 -76 -106 -85 -43 -22 -175 -55 -222 -55 l-38 0 0 108 c0
60 -2 111 -5 114 -3 3 -31 -1 -63 -8 -85 -20 -235 -18 -326 6 -314 80 -536
370 -536 699 0 167 48 295 151 406 111 118 228 173 389 182 108 6 225 -13 322
-52 l58 -24 -1 112 c-1 62 -4 139 -8 172 l-6 59 -87 28 c-209 66 -403 59 -619
-23 -156 -60 -292 -173 -391 -324 -188 -289 -206 -650 -48 -981 28 -58 40 -96
40 -127 0 -131 126 -322 296 -450 144 -109 310 -180 515 -224 92 -19 358 -25
459 -10 l54 8 -19 -22 c-65 -72 -293 -192 -435 -229 -106 -27 -336 -38 -461
-21 -176 23 -383 102 -513 195 -70 50 -196 178 -245 250 -52 75 -118 215 -140
297 -26 94 -43 257 -35 330 8 70 -7 120 -47 154 -70 58 -165 14 -190 -88 -21
-82 -18 -410 4 -520 31 -153 96 -307 163 -387 15 -17 24 -33 22 -36 -3 -3 -28
4 -57 15 -373 148 -598 436 -627 806 -8 101 16 275 56 399 16 50 65 170 108
266 132 293 177 449 203 705 11 108 10 123 -5 153 -21 40 -70 72 -113 72 -42
0 -99 -49 -109 -93 -25 -114 -123 -367 -213 -545 -70 -140 -94 -182 -103 -182
-13 0 -70 165 -94 270 -43 186 -57 328 -57 570 -1 239 9 347 50 550 176 876
709 1582 1528 2023 657 354 1499 464 2301 302 228 -46 461 -138 625 -248 196
-130 365 -328 479 -562 298 -608 184 -1393 -271 -1879 -75 -80 -238 -221 -246
-212 -2 1 17 45 41 97 142 306 203 575 213 954 7 243 -6 421 -43 605 -37 186
-65 230 -145 230 -32 0 -88 -45 -90 -72 0 -7 -2 -94 -3 -193 -4 -236 -27 -359
-108 -585 -87 -244 -294 -546 -501 -733 -200 -182 -329 -268 -595 -398 -167
-81 -206 -104 -222 -131 -33 -54 -35 -92 -9 -145 51 -100 118 -114 285 -59
267 89 548 265 783 490 l85 81 -29 -50 c-65 -114 -127 -199 -277 -381 -47 -57
-56 -100 -33 -160 32 -83 106 -102 267 -69 192 41 398 130 579 251 215 144
351 289 519 554 l35 55 6 -75 c4 -41 7 -181 8 -310 1 -146 7 -271 16 -330 43
-290 210 -517 431 -587 l52 -16 -5 -81 c-14 -266 -69 -556 -140 -745 -99 -265
-293 -486 -528 -604 -81 -40 -283 -105 -382 -122 -267 -45 -631 -37 -825 20
-26 8 -49 11 -52 7 -2 -4 -9 -65 -16 -135 -16 -157 -8 -459 15 -605 33 -208
103 -406 173 -484 l44 -48 85 0 c92 0 123 11 157 57 37 50 33 94 -17 202 -75
158 -117 350 -117 531 l0 75 193 0 c205 1 333 16 522 60 462 109 817 393 1024
819 119 244 196 603 208 966 9 267 2 281 -170 364 -139 67 -210 128 -260 223
-39 75 -67 179 -67 251 0 47 1 48 69 100 91 69 243 229 308 324 119 173 209
405 239 617 32 230 3 508 -76 737 -136 391 -440 792 -817 1075 -466 351 -1019
574 -1619 654 -102 14 -520 37 -579 33 -11 -1 -49 -3 -85 -5z m2477 -1348
c178 -221 306 -475 353 -706 19 -89 21 -126 17 -264 -6 -198 -32 -309 -111
-471 -47 -96 -163 -270 -173 -261 -2 2 -8 80 -13 173 -11 211 -33 373 -69 535
-28 120 -29 130 -19 250 17 221 -17 500 -93 744 -17 55 -40 117 -50 137 -10
20 -19 41 -19 45 0 13 110 -100 177 -182z"/>
</g>
</svg>
