<svg xmlns="http://www.w3.org/2000/svg"  viewBox="0 0 48 48" width="48px" height="48px"><path d="M 24 4 C 12.972066 4 4 12.972074 4 24 C 4 35.027926 12.972066 44 24 44 C 35.027934 44 44 35.027926 44 24 C 44 12.972074 35.027934 4 24 4 z M 24 7 C 33.406615 7 41 14.593391 41 24 C 41 33.406609 33.406615 41 24 41 C 14.593385 41 7 33.406609 7 24 C 7 14.593391 14.593385 7 24 7 z M 16.691406 14.048828 C 14.778133 14.110094 13 15.666635 13 17.763672 L 13 25.320312 C 13 31.134858 17.399652 36.242882 23.269531 36.623047 C 29.643315 37.0366 35 31.945593 35 25.646484 L 35 17.763672 C 35 14.966882 31.839561 13.133438 29.412109 14.521484 A 1.50015 1.50015 0 0 0 29.048828 14.810547 L 26.132812 18 L 21.867188 18 L 18.951172 14.810547 A 1.50015 1.50015 0 0 0 18.587891 14.521484 C 17.980808 14.174347 17.329164 14.028406 16.691406 14.048828 z M 31.353516 17.027344 C 31.465244 17.018631 31.569369 17.034434 31.658203 17.085938 C 31.863988 17.205243 32 17.445067 32 17.763672 L 32 25.646484 C 32 30.259376 28.15706 33.933353 23.464844 33.628906 C 19.236723 33.355071 16 29.625767 16 25.320312 L 16 17.763672 C 16 17.173147 16.485091 16.904909 16.996094 17.119141 L 20.099609 20.511719 A 1.50015 1.50015 0 0 0 21.205078 21 L 26.794922 21 A 1.50015 1.50015 0 0 0 27.900391 20.511719 L 31.003906 17.119141 C 31.122457 17.069286 31.241787 17.036056 31.353516 17.027344 z M 19.521484 24.136719 A 2 1 9.724 0 0 18.029297 24.839844 A 2 1 9.724 1 0 21.970703 25.515625 A 2 1 9.724 0 0 19.521484 24.136719 z M 28.341797 24.148438 A 1 2 82.161 0 0 27.863281 24.185547 A 1 2 82.161 1 0 28.136719 26.166016 A 1 2 82.161 0 0 28.341797 24.148438 z"/></svg>