<svg xmlns="http://www.w3.org/2000/svg"  viewBox="0 0 48 48" width="48px" height="48px"><path d="M 31.423828 3.0019531 A 1.50015 1.50015 0 0 0 30.251953 3.6679688 L 26.251953 9.6679688 A 1.50015 1.50015 0 0 0 26.107422 9.9433594 L 22.484375 19 L 15.5 19 C 11.952008 19 8.4742449 19.997895 5.4648438 21.878906 L 3.8085938 22.914062 C 1.9457952 24.077887 1.5715659 26.710793 3.0371094 28.347656 C 4.0852046 29.519057 5.7903518 29.87193 7.2167969 29.210938 L 8 28.847656 L 8 40.5 C 8 42.967501 10.032499 45 12.5 45 C 14.967501 45 17 42.967501 17 40.5 L 17 36.730469 L 20.375 36.054688 L 27 38.539062 L 27 40.5 C 27 42.967501 29.032499 45 31.5 45 C 33.967501 45 36 42.967501 36 40.5 L 36 35.117188 C 36.556208 34.588158 37.495257 33.613003 38.341797 31.919922 C 39.43275 29.738015 39.895978 26.505462 38.025391 23.251953 C 38.298153 23.166753 38.819387 22.970016 38.832031 22.966797 L 41.222656 22.566406 C 43.956809 22.11093 46.11093 19.956809 46.566406 17.222656 L 46.650391 16.720703 L 46.650391 16.71875 C 46.964608 14.830112 45.661353 13.006636 43.773438 12.691406 L 40.386719 12.126953 L 40.529297 12.339844 C 39.139885 10.254516 36.795063 9 34.289062 9 L 34.582031 9 L 32.923828 4.0253906 A 1.50015 1.50015 0 0 0 31.423828 3.0019531 z M 31.046875 7.8847656 L 32.076172 10.974609 A 1.50015 1.50015 0 0 0 33.5 12 L 34.289062 12 C 35.795063 12 37.19862 12.751281 38.033203 14.003906 A 1.50015 1.50015 0 0 0 38.033203 14.005859 L 38.251953 14.332031 A 1.50015 1.50015 0 0 0 39.253906 14.980469 L 43.279297 15.650391 C 43.570716 15.699051 43.739937 15.935913 43.691406 16.226562 L 43.607422 16.730469 C 43.360898 18.210316 42.210316 19.360898 40.730469 19.607422 L 38.253906 20.019531 A 1.50015 1.50015 0 0 0 38.136719 20.044922 C 38.136719 20.044922 37.022515 20.320288 35.765625 20.878906 C 34.508735 21.437524 32.971253 22.203979 32.158203 23.830078 A 1.50015 1.50015 0 1 0 34.841797 25.169922 C 34.894817 25.063891 35.288455 24.879626 35.449219 24.730469 C 36.839154 27.086805 36.455434 28.985616 35.658203 30.580078 C 34.814728 32.267029 33.539063 33.347656 33.539062 33.347656 A 1.50015 1.50015 0 0 0 33 34.5 L 33 40.5 C 33 41.346499 32.346499 42 31.5 42 C 30.653501 42 30 41.346499 30 40.5 L 30 37.5 A 1.50015 1.50015 0 0 0 29.027344 36.095703 L 21.027344 33.095703 A 1.50015 1.50015 0 0 0 20.205078 33.029297 L 15.205078 34.029297 A 1.50015 1.50015 0 0 0 14 35.5 L 14 40.5 C 14 41.346499 13.346499 42 12.5 42 C 11.653501 42 11 41.346499 11 40.5 L 11 26.5 A 1.50015 1.50015 0 0 0 8.8691406 25.138672 L 5.9570312 26.488281 C 5.7174764 26.599288 5.4473891 26.544256 5.2714844 26.347656 C 5.0090279 26.054519 5.065236 25.667159 5.3984375 25.458984 A 1.50015 1.50015 0 0 0 5.3984375 25.457031 L 7.0546875 24.421875 C 9.5872862 22.838934 12.513992 22 15.5 22 L 23.5 22 A 1.50015 1.50015 0 0 0 24.892578 21.056641 L 28.833984 11.201172 L 31.046875 7.8847656 z M 34.5 14 A 1.5 1.5 0 0 0 34.5 17 A 1.5 1.5 0 0 0 34.5 14 z"/></svg>