<?xml version="1.0" encoding="iso-8859-1"?><!-- Generator: Adobe Illustrator 22.1.0, SVG Export Plug-In . SVG Version: 6.00 Build 0)  --><svg xmlns="http://www.w3.org/2000/svg" xmlns:xlink="http://www.w3.org/1999/xlink" viewBox="0 0 24 24" width="48px" height="48px"><g id="Outlined"><line style="fill:none;stroke:#000000;stroke-width:2;stroke-miterlimit:10;" x1="11" y1="16" x2="17" y2="16"/><line style="fill:none;stroke:#000000;stroke-width:2;stroke-miterlimit:10;" x1="7" y1="16" x2="9" y2="16"/><line style="fill:none;stroke:#000000;stroke-width:2;stroke-miterlimit:10;" x1="11" y1="12" x2="17" y2="12"/><line style="fill:none;stroke:#000000;stroke-width:2;stroke-miterlimit:10;" x1="7" y1="12" x2="9" y2="12"/><line style="fill:none;stroke:#000000;stroke-width:2;stroke-miterlimit:10;" x1="11" y1="8" x2="17" y2="8"/><line style="fill:none;stroke:#000000;stroke-width:2;stroke-miterlimit:10;" x1="7" y1="8" x2="9" y2="8"/><path style="fill:none;stroke:#000000;stroke-width:2;stroke-miterlimit:10;" d="M5,20h5.45L12,21.58L13.55,20H19c0.552,0,1-0.448,1-1V5c0-0.552-0.448-1-1-1H5C4.448,4,4,4.448,4,5v14C4,19.552,4.448,20,5,20z"/></g></svg>