<svg xmlns="http://www.w3.org/2000/svg"  viewBox="0 0 48 48" width="48px" height="48px"><path d="M 23.5 6 C 17.814884 6 12.731287 8.6575283 9.4375 12.785156 A 2.0002 2.0002 0 1 0 12.5625 15.279297 C 15.130713 12.060925 19.057116 10 23.5 10 C 30.581147 10 36.38613 15.209527 37.345703 22.017578 L 36.414062 21.085938 A 2.0002 2.0002 0 0 0 34.978516 20.480469 A 2.0002 2.0002 0 0 0 33.585938 23.914062 L 38.085938 28.414062 A 2.0002 2.0002 0 0 0 40.914062 28.414062 L 45.414062 23.914062 A 2.0002 2.0002 0 1 0 42.585938 21.085938 L 41.412109 22.259766 C 40.531872 13.154752 32.830228 6 23.5 6 z M 8.4707031 19 A 2.0002 2.0002 0 0 0 7.0859375 19.585938 L 2.5859375 24.085938 A 2.0002 2.0002 0 1 0 5.4140625 26.914062 L 6.5917969 25.736328 C 7.4981543 34.814649 15.188913 41.939453 24.5 41.939453 C 30.168529 41.939453 35.241107 39.298011 38.535156 35.191406 A 2.0002 2.0002 0 1 0 35.414062 32.689453 C 32.846112 35.890849 28.929471 37.939453 24.5 37.939453 C 17.444049 37.939453 11.656598 32.766548 10.666016 25.994141 L 11.585938 26.914062 A 2.0002 2.0002 0 1 0 14.414062 24.085938 L 9.9140625 19.585938 A 2.0002 2.0002 0 0 0 8.4707031 19 z"/></svg>