<svg xmlns="http://www.w3.org/2000/svg" xmlns:xlink="http://www.w3.org/1999/xlink" viewBox="0,0,256,256" width="48px" height="48px" fill-rule="nonzero"><g transform="translate(-16.64,-16.64) scale(1.13,1.13)"><g fill="none" fill-rule="nonzero" stroke="none" stroke-width="1" stroke-linecap="butt" stroke-linejoin="miter" stroke-miterlimit="10" stroke-dasharray="" stroke-dashoffset="0" font-family="none" font-weight="none" font-size="none" text-anchor="none" style="mix-blend-mode: normal"><g transform="translate(-2.37452,-3.2) scale(5.33333,5.33333)"><path d="M44.3,24c0,10.8 -9.3,20.2 -20.3,20.2c-11,0 -19.6,-9.4 -19.6,-20.2c0,-10.8 8.9,-19.6 20,-19.6c11.1,0 19.9,8.8 19.9,19.6z" fill="#febf10"></path><path d="M33.4,6l2.7,2.3c1.7,0.3 3.5,0.4 3.5,0.8c0,1.2 -7.1,1.5 -15.5,1.5c-8.4,0 -15.3,0.3 -15.3,-2.2c0,-0.6 2.2,-0.5 5.3,-0.9l2.8,-2c-7.4,0.5 -12.6,1.9 -12.6,3.5c0,2.1 9,3.9 20,3.9c11.1,0 20,-1.7 20,-3.9c0,-1.4 -5,-2.4 -10.9,-3z" fill="#9fdadf"></path><path d="M24.1,36.4c-0.2,0 -0.4,0 -0.6,0c-2.2,-0.3 -3,-2.5 -3.6,-4.1l-0.1,-0.2c-0.1,-0.3 0,-0.5 0.3,-0.6c0.3,-0.1 0.5,0 0.6,0.3l0.1,0.2c0.6,1.5 1.2,3.2 2.8,3.5c0.8,0.1 1.7,-0.1 2.2,-0.5c0.6,-0.5 0.9,-1.2 1.1,-2.1c0.1,-0.4 0.1,-0.7 0.1,-1.1c0,-0.3 0.2,-0.5 0.5,-0.5c0.2,0 0.5,0.2 0.5,0.5c0,0.4 0,0.9 -0.1,1.3c-0.2,1.2 -0.7,2.1 -1.5,2.7c-0.5,0.3 -1.4,0.6 -2.3,0.6z" fill="#010101"></path><path d="M42,14.2c-0.5,-0.7 -0.9,-1.4 -1.4,-2.1c0.4,-0.1 0.7,-0.2 1.1,-0.4c0.9,-0.4 2.1,-0.8 2.7,-1.7c0.3,-0.5 0.4,-1.1 0.2,-1.6c-0.1,-0.3 -0.4,-0.5 -0.6,-0.7c-1.8,-1.6 -4.2,-1.8 -6.3,-1.9c-1.7,0 -3.3,-0.1 -4.5,-0.2c-0.1,0 -0.2,0 -0.2,0.1c-0.4,-0.2 -0.8,-0.4 -1.2,-0.5c-1.2,-0.4 -2.5,-0.7 -4.2,-1c-0.7,-0.1 -1.1,-0.2 -1.8,-0.2c-0.5,0 -1.3,0 -2,0h-0.1c-0.1,0 -0.2,0 -0.3,0c-0.1,0 -0.2,0 -0.3,0v0c-0.6,0 -1.2,0 -1.6,0.1l-0.2,0.1c-1.1,0.3 -2.1,0.5 -3.2,0.8c-1.7,0.1 -3.8,0.2 -4.4,0.3l-3.5,0.4c-0.3,0 -0.6,0.1 -0.8,0.1c-1.5,0.1 -3.1,0.3 -4.4,1c-0.8,0.4 -1.5,1.2 -1.4,2.2c0.1,0.9 0.9,1.4 1.4,1.8c0.9,0.5 1.8,1 2.9,1.3c-0.7,0.9 -1.3,1.8 -1.8,2.8c-2.9,5.5 -3.1,12.3 -0.5,18c2.6,5.6 7.9,10 13.9,11.4c1.5,0.4 3.1,0.5 4.7,0.5c2.6,0 5.3,-0.5 7.7,-1.5c3.8,-1.6 7.2,-4.5 9.8,-8.3c2.4,-3.5 3.6,-7.1 3.6,-10.6c0,-3.2 -1.2,-6.7 -3.3,-10.2zM21.5,5.1l0.2,-0.1c0.3,-0.1 0.8,-0.1 1.4,-0.1c0.2,0 0.3,0 0.6,0c0.3,0 0.5,0 0.8,0h0.4c0,0 0,0 0.1,0c0.3,0 0.6,0 0.7,0c0.5,0.1 0.9,0.1 1.6,0.2c1.6,0.2 2.8,0.5 4,0.9c1.9,0.7 3.8,1.8 5.5,3.4c-1.2,0.2 -2.4,0.2 -3.5,0.3c-4.2,0.2 -8.3,0.2 -12.4,0.2h-8.1c-0.5,0 -0.9,0 -1.3,-0.1c1.3,-1.1 2.7,-2.1 4.3,-2.9c1.7,-0.9 3.7,-1.3 5.7,-1.8zM10.2,9.5c-0.4,-0.1 -0.7,-0.3 -0.9,-0.5c-0.1,-0.1 -0.1,-0.2 -0.1,-0.3c0,-0.2 0.5,-0.4 0.8,-0.5c0.4,-0.1 0.8,-0.1 1.2,-0.1h0.2c0.2,0 0.4,0 0.5,0c-0.6,0.5 -1.1,0.9 -1.7,1.4zM4.6,8.9c0,-0.5 0.4,-1 0.8,-1.2c1.2,-0.6 2.7,-0.8 4.1,-0.9c0.3,0 0.6,-0.1 0.9,-0.1l3.5,-0.4c0.2,0 0.7,-0.1 1.3,-0.1c-0.7,0.4 -1.4,0.8 -2.1,1.2v0c-0.6,-0.2 -1.1,-0.2 -1.6,-0.2h-0.2c-0.5,0 -0.9,0 -1.4,0.1c-1.1,0.2 -1.6,0.6 -1.7,1.3c0,0.4 0.1,0.8 0.4,1.1c0.3,0.4 0.9,0.6 1.5,0.8c0.9,0.3 1.8,0.3 2.6,0.3h8.2c1.3,0 2.5,0 3.8,0c2.8,0 5.7,0 8.5,-0.2c1.9,-0.1 4,-0.2 5.9,-0.7c0.1,0 0.4,-0.1 0.6,-0.3c0.3,-0.2 0.4,-0.6 0.3,-0.9c-0.1,-0.3 -0.3,-0.4 -0.4,-0.5c-1.3,-0.9 -3,-1.1 -4,-1.1c-0.3,-0.2 -0.6,-0.4 -0.8,-0.6c0.9,0 1.8,0.1 2.8,0.1c2,0 4.1,0.2 5.7,1.6c0.1,0.1 0.2,0.2 0.3,0.4c0.1,0.2 0,0.5 -0.1,0.7c-0.4,0.6 -1.4,1 -2.2,1.4c-1,0.4 -2,0.7 -2.9,0.9c-1.6,0.4 -3.3,0.6 -5.3,0.7c-2.2,0.1 -4.5,0.1 -6.7,0c-1,0 -2,0 -3.1,0c-3.2,0 -6.8,-0.1 -10.4,-0.3c-3.1,-0.2 -5.4,-0.9 -7.3,-2c-0.6,-0.4 -0.9,-0.8 -1,-1.1zM37.1,8.5c0.6,0.1 1.2,0.3 1.8,0.6c-0.3,0.1 -0.6,0.1 -0.9,0.2c-0.3,-0.3 -0.6,-0.6 -0.9,-0.8zM40.8,34.5c-2.5,3.7 -5.7,6.4 -9.4,7.9c-3.7,1.5 -7.8,1.9 -11.8,0.9c-5.6,-1.3 -10.7,-5.5 -13.1,-10.8c-2.4,-5.4 -2.3,-11.9 0.5,-17.1c0.5,-1 1.2,-2 2,-3c1.1,0.3 2.4,0.5 3.8,0.6c3.7,0.3 7.3,0.3 10.5,0.3c1,0 2,0 3,0c1.2,0 2.3,0 3.5,0c1.1,0 2.2,0 3.3,-0.1c2,-0.1 3.8,-0.3 5.4,-0.7c0.3,-0.1 0.6,-0.1 0.9,-0.2c0.6,0.7 1.1,1.5 1.6,2.3c2.1,3.4 3.1,6.6 3.2,9.7c0.1,4.3 -1.8,7.9 -3.4,10.2z" fill="#010101"></path><path d="M17.1,23.2v0c-0.3,0 -0.6,-0.2 -0.7,-0.5c0,-0.2 0,-0.3 0,-0.5c0,-0.5 0.3,-0.6 0.4,-0.7c0.3,-0.1 0.5,0 0.7,0.2c0.3,0.3 0.3,0.8 0.2,1c0,0.3 -0.3,0.5 -0.6,0.5z" fill="#010101"></path><path d="M30.9,23.2c-0.3,0 -0.6,-0.2 -0.7,-0.5c-0.1,-0.3 -0.1,-0.8 0.2,-1c0.2,-0.2 0.5,-0.3 0.7,-0.2c0.1,0 0.4,0.2 0.4,0.7c0,0.1 0,0.3 0,0.5c-0.1,0.3 -0.3,0.5 -0.6,0.5z" fill="#010101"></path></g></g></g></svg>