<svg xmlns="http://www.w3.org/2000/svg" xmlns:xlink="http://www.w3.org/1999/xlink" viewBox="0,0,256,256" width="48px" height="48px" fill-rule="nonzero"><g transform="translate(-15.36,-15.36) scale(1.12,1.12)"><g fill="none" fill-rule="nonzero" stroke="none" stroke-width="1" stroke-linecap="butt" stroke-linejoin="miter" stroke-miterlimit="10" stroke-dasharray="" stroke-dashoffset="0" font-family="none" font-weight="none" font-size="none" text-anchor="none" style="mix-blend-mode: normal"><g transform="translate(-9.08561,1.57341) scale(0.5,0.5)"><path d="M176.7,266.1c-9.8,-8.7 -24.8,-12.4 -37.5,-9c-14.1,3.7 -22.4,14.5 -22,29.2c0.1,3 -1.9,4.9 -4.1,5.5c5.2,15 20.6,24.1 36.9,25.4c11.6,0.9 26.1,-2.6 32.4,-13.4c6.9,-12.1 4.9,-28.4 -5.7,-37.7zM436,243.1c-10.3,-9.4 -26.2,-8.1 -37.8,-1.8c-13.1,7.2 -22.6,19.7 -23,34.8v0c0.4,8.7 3.3,17 10.5,22.3c6,4.3 13.9,5.7 21.1,5.2c12.8,-1 26.5,-7.5 33.2,-18.9c7.4,-12.3 7.2,-31.3 -4,-41.6z" fill="#f6851f"></path><path d="M477.9,181.3c-9.1,-23.4 -22.2,-45.4 -38.1,-64.9c-32,-39.3 -76.9,-71.1 -127.6,-79.8c-54.5,-9.5 -112.5,10.3 -156.4,42.4c-22.6,16.5 -42.9,36.8 -56.9,61.2c-8,13.9 -14.2,28.5 -19.2,43.6c-5.5,10 -9.4,21 -12.4,31.9c-2.9,10.5 -4.9,21.4 -5.9,32.3c-0.2,0.9 -0.5,1.9 -0.8,2.8c-0.2,0.6 -0.4,1.1 -0.7,1.5c-0.6,5.3 -1,10.6 -1,16.1c-0.1,17.9 2,35.9 6.3,53.2c10.9,44.2 34.1,87.9 71,115.7c21.7,16.3 47.4,24.6 74.1,27.7c29.3,3.5 59.6,2.4 88.7,-1.7c28.9,-4.1 58.1,-11.3 84.1,-24.9c23.3,-12.2 42.5,-29 58.5,-49.9c29.6,-38.8 47.4,-87.9 48.1,-136.8c0.3,-23.8 -3.1,-48 -11.8,-70.4zM195.6,300.6c-4.6,13.9 -15.8,23.2 -30,26.3c-29.4,6.4 -63.7,-11.6 -65.3,-43.8c-0.2,-4.2 3.6,-6.2 6.7,-5.7c2.7,-14.6 12.5,-26.5 27.8,-30.6c16.6,-4.4 36.3,-1 49.2,10.9c11.5,10.7 16.6,27.7 11.6,42.9zM212.6,222.5c-3.4,-9.3 -14.5,-15.3 -23.9,-16.4c-4.5,-0.5 -5.6,-0.1 -9.6,2.2c-1.5,0.9 -3,1.7 -4.4,2.8c1.2,3.7 -1.2,8.5 -5.9,7c-6.8,-2.1 -8.7,-8.6 -3.3,-13.7c2.5,-2.3 5.4,-4.1 8.4,-5.8c2.3,-1.2 5,-3.2 7.6,-3.5c16.3,-1.9 35.8,7.8 41.6,23.7c2.3,6.7 -8.1,10.3 -10.5,3.7zM306.6,343.2c-1.9,7.9 -5.1,16.2 -11.3,21.7c-7.6,6.7 -19.2,7 -27.7,1.7c-9.4,-5.9 -15.5,-15.1 -20.4,-24.9c-3.2,-6.2 5.9,-12.5 9.1,-6.2c3.4,6.8 7.3,14 13.2,19c4.7,3.9 12.3,7.1 17.8,2.8c4,-3.2 6.4,-8.7 7.8,-13.6c0.7,-2.4 1.2,-4.8 1.5,-7.2c0.2,-1.5 0.2,-0.6 0.1,-1.9c0,-0.2 0,-0.5 -0.1,-0.7c0.2,2 1.6,3.4 4,4.2c-6.7,-2.1 -4.7,-12.9 2.1,-10.8c6.9,2.1 5.2,10.6 3.9,15.9zM351.2,210.3c0,7.1 -11,7.9 -11,0.8v-6c0,-2.7 1.3,-4.4 3.7,-5.6c8.3,-4.1 18,-7.5 27.4,-6.1c9.1,1.3 16,6.7 21,14.2c3.9,5.9 -5.2,12.1 -9.1,6.2c-8,-12.2 -20.4,-10.6 -32,-5.6zM455.3,275.3c-2.9,15.2 -13.3,27.1 -27,33.8c-12.6,6.2 -28.1,7.9 -41.3,2.5c-13.1,-5.3 -20.6,-17.1 -22.4,-30.6c-0.2,-0.5 -0.3,-1.2 -0.4,-1.9c-0.6,-18.9 9.8,-36.5 26.2,-45.9c14.3,-8.2 33,-11.4 47.6,-2.2c14.4,9 20.4,28.1 17.3,44.3z" fill="#febf10"></path><path d="M490.5,185.9c-7.6,-23.5 -20.1,-45.7 -34.6,-65.6c-30,-41.1 -72.3,-74.1 -121.2,-89c-52.3,-16 -107.8,-4.2 -155.2,20.8c-31.2,16.4 -59.9,40 -80.4,68.8c-12.2,17.2 -21.1,36.3 -28,56.1c-0.3,0.3 -0.7,0.7 -1,1.1c-1.1,1.7 -2.1,3.5 -3.1,5.4c-2.9,5.3 -4.8,11.4 -6.7,17c-0.6,1.8 -1.7,4.4 -2.4,7.2c-0.4,0.6 -0.7,1.2 -0.9,2.1c-2.6,12.7 -5.8,25.3 -7.3,38.2c-1.3,11.1 -1.5,22.2 -1,33.4c1.1,23.1 6.1,46.2 13.8,68c15.1,42.7 42.6,82.7 82,106.1c24.2,14.4 53.2,19.8 81,21.4c29.4,1.7 59.1,-0.2 88,-5.3c28.3,-5 56,-13.6 81.2,-27.7c22.4,-12.5 40.8,-30.3 56.2,-50.7c29.4,-39.1 46.4,-87.4 48.7,-136.2c1.3,-24 -1.7,-48.2 -9.1,-71.1zM489.7,251.9c-0.7,48.9 -18.6,98 -48.1,136.8c-15.9,20.9 -35.2,37.7 -58.5,49.9c-26,13.6 -55.2,20.8 -84.1,24.9c-29.1,4.1 -59.5,5.1 -88.7,1.7c-26.8,-3.2 -52.5,-11.4 -74.1,-27.7c-37,-27.8 -60.2,-71.5 -71,-115.7c-4.3,-17.4 -6.3,-35.3 -6.3,-53.2c0,-5.4 0.4,-10.8 1,-16.1c0.3,-0.4 0.5,-0.9 0.7,-1.5c0.3,-0.9 0.6,-1.9 0.8,-2.8c1,-10.9 3,-21.8 5.9,-32.3c3,-10.9 6.9,-21.9 12.4,-31.9c5,-15.1 11.2,-29.7 19.2,-43.6c14,-24.3 34.3,-44.7 56.9,-61.2c44,-32.2 101.9,-52 156.5,-42.5c50.6,8.8 95.6,40.6 127.6,79.8c15.9,19.5 29,41.5 38.1,64.9c8.6,22.3 12,46.5 11.7,70.5z" fill="#010101"></path><path d="M222.9,218.9c-5.9,-15.8 -25.3,-25.6 -41.6,-23.7c-2.6,0.3 -5.3,2.2 -7.6,3.5c-3,1.6 -5.9,3.4 -8.4,5.8c-5.4,5 -3.4,11.5 3.3,13.7c4.7,1.5 7.1,-3.3 5.9,-7c1.4,-1 2.9,-1.9 4.4,-2.8c3.9,-2.3 5.1,-2.7 9.6,-2.2c9.4,1.1 20.5,7.1 23.9,16.4c2.6,6.5 13,2.9 10.5,-3.7zM392.3,207.6c-5,-7.5 -11.9,-12.9 -21,-14.2c-9.4,-1.4 -19,2 -27.4,6.1c-2.4,1.2 -3.7,2.9 -3.7,5.6v6c0,7.1 11,6.2 11,-0.8v-2.1c11.6,-5 23.9,-6.6 32,5.6c3.9,5.9 13,-0.3 9.1,-6.2zM302.8,327.3c-6.8,-2.1 -8.8,8.7 -2.1,10.8c-2.5,-0.7 -3.8,-2.1 -4,-4.2c0,0.2 0.1,0.5 0.1,0.7c0.1,1.2 0,0.4 -0.1,1.9c-0.3,2.4 -0.9,4.8 -1.5,7.2c-1.3,4.9 -3.7,10.4 -7.8,13.6c-5.5,4.4 -13.1,1.2 -17.8,-2.8c-5.9,-4.9 -9.8,-12.2 -13.2,-19c-3.2,-6.3 -12.3,-0.1 -9.1,6.2c4.9,9.8 11,19 20.4,24.9c8.5,5.4 20.1,5 27.7,-1.7c6.2,-5.5 9.4,-13.8 11.3,-21.7c1.2,-5.3 2.9,-13.8 -3.9,-15.9zM184,257.8c-12.9,-11.9 -32.6,-15.3 -49.2,-10.9c-15.3,4.1 -25.1,16 -27.8,30.6c-3.2,-0.5 -6.9,1.5 -6.7,5.7c1.7,32.2 36,50.2 65.3,43.8c14.3,-3.1 25.5,-12.4 30,-26.3c5,-15.3 -0.1,-32.3 -11.6,-42.9zM182.3,303.8c-6.3,10.8 -20.8,14.3 -32.4,13.4c-16.2,-1.2 -31.6,-10.4 -36.9,-25.4c2.3,-0.6 4.2,-2.5 4.1,-5.5c-0.4,-14.7 7.9,-25.5 22,-29.2c12.7,-3.4 27.7,0.3 37.5,9c10.7,9.3 12.7,25.6 5.7,37.7zM438.1,231c-14.6,-9.2 -33.4,-6 -47.6,2.2c-16.4,9.4 -26.8,27 -26.2,45.9c0,0.7 0.2,1.3 0.4,1.9c1.7,13.5 9.3,25.3 22.4,30.6c13.2,5.3 28.7,3.6 41.3,-2.5c13.7,-6.7 24.1,-18.7 27,-33.8c3,-16.2 -3,-35.3 -17.3,-44.3zM440.1,284.8c-6.7,11.4 -20.4,17.9 -33.2,18.9c-7.3,0.6 -15.1,-0.8 -21.1,-5.2c-7.3,-5.3 -10.1,-13.6 -10.5,-22.3v0c0.3,-15.1 9.9,-27.6 23,-34.8c11.6,-6.4 27.5,-7.6 37.8,1.8c11.1,10.2 11.3,29.2 4,41.6z" fill="#010101"></path></g></g></g></svg>