<svg xmlns="http://www.w3.org/2000/svg" xmlns:xlink="http://www.w3.org/1999/xlink" viewBox="0,0,256,256" width="48px" height="48px" fill-rule="nonzero"><g transform="translate(-15.36,-15.36) scale(1.12,1.12)"><g fill="none" fill-rule="nonzero" stroke="none" stroke-width="1" stroke-linecap="butt" stroke-linejoin="miter" stroke-miterlimit="10" stroke-dasharray="" stroke-dashoffset="0" font-family="none" font-weight="none" font-size="none" text-anchor="none" style="mix-blend-mode: normal"><g transform="translate(-1.07615,1.57341) scale(0.5,0.5)"><path d="M461.8,181.3c-9.1,-23.4 -22.2,-45.4 -38.1,-64.9c-32,-39.3 -76.9,-71.1 -127.6,-79.8c-54.5,-9.5 -112.4,10.3 -156.4,42.4c-22.6,16.5 -42.9,36.8 -56.9,61.2c-8,13.9 -14.2,28.5 -19.2,43.6c-5.5,10 -9.4,21 -12.4,31.9c-2.9,10.5 -4.9,21.4 -5.9,32.3c-0.2,0.9 -0.5,1.9 -0.8,2.8c-0.2,0.6 -0.4,1.1 -0.7,1.5c-0.6,5.3 -1,10.6 -1,16.1c-0.1,17.9 2,35.9 6.3,53.2c10.9,44.2 34.1,87.9 71,115.7c21.7,16.3 47.4,24.6 74.1,27.7c29.3,3.5 59.6,2.4 88.7,-1.7c28.9,-4.1 58.1,-11.3 84.1,-24.9c23.3,-12.2 42.5,-29 58.5,-49.9c29.6,-38.8 47.4,-87.9 48.1,-136.8c0.3,-23.8 -3.1,-48 -11.8,-70.4zM177.2,246.3c0,25.3 0.7,50.8 -1.3,76.1c-0.8,9.8 -2.6,19.8 -8.3,28c-6.3,8.9 -16.6,14.4 -27.3,15.9c-21.2,2.9 -43.6,-10.7 -44.1,-33.7c-0.2,-11.1 0.3,-21.3 4.8,-31.7c4.2,-9.6 10.5,-18.3 17.7,-25.9c15,-16 33.2,-28.5 48.8,-43.9c5,-5 13.3,2.3 8.3,7.3c-1,1 -2.1,2.1 -3.2,3.1c2.5,0.1 4.6,1.6 4.6,4.8zM201.9,200.3c-8.9,11.5 -22.3,20 -37.2,20.1c-15.6,0.1 -29.5,-6.8 -40.6,-17.6c-5.1,-4.9 2.2,-13.2 7.3,-8.3c8.6,8.4 20,15.3 32.4,14.9c12.4,-0.4 22.3,-6.7 29.8,-16.4c4.4,-5.6 12.6,1.7 8.3,7.3zM310.7,379.1c-2.4,6.6 -12.3,1.7 -9.9,-4.9c2.1,-5.6 -3.6,-10.4 -7.9,-12.9c-6.8,-4 -14.3,-6.6 -22,-8.1c-7.5,-1.4 -14.8,-2 -22.1,0.9c-8.8,3.4 -16.6,10 -15.6,20.1c0.7,7.1 -10.3,7.9 -11,0.8c-1.3,-14 8.1,-25.1 20.5,-30.4c9.8,-4.2 19.9,-4.4 30.2,-2.3c16.9,3.5 46,14.5 37.8,36.8zM312.3,187.1c-1.5,-6.9 9.5,-7.7 11,-0.8c2.1,10.1 18.6,13.1 26.8,13.8c7.2,0.6 23.5,0.2 26.3,-8.4c2.2,-6.6 13,-4.6 10.8,2.1c-5.2,15.8 -24.8,18.4 -39.2,17.1c-14.7,-1.4 -32.4,-7.7 -35.7,-23.8zM414.4,342.2c-14.3,13.8 -36,14.8 -51.5,2.1c-10.9,-8.9 -15.2,-21.8 -20.2,-34.5c-6.3,-16 -12.3,-32.2 -17,-48.8c-1.8,-6.5 -3.7,-13.2 -4.4,-19.9c-0.1,-1.3 -0.2,-2.6 -0.2,-3.9c-1,-2.4 -0.6,-5.4 2,-7.1c0.5,-0.7 1,-1.3 1.7,-1.9c2.7,-2.3 5.6,-1.1 7.1,1.2c2.3,0.6 4.6,1.6 6.6,2.5c6.1,2.9 11.9,6.4 17.5,10.1c11,7.2 21.4,14.9 32.8,21.4c13.8,7.8 29,17.3 35.5,32.5c6.5,15.1 1.9,34.8 -9.9,46.3z" fill="#febf10"></path><path d="M161.6,251.3c-16.1,13.8 -35,27.1 -46.1,45.7c-5.3,8.8 -8.8,18.8 -8.5,29.2c0.3,10.4 2.4,20.6 12.5,25.9c9.2,4.8 21.2,5 30.3,-0.3c8.8,-5.1 13,-13.3 14.5,-23.2c1.6,-10.3 2,-21.1 2,-31.4v-49.8c-1.6,1.2 -3.1,2.6 -4.7,3.9zM411,294.7c-10.9,-15 -29.6,-22 -44.5,-32.3c-7.6,-5.3 -15.2,-10.7 -23.2,-15.4c-3.5,-2.1 -7.2,-4.2 -11,-5.8c0.3,2 0.6,4 1.1,6c1.9,8.4 4.4,16.6 7.1,24.7c5.5,16.7 11.6,33.3 18.8,49.4c0.6,1.3 1.1,2.5 1.7,3.8c0.2,0.4 0.4,0.9 0.6,1.3v0c0,0 0.1,0.1 0.1,0.2c1.8,3.3 4.6,6.3 7.5,8.7c6.6,5.4 15.8,8.9 24.4,6.6c19.4,-5.2 29.4,-30.7 17.4,-47.2z" fill="#74cccf"></path><path d="M474.4,185.9c-7.6,-23.5 -20.1,-45.7 -34.6,-65.6c-30,-41.1 -72.3,-74.1 -121.2,-89c-52.3,-16 -107.8,-4.2 -155.2,20.8c-31.2,16.4 -59.9,40 -80.4,68.8c-12.2,17.2 -21.1,36.3 -27.9,56.1c-0.3,0.3 -0.7,0.7 -1,1.1c-1.1,1.7 -2.1,3.5 -3.1,5.4c-2.9,5.3 -4.8,11.4 -6.7,17c-0.6,1.8 -1.7,4.4 -2.4,7.2c-0.4,0.6 -0.7,1.2 -0.9,2.1c-2.6,12.7 -5.8,25.3 -7.3,38.2c-1.3,11.1 -1.5,22.2 -1,33.4c1.1,23.1 6.1,46.2 13.8,68c15.1,42.7 42.6,82.7 82,106.1c24.2,14.4 53.2,19.8 81,21.4c29.4,1.7 59.1,-0.2 88,-5.3c28.3,-5 56,-13.6 81.2,-27.7c22.4,-12.5 40.8,-30.3 56.2,-50.7c29.4,-39.1 46.4,-87.4 48.7,-136.2c1.2,-24 -1.8,-48.2 -9.2,-71.1zM473.6,251.9c-0.7,48.9 -18.6,98 -48.1,136.8c-15.9,20.9 -35.2,37.7 -58.5,49.9c-26,13.6 -55.2,20.8 -84.1,24.9c-29.1,4.1 -59.5,5.1 -88.7,1.7c-26.8,-3.2 -52.5,-11.4 -74.1,-27.7c-37,-27.8 -60.2,-71.5 -71,-115.7c-4.3,-17.4 -6.3,-35.3 -6.3,-53.2c0,-5.4 0.4,-10.8 1,-16.1c0.3,-0.4 0.5,-0.9 0.7,-1.5c0.3,-0.9 0.6,-1.9 0.8,-2.8c1,-10.9 3,-21.8 5.9,-32.3c3,-10.9 6.9,-21.9 12.4,-31.9c5,-15.1 11.2,-29.7 19.2,-43.6c14,-24.3 34.3,-44.7 56.9,-61.2c44,-32.2 101.9,-52 156.5,-42.5c50.6,8.8 95.6,40.6 127.6,79.8c15.9,19.5 29,41.5 38.1,64.9c8.6,22.3 12,46.5 11.7,70.5z" fill="#010101"></path><path d="M193.6,193.1c-7.5,9.7 -17.4,16 -29.8,16.4c-12.4,0.4 -23.9,-6.5 -32.4,-14.9c-5.1,-5 -12.3,3.3 -7.3,8.3c11,10.8 25,17.7 40.6,17.6c14.9,-0.1 28.3,-8.6 37.2,-20.1c4.3,-5.7 -3.9,-13 -8.3,-7.3zM376.4,191.6c-2.8,8.6 -19.1,9 -26.3,8.4c-8.2,-0.6 -24.7,-3.7 -26.8,-13.8c-1.4,-6.8 -12.4,-6.1 -11,0.8c3.4,16.1 21.1,22.4 35.7,23.7c14.4,1.3 34,-1.3 39.2,-17.1c2.2,-6.6 -8.6,-8.6 -10.8,-2zM172.7,241.4c1.1,-1 2.1,-2 3.2,-3.1c5.1,-5 -3.3,-12.2 -8.3,-7.3c-15.5,15.4 -33.8,27.9 -48.8,43.9c-7.2,7.6 -13.5,16.3 -17.7,25.9c-4.5,10.3 -5.1,20.6 -4.8,31.7c0.5,23 22.9,36.6 44.1,33.7c10.7,-1.5 21,-7 27.3,-15.9c5.8,-8.2 7.6,-18.2 8.3,-28c2,-25.3 1.3,-50.7 1.3,-76.1c-0.1,-3.1 -2.2,-4.6 -4.6,-4.8zM166.3,297.1c0,10.4 -0.5,21.2 -2,31.4c-1.5,9.9 -5.6,18.1 -14.5,23.2c-9.1,5.3 -21.1,5.1 -30.3,0.3c-10.1,-5.3 -12.1,-15.5 -12.5,-25.9c-0.4,-10.4 3.2,-20.3 8.5,-29.2c11.1,-18.6 30,-31.9 46.1,-45.7c1.6,-1.3 3.1,-2.7 4.6,-4v49.9zM424.2,295.9c-6.5,-15.2 -21.8,-24.7 -35.5,-32.5c-11.4,-6.5 -21.8,-14.2 -32.8,-21.4c-5.6,-3.7 -11.4,-7.3 -17.5,-10.1c-2,-0.9 -4.2,-1.9 -6.6,-2.5c-1.5,-2.3 -4.4,-3.5 -7.1,-1.2c-0.7,0.6 -1.2,1.2 -1.7,1.9c-2.5,1.6 -3,4.7 -2,7.1c0,1.3 0.1,2.6 0.2,3.9c0.7,6.7 2.6,13.4 4.4,19.9c4.7,16.6 10.6,32.8 17,48.8c5,12.7 9.4,25.5 20.2,34.5c15.5,12.8 37.2,11.7 51.5,-2.1c11.9,-11.5 16.5,-31.2 9.9,-46.3zM393.6,341.8c-8.6,2.3 -17.8,-1.2 -24.4,-6.6c-2.9,-2.4 -5.7,-5.4 -7.5,-8.7c0,-0.1 -0.1,-0.1 -0.1,-0.2v0c-0.2,-0.4 -0.4,-0.9 -0.6,-1.3c-0.6,-1.2 -1.2,-2.5 -1.7,-3.8c-7.1,-16.1 -13.2,-32.7 -18.8,-49.4c-2.7,-8.1 -5.2,-16.3 -7.1,-24.7c-0.4,-2 -0.8,-4 -1.1,-6c3.8,1.6 7.4,3.7 11,5.8c8,4.7 15.6,10.1 23.2,15.4c14.9,10.3 33.6,17.3 44.5,32.3c12,16.6 2,42.1 -17.4,47.2zM273,342.4c-10.4,-2.1 -20.4,-1.9 -30.2,2.3c-12.4,5.3 -21.8,16.4 -20.5,30.4c0.7,7 11.6,6.2 11,-0.8c-1,-10.2 6.8,-16.7 15.6,-20.1c7.3,-2.9 14.5,-2.3 22.1,-0.9c7.7,1.5 15.2,4.1 22,8.1c4.3,2.5 10,7.3 7.9,12.9c-2.4,6.6 7.4,11.5 9.9,4.9c8.1,-22.4 -21,-33.4 -37.8,-36.8z" fill="#010101"></path></g></g></g></svg>