<svg xmlns="http://www.w3.org/2000/svg" xmlns:xlink="http://www.w3.org/1999/xlink" viewBox="0,0,256,256" width="48px" height="48px" fill-rule="nonzero"><g transform="translate(-15.36,-15.36) scale(1.12,1.12)"><g fill="none" fill-rule="nonzero" stroke="none" stroke-width="1" stroke-linecap="butt" stroke-linejoin="miter" stroke-miterlimit="10" stroke-dasharray="" stroke-dashoffset="0" font-family="none" font-weight="none" font-size="none" text-anchor="none" style="mix-blend-mode: normal"><g transform="translate(-0.24863,-1.60634) scale(5.33333,5.33333)"><path d="M21,4c-5,-1 -9,3 -13,6c-6,6 -6,15 -3,23c4,9 14,13 23,11c10,-2 18,-12 17,-22c-1,-12 -13,-20 -24,-18" fill="#febf10"></path><path d="M23.347,45.014c-8.084,0 -15.561,-4.515 -18.804,-11.811c-3.549,-9.463 -2.414,-18.039 3.103,-23.557c0.64,-0.486 1.226,-0.948 1.815,-1.412c3.49,-2.745 7.098,-5.582 11.542,-4.744c5.694,-1.006 11.717,0.53 16.539,4.226c4.663,3.573 7.488,8.631 7.955,14.242c1.012,10.121 -6.956,20.443 -17.4,22.532c-1.588,0.353 -3.18,0.524 -4.75,0.524zM19.446,4.345c-3.423,0 -6.438,2.373 -9.365,4.676c-0.596,0.469 -1.188,0.935 -1.781,1.379c-5.174,5.182 -6.226,13.372 -2.832,22.424c3.668,8.253 13.105,12.759 22.423,10.688c9.973,-1.995 17.575,-11.822 16.611,-21.462c-0.444,-5.334 -3.132,-10.14 -7.568,-13.539c-4.624,-3.544 -10.401,-5.008 -15.845,-4.019c-0.062,0.011 -0.126,0.01 -0.188,-0.001c-0.493,-0.099 -0.978,-0.146 -1.455,-0.146z" fill="#010101"></path><path d="M13.78,20.762c-0.073,0 -0.146,-0.016 -0.216,-0.049c-0.249,-0.12 -0.354,-0.418 -0.234,-0.667c0.656,-1.364 2.056,-2.322 3.565,-2.44c1.512,-0.115 3.041,0.61 3.902,1.856c0.157,0.227 0.1,0.539 -0.127,0.696c-0.228,0.155 -0.539,0.1 -0.696,-0.127c-0.662,-0.958 -1.842,-1.52 -3,-1.428c-1.161,0.091 -2.238,0.828 -2.742,1.877c-0.087,0.178 -0.266,0.282 -0.452,0.282z" fill="#010101"></path><path d="M33.768,20.569c-0.142,0 -0.283,-0.06 -0.382,-0.176c-0.992,-1.169 -2.718,-1.707 -4.197,-1.306c-0.469,0.127 -1,0.415 -1.084,0.843c-0.054,0.271 -0.317,0.447 -0.587,0.394c-0.271,-0.054 -0.447,-0.316 -0.394,-0.587c0.147,-0.745 0.822,-1.349 1.805,-1.615c1.869,-0.507 3.967,0.147 5.221,1.624c0.179,0.211 0.153,0.526 -0.058,0.705c-0.095,0.079 -0.21,0.118 -0.324,0.118z" fill="#010101"></path><path d="M24.266,32.621c0.551,2.242 2.334,4.179 4.075,4.903c0.732,0.304 1.66,0.368 2.242,-0.378c0.593,-0.76 0.516,-2.039 0.053,-2.833c-0.464,-0.794 -1.52,-1.779 -2.235,-2.177z" fill="#ed2224"></path><path d="M31.068,34.061c-0.45,-0.77 -1.309,-1.599 -2.014,-2.097c0.563,-0.511 1.003,-1.151 1.232,-1.879c0.083,-0.263 -0.063,-0.544 -0.327,-0.627c-0.262,-0.083 -0.543,0.063 -0.627,0.327c-0.268,0.853 -0.888,1.572 -1.7,1.975c-0.671,0.332 -1.489,0.471 -2.491,0.422c-2.006,-0.096 -3.965,-0.836 -5.667,-2.141c-0.219,-0.167 -0.533,-0.126 -0.701,0.093c-0.168,0.219 -0.126,0.533 0.093,0.701c1.519,1.165 3.232,1.912 5.01,2.208c0.633,2.137 2.345,4.142 4.273,4.943c0.409,0.17 0.807,0.254 1.179,0.254c0.666,0 1.246,-0.268 1.649,-0.786c0.742,-0.952 0.629,-2.472 0.091,-3.393zM30.189,36.838c-0.468,0.6 -1.238,0.398 -1.656,0.224c-1.319,-0.548 -2.87,-2.022 -3.567,-3.892c0.042,0.003 0.084,0.009 0.127,0.011c0.146,0.007 0.289,0.01 0.428,0.01c0.99,0 1.829,-0.176 2.554,-0.535c0.038,-0.019 0.069,-0.047 0.106,-0.067c0.619,0.352 1.604,1.261 2.023,1.976c0.364,0.623 0.444,1.684 -0.015,2.273z" fill="#010101"></path><path d="M27.891,34.327c0.388,0.406 0.775,0.813 1.163,1.219" fill="#ed2224"></path><path d="M29.054,36.046c-0.132,0 -0.264,-0.052 -0.362,-0.155l-1.163,-1.219c-0.19,-0.2 -0.183,-0.516 0.017,-0.707c0.199,-0.19 0.517,-0.184 0.707,0.017l1.163,1.219c0.19,0.2 0.183,0.516 -0.017,0.707c-0.097,0.092 -0.221,0.138 -0.345,0.138z" fill="#010101"></path><path d="M36.709,25.096c-0.87,-0.403 -1.994,0.003 -2.505,0.815c-0.511,0.812 -0.433,1.918 0.085,2.725c0.518,0.807 1.421,1.323 2.365,1.494c0.85,0.154 1.866,-0.029 2.31,-0.77c0.373,-0.623 0.21,-1.455 -0.205,-2.051c-0.416,-0.596 -1.039,-1.009 -1.647,-1.407z" fill="#f6851f"></path><path d="M37.21,30.678c-0.225,0 -0.443,-0.021 -0.645,-0.057c-1.147,-0.208 -2.13,-0.833 -2.697,-1.715c-0.646,-1.006 -0.682,-2.316 -0.088,-3.261c0.66,-1.049 2.067,-1.5 3.139,-1.002c0.25,0.116 0.359,0.414 0.243,0.664c-0.016,0.034 -0.036,0.066 -0.058,0.095c0.102,0.005 0.194,0.025 0.281,0.082c0.613,0.401 1.308,0.855 1.784,1.54c0.581,0.833 0.668,1.851 0.224,2.594c-0.473,0.789 -1.371,1.06 -2.183,1.06zM35.971,25.438c-0.512,0 -1.053,0.278 -1.343,0.739c-0.385,0.613 -0.351,1.513 0.083,2.188c0.411,0.641 1.171,1.116 2.033,1.271c0.66,0.12 1.471,0.001 1.792,-0.534c0.276,-0.461 0.105,-1.09 -0.186,-1.508c-0.366,-0.525 -0.948,-0.906 -1.511,-1.274c-0.231,-0.151 -0.296,-0.461 -0.145,-0.692c0.007,-0.011 0.015,-0.021 0.022,-0.032c-0.065,0 -0.146,-0.014 -0.217,-0.046c-0.164,-0.076 -0.344,-0.112 -0.528,-0.112z" fill="#010101"></path><path d="M11.229,26.371c-0.485,-0.15 -0.978,-0.302 -1.485,-0.312c-0.508,-0.01 -1.041,0.139 -1.388,0.509c-0.513,0.548 -0.487,1.42 -0.231,2.126c0.376,1.038 1.189,1.91 2.199,2.357c1.009,0.448 2.201,0.465 3.223,0.047c0.712,-0.291 1.367,-0.827 1.597,-1.562c0.286,-0.916 -0.17,-1.946 -0.914,-2.552c-0.744,-0.606 -1.719,-0.853 -2.673,-0.949z" fill="#f6851f"></path><path d="M11.991,31.902c-0.64,0 -1.279,-0.131 -1.871,-0.394c-1.142,-0.506 -2.041,-1.469 -2.466,-2.644c-0.288,-0.794 -0.351,-1.905 0.337,-2.638c0.411,-0.438 1.033,-0.692 1.764,-0.667c0.477,0.01 0.935,0.127 1.354,0.252c0.09,-0.179 0.281,-0.288 0.497,-0.273c1.26,0.127 2.221,0.474 2.939,1.059c0.973,0.792 1.405,2.034 1.075,3.088c-0.251,0.805 -0.938,1.488 -1.884,1.875c-0.557,0.229 -1.152,0.342 -1.745,0.342zM9.691,26.559c-0.409,0 -0.761,0.127 -0.971,0.351c-0.378,0.404 -0.313,1.098 -0.126,1.614c0.329,0.906 1.05,1.68 1.931,2.07c0.881,0.39 1.94,0.407 2.831,0.042c0.669,-0.274 1.146,-0.729 1.309,-1.248c0.206,-0.658 -0.104,-1.486 -0.753,-2.015c-0.527,-0.43 -1.254,-0.698 -2.218,-0.818c-0.094,0.241 -0.359,0.374 -0.613,0.294c-0.445,-0.138 -0.906,-0.281 -1.348,-0.29c-0.014,0 -0.027,0 -0.042,0z" fill="#010101"></path></g></g></g></svg>